<svg width="44" height="44" viewBox="0 0 44 44" fill="none" xmlns="http://www.w3.org/2000/svg">
<circle cx="22" cy="22" r="21.5" fill="white" stroke="#D8D6D6"/>
<path d="M13.2653 11L21.898 19.6327L30.5306 28.2653" stroke="black" stroke-width="2.00087" stroke-linecap="round" stroke-linejoin="round"/>
<path d="M30.2653 11L21.6327 19.6327L13 28.2653" stroke="black" stroke-width="2.00087" stroke-linecap="round" stroke-linejoin="round"/>
<path d="M16.5344 32.7674C16.5082 32.8092 16.4847 32.8537 16.4637 32.9008C16.4428 32.9426 16.4324 32.9923 16.4324 33.0498C16.3905 33.076 16.3513 33.11 16.3147 33.1518C16.2833 33.1937 16.2545 33.2382 16.2284 33.2852C16.2074 33.3218 16.1865 33.3585 16.1656 33.3951C16.1499 33.4265 16.129 33.4605 16.1028 33.4971C16.0976 33.5075 16.0871 33.5075 16.0714 33.4971C16.061 33.4866 16.0531 33.4735 16.0479 33.4578C16.0479 33.4369 16.0374 33.4265 16.0165 33.4265C16.0008 33.4265 15.9877 33.4343 15.9773 33.45C15.9668 33.4552 15.9564 33.4657 15.9459 33.4814C15.9354 33.4918 15.925 33.5023 15.9145 33.5128C15.9093 33.518 15.8988 33.5232 15.8831 33.5285C15.8727 33.5285 15.8622 33.5311 15.8517 33.5363C15.8308 33.5154 15.8073 33.4971 15.7811 33.4814C15.755 33.4605 15.7288 33.4395 15.7027 33.4186C15.6713 33.4082 15.6399 33.3977 15.6085 33.3872C15.5771 33.3768 15.5484 33.3689 15.5222 33.3637C15.5013 33.3532 15.4934 33.348 15.4987 33.348C15.483 33.3375 15.4699 33.3245 15.4594 33.3088C15.449 33.2931 15.4307 33.2905 15.4045 33.3009C15.3888 33.3166 15.381 33.3323 15.381 33.348C15.3862 33.3585 15.3862 33.3742 15.381 33.3951C15.3444 33.3951 15.3182 33.3977 15.3025 33.4029C15.292 33.4082 15.2816 33.4134 15.2711 33.4186C15.2607 33.4238 15.2476 33.4291 15.2319 33.4343C15.2162 33.4291 15.1979 33.4265 15.177 33.4265C15.156 33.4212 15.1325 33.416 15.1064 33.4108C15.0593 33.416 15.0122 33.4317 14.9651 33.4578C14.9233 33.4788 14.8814 33.4997 14.8396 33.5206C14.8082 33.5258 14.7847 33.5468 14.769 33.5834C14.748 33.6357 14.7167 33.6854 14.6748 33.7325C14.633 33.7795 14.5964 33.8292 14.565 33.8815C14.5597 33.892 14.5519 33.9077 14.5414 33.9286C14.531 33.9443 14.5205 33.96 14.51 33.9757C14.5048 33.9914 14.4996 34.0071 14.4944 34.0228C14.4944 34.0332 14.4944 34.0463 14.4944 34.062C14.5048 34.0934 14.5153 34.1143 14.5257 34.1248C14.5153 34.1405 14.5048 34.1562 14.4944 34.1718C14.4839 34.1875 14.4734 34.2032 14.463 34.2189C14.4682 34.2346 14.4708 34.2503 14.4708 34.266C14.4708 34.2817 14.4734 34.2948 14.4787 34.3052C14.4944 34.3575 14.5153 34.3994 14.5414 34.4308C14.5571 34.4517 14.5702 34.4752 14.5807 34.5014C14.5911 34.5223 14.6042 34.5485 14.6199 34.5798C14.6408 34.5955 14.6617 34.6112 14.6827 34.6269C14.7036 34.6426 14.7245 34.6609 14.7454 34.6818C14.7664 34.7028 14.7847 34.7237 14.8004 34.7446C14.8213 34.7603 14.8396 34.7786 14.8553 34.7995C14.8762 34.7943 14.8945 34.7917 14.9102 34.7917C14.9311 34.7917 14.9547 34.7891 14.9808 34.7838C14.9913 34.7891 15.0017 34.7943 15.0122 34.7995C15.0279 34.7995 15.041 34.8022 15.0514 34.8074C15.088 34.8126 15.122 34.8178 15.1534 34.8231C15.19 34.8283 15.224 34.8231 15.2554 34.8074C15.2973 34.7969 15.3417 34.7865 15.3888 34.776C15.4359 34.7603 15.4777 34.7498 15.5144 34.7446C15.551 34.7498 15.585 34.7577 15.6164 34.7682C15.653 34.7786 15.6896 34.7891 15.7262 34.7995C15.7628 34.7734 15.7994 34.7525 15.836 34.7368C15.8779 34.7158 15.9224 34.7028 15.9694 34.6975C16.0165 34.7132 16.0505 34.742 16.0714 34.7838C16.0924 34.81 16.108 34.8388 16.1185 34.8702C16.1342 34.9015 16.1499 34.9329 16.1656 34.9643C16.176 35.0009 16.1891 35.0349 16.2048 35.0663C16.2257 35.0977 16.2467 35.1291 16.2676 35.1605C16.2833 35.1814 16.299 35.2049 16.3147 35.2311C16.3356 35.2572 16.3513 35.2808 16.3617 35.3017C16.3774 35.3854 16.3722 35.4586 16.346 35.5214C16.3094 35.5475 16.2728 35.5763 16.2362 35.6077C16.1996 35.6391 16.163 35.6705 16.1264 35.7018C16.1159 35.7228 16.1054 35.7437 16.095 35.7646C16.0845 35.7803 16.074 35.7986 16.0636 35.8195C16.0427 35.8248 16.0217 35.8326 16.0008 35.8431C15.9799 35.8483 15.959 35.8588 15.938 35.8745C15.9224 35.8797 15.904 35.8849 15.8831 35.8902C15.8674 35.8902 15.8491 35.8954 15.8282 35.9058C15.7968 35.9268 15.7576 35.9503 15.7105 35.9765C15.6739 35.9555 15.632 35.9425 15.585 35.9372C15.5484 35.9634 15.5065 35.9765 15.4594 35.9765C15.4124 35.9765 15.3679 35.9817 15.326 35.9922C15.279 35.9974 15.2345 35.9922 15.1927 35.9765C15.156 35.9555 15.1168 35.9398 15.075 35.9294L14.9651 35.9843L14.8004 35.9294C14.7794 35.9346 14.7559 35.9372 14.7297 35.9372C14.7088 35.9372 14.6853 35.9398 14.6591 35.9451C14.6382 35.9346 14.6147 35.9242 14.5885 35.9137C14.5624 35.9032 14.5362 35.8954 14.51 35.8902C14.4944 35.8902 14.476 35.8902 14.4551 35.8902C14.4394 35.8902 14.4211 35.8928 14.4002 35.898C14.3688 35.8771 14.3453 35.8588 14.3296 35.8431C14.3087 35.8274 14.2877 35.8117 14.2668 35.796C14.2459 35.7751 14.2224 35.762 14.1962 35.7568C14.1073 35.7097 14.0314 35.6495 13.9687 35.5763C13.932 35.5345 13.8928 35.4952 13.851 35.4586C13.8144 35.4168 13.7699 35.3775 13.7176 35.3409C13.6914 35.3148 13.6627 35.2782 13.6313 35.2311C13.6208 35.1631 13.5973 35.1003 13.5607 35.0428C13.524 34.98 13.4874 34.9198 13.4508 34.8623C13.456 34.8257 13.4508 34.7943 13.4351 34.7682C13.4194 34.742 13.4064 34.7132 13.3959 34.6818C13.4064 34.64 13.409 34.5955 13.4037 34.5485C13.4037 34.4962 13.4064 34.4438 13.4116 34.3915C13.4168 34.3654 13.4011 34.334 13.3645 34.2974C13.3645 34.2765 13.3697 34.2634 13.3802 34.2582C13.3959 34.2477 13.4064 34.2346 13.4116 34.2189C13.4377 34.2032 13.4508 34.1771 13.4508 34.1405C13.4404 34.13 13.4299 34.1169 13.4194 34.1012C13.4142 34.0803 13.4064 34.0646 13.3959 34.0542C13.4064 34.0332 13.4168 34.0097 13.4273 33.9835C13.4377 33.9574 13.443 33.9338 13.443 33.9129V33.7717C13.4639 33.7403 13.4848 33.7168 13.5057 33.7011C13.5057 33.6592 13.49 33.6357 13.4587 33.6305C13.4325 33.6252 13.4116 33.6122 13.3959 33.5912C13.4325 33.4709 13.456 33.3977 13.4665 33.3715C13.4822 33.3402 13.5136 33.2905 13.5607 33.2225C13.5659 33.1649 13.5685 33.1074 13.5685 33.0498C13.5685 32.9923 13.5894 32.9322 13.6313 32.8694C13.6417 32.8642 13.6548 32.8537 13.6705 32.838C13.6862 32.8223 13.7019 32.8066 13.7176 32.7909C13.728 32.7648 13.7359 32.7412 13.7411 32.7203C13.7516 32.6942 13.7594 32.6706 13.7647 32.6497C13.796 32.6235 13.8274 32.6 13.8588 32.5791C13.8902 32.5529 13.9242 32.5268 13.9608 32.5006C13.9713 32.4902 13.9817 32.4823 13.9922 32.4771C14.0079 32.4718 14.0262 32.4666 14.0471 32.4614C14.0733 32.4562 14.0968 32.4457 14.1177 32.43C14.1387 32.4143 14.1596 32.3986 14.1805 32.3829C14.191 32.3882 14.204 32.3908 14.2197 32.3908C14.2354 32.3908 14.2511 32.3934 14.2668 32.3986C14.3087 32.3882 14.3453 32.3698 14.3767 32.3437C14.408 32.3175 14.442 32.2888 14.4787 32.2574C14.5414 32.2417 14.6042 32.2286 14.667 32.2182C14.735 32.2025 14.7977 32.1815 14.8553 32.1554C14.8919 32.1554 14.9259 32.1632 14.9573 32.1789C14.9939 32.1946 15.0305 32.192 15.0671 32.1711C15.0776 32.1606 15.0907 32.1606 15.1064 32.1711C15.1587 32.1711 15.211 32.1737 15.2633 32.1789C15.3208 32.1842 15.3757 32.1894 15.428 32.1946C15.5065 32.2051 15.5693 32.1868 15.6164 32.1397C15.6216 32.1345 15.6268 32.1292 15.632 32.124C15.6373 32.1188 15.6425 32.1135 15.6477 32.1083C15.6582 32.1135 15.6687 32.1188 15.6791 32.124C15.6948 32.1292 15.7053 32.1345 15.7105 32.1397C15.8413 32.2548 15.9904 32.3202 16.1577 32.3358C16.1839 32.3358 16.21 32.3411 16.2362 32.3515C16.2624 32.362 16.2859 32.3725 16.3068 32.3829L16.4716 32.5477C16.5239 32.5895 16.5422 32.6418 16.5265 32.7046C16.5265 32.7151 16.5265 32.7255 16.5265 32.736C16.5317 32.7465 16.5344 32.7569 16.5344 32.7674ZM19.2831 35.3645C19.2831 35.4115 19.2622 35.4508 19.2203 35.4822C19.1785 35.524 19.168 35.5737 19.1889 35.6312C19.1994 35.6678 19.2046 35.7071 19.2046 35.7489C19.2046 35.7908 19.2046 35.8326 19.2046 35.8745C19.1994 35.8849 19.1915 35.898 19.1811 35.9137C19.1759 35.9242 19.168 35.9346 19.1575 35.9451C19.1366 35.9555 19.1235 35.9608 19.1183 35.9608C19.0765 35.966 19.0346 35.9712 18.9928 35.9765C18.9509 35.9765 18.9091 35.9765 18.8672 35.9765C18.8411 35.9765 18.828 35.9765 18.828 35.9765C18.7548 35.9555 18.6815 35.9451 18.6083 35.9451C18.5403 35.9398 18.4723 35.932 18.4043 35.9215C18.3625 35.9111 18.3232 35.9058 18.2866 35.9058C18.25 35.9058 18.2134 35.9111 18.1768 35.9215C18.1245 35.8954 18.0722 35.8692 18.0199 35.8431C17.9728 35.8117 17.9205 35.7829 17.8629 35.7568C17.8263 35.6992 17.7792 35.6522 17.7217 35.6155C17.6694 35.5737 17.6223 35.524 17.5805 35.4665C17.57 35.4403 17.5569 35.4142 17.5412 35.388C17.5308 35.3618 17.5177 35.3383 17.502 35.3174C17.4497 35.2389 17.4157 35.1526 17.4 35.0585C17.4 35.0218 17.3869 34.9905 17.3608 34.9643C17.3189 34.8858 17.3085 34.8126 17.3294 34.7446C17.3346 34.7342 17.3346 34.7237 17.3294 34.7132C17.3294 34.6975 17.332 34.6871 17.3372 34.6818C17.3163 34.6557 17.3006 34.6348 17.2902 34.6191C17.2797 34.6034 17.2692 34.5877 17.2588 34.572C17.2588 34.5354 17.2614 34.5092 17.2666 34.4935L17.2039 34.4151C17.2143 34.3575 17.2222 34.3 17.2274 34.2425C17.2379 34.1797 17.2483 34.1222 17.2588 34.0698L17.2039 33.9914C17.2039 33.9705 17.2117 33.9548 17.2274 33.9443C17.2431 33.9286 17.2562 33.9103 17.2666 33.8894C17.2875 33.8318 17.3006 33.7769 17.3059 33.7246C17.3215 33.6618 17.3294 33.6017 17.3294 33.5442C17.3189 33.4291 17.3189 33.3166 17.3294 33.2068C17.3399 33.0969 17.3425 32.9845 17.3372 32.8694C17.3634 32.7543 17.3739 32.6392 17.3686 32.5242C17.3634 32.4091 17.3712 32.2966 17.3922 32.1868C17.3922 32.1606 17.3922 32.1475 17.3922 32.1475C17.3765 32.0848 17.3765 32.0246 17.3922 31.9671C17.4079 31.9095 17.4262 31.8572 17.4471 31.8102C17.4419 31.7997 17.4392 31.7866 17.4392 31.7709C17.4392 31.7552 17.434 31.7422 17.4235 31.7317C17.434 31.6951 17.4497 31.6663 17.4706 31.6454C17.4915 31.6192 17.5099 31.5957 17.5255 31.5748C17.536 31.5538 17.5439 31.5329 17.5491 31.512C17.5595 31.4858 17.5674 31.4623 17.5726 31.4414L17.6275 31.3865C17.6746 31.376 17.7243 31.3734 17.7766 31.3786C17.7923 31.3838 17.808 31.3917 17.8237 31.4022C17.8446 31.4126 17.8655 31.4231 17.8865 31.4335C17.9231 31.4545 17.9571 31.4728 17.9885 31.4885C18.0251 31.4989 18.0643 31.5015 18.1062 31.4963C18.1637 31.5172 18.2186 31.5303 18.2709 31.5355C18.3285 31.5408 18.3834 31.5408 18.4357 31.5355H18.4671C18.4671 31.5355 18.4671 31.5382 18.4671 31.5434C18.4723 31.5434 18.4775 31.5434 18.4828 31.5434C18.5089 31.5486 18.5325 31.5617 18.5534 31.5826C18.5743 31.6035 18.5795 31.6271 18.5691 31.6532C18.5586 31.7317 18.5508 31.8102 18.5455 31.8886C18.5455 31.9671 18.5403 32.0455 18.5299 32.124C18.5194 32.1972 18.5089 32.2731 18.4985 32.3515C18.488 32.4248 18.4749 32.498 18.4592 32.5712C18.454 32.6863 18.4435 32.8014 18.4279 32.9165C18.4174 33.0263 18.4122 33.1362 18.4122 33.246C18.4122 33.2617 18.4122 33.2748 18.4122 33.2852C18.4174 33.2957 18.42 33.3062 18.42 33.3166C18.3939 33.3689 18.3729 33.4212 18.3572 33.4735C18.3468 33.5258 18.3337 33.5808 18.318 33.6383C18.3075 33.6802 18.3075 33.7246 18.318 33.7717C18.3337 33.8345 18.3389 33.8972 18.3337 33.96C18.3337 34.0228 18.3285 34.0882 18.318 34.1562V34.2032C18.3285 34.2242 18.3389 34.2477 18.3494 34.2738C18.3651 34.3 18.3782 34.3262 18.3886 34.3523C18.3834 34.368 18.3782 34.3863 18.3729 34.4072C18.3677 34.4229 18.3625 34.4386 18.3572 34.4543C18.3677 34.4805 18.3729 34.5092 18.3729 34.5406C18.3782 34.572 18.3834 34.6008 18.3886 34.6269C18.4095 34.6531 18.4305 34.6792 18.4514 34.7054C18.4723 34.7263 18.4854 34.7525 18.4906 34.7838C18.4906 34.7943 18.4959 34.8074 18.5063 34.8231C18.5168 34.8388 18.5246 34.8518 18.5299 34.8623C18.5403 34.8885 18.556 34.9094 18.5769 34.9251C18.6031 34.9408 18.6266 34.9538 18.6475 34.9643C18.6842 34.9695 18.7182 34.9774 18.7495 34.9878C18.7809 34.9983 18.8149 35.0088 18.8515 35.0192C18.8725 35.0192 18.8882 35.0192 18.8986 35.0192C18.9143 35.014 18.93 35.0114 18.9457 35.0114C18.9562 35.0166 18.9692 35.0218 18.9849 35.0271C19.0059 35.0323 19.0242 35.0375 19.0399 35.0428C19.0451 35.048 19.0503 35.0558 19.0555 35.0663C19.0608 35.0715 19.066 35.0768 19.0712 35.082C19.0817 35.1238 19.1105 35.1683 19.1575 35.2154C19.1837 35.2363 19.2072 35.2598 19.2282 35.286C19.2543 35.3069 19.2726 35.3331 19.2831 35.3645ZM23.4222 33.858C23.4379 33.9208 23.4353 33.9783 23.4144 34.0306C23.4039 34.0568 23.3961 34.0829 23.3909 34.1091C23.3856 34.1352 23.3856 34.1614 23.3909 34.1875C23.3961 34.1928 23.3961 34.2006 23.3909 34.2111C23.3909 34.2163 23.3909 34.2242 23.3909 34.2346C23.3699 34.2765 23.3595 34.3209 23.3595 34.368C23.3647 34.4151 23.3699 34.4595 23.3752 34.5014L23.2967 34.6112V34.7132C23.2862 34.7237 23.2732 34.7368 23.2575 34.7525C23.2418 34.7629 23.2209 34.7786 23.1947 34.7995C23.1842 34.8362 23.1685 34.8754 23.1476 34.9172C23.1319 34.9591 23.1189 34.9983 23.1084 35.0349V35.1134C23.0875 35.1343 23.0613 35.1526 23.0299 35.1683C22.9985 35.184 22.9724 35.2075 22.9515 35.2389C22.9305 35.2546 22.9096 35.2677 22.8887 35.2782C22.8678 35.2886 22.8442 35.3017 22.8181 35.3174C22.8076 35.3226 22.7945 35.3252 22.7789 35.3252C22.7684 35.32 22.7579 35.32 22.7475 35.3252C22.669 35.3252 22.6298 35.3618 22.6298 35.4351C22.5722 35.4717 22.5147 35.5109 22.4572 35.5528C22.4049 35.5946 22.3499 35.6365 22.2924 35.6783C22.2035 35.7463 22.0884 35.7934 21.9472 35.8195C21.9001 35.8248 21.8556 35.8378 21.8138 35.8588C21.7719 35.8745 21.7275 35.8875 21.6804 35.898C21.6699 35.898 21.6569 35.8954 21.6412 35.8902C21.6255 35.8849 21.6124 35.8849 21.6019 35.8902C21.5392 35.8954 21.4738 35.8902 21.4058 35.8745C21.3849 35.8692 21.3639 35.8692 21.343 35.8745C21.3221 35.8797 21.3038 35.8849 21.2881 35.8902C21.2515 35.8849 21.2149 35.8797 21.1782 35.8745C21.1416 35.8692 21.1024 35.864 21.0605 35.8588C21.0135 35.8378 20.969 35.8143 20.9272 35.7882C20.8905 35.762 20.8513 35.7385 20.8095 35.7175C20.7781 35.7071 20.7493 35.6888 20.7232 35.6626C20.697 35.6365 20.6761 35.6103 20.6604 35.5842C20.6552 35.5737 20.6473 35.5658 20.6369 35.5606C20.6316 35.5502 20.6238 35.5397 20.6133 35.5292C20.5976 35.5188 20.5819 35.5109 20.5662 35.5057C20.5505 35.4952 20.5349 35.4822 20.5192 35.4665C20.4355 35.4089 20.3596 35.3462 20.2916 35.2782C20.2289 35.2102 20.1818 35.1265 20.1504 35.0271C20.1242 34.9591 20.0929 34.8989 20.0562 34.8466C20.0458 34.8257 20.0327 34.8074 20.017 34.7917C20.0065 34.7708 19.9961 34.7498 19.9856 34.7289C19.9909 34.7185 19.9987 34.6975 20.0092 34.6662C19.9987 34.6505 19.9882 34.6348 19.9778 34.6191C19.9673 34.6034 19.9621 34.5851 19.9621 34.5642C19.9621 34.5485 19.9595 34.5328 19.9542 34.5171C19.9542 34.4962 19.9569 34.4752 19.9621 34.4543C19.9725 34.4177 19.9752 34.3811 19.9699 34.3445C19.9647 34.3078 19.9647 34.2712 19.9699 34.2346C19.9752 34.2032 19.9725 34.1692 19.9621 34.1326C19.9569 34.096 19.9621 34.062 19.9778 34.0306C19.9882 33.994 19.9961 33.96 20.0013 33.9286C20.0065 33.8972 20.0144 33.8658 20.0249 33.8345C20.0353 33.8031 20.0458 33.7743 20.0562 33.7482C20.0667 33.7168 20.0772 33.688 20.0876 33.6618C20.0981 33.6305 20.1085 33.5991 20.119 33.5677C20.1295 33.5363 20.1452 33.5023 20.1661 33.4657C20.1661 33.4552 20.1661 33.4422 20.1661 33.4265C20.1661 33.4108 20.1687 33.4003 20.1739 33.3951C20.1949 33.3532 20.2105 33.314 20.221 33.2774C20.2315 33.2408 20.2341 33.2042 20.2289 33.1675C20.2498 33.1414 20.2681 33.1205 20.2838 33.1048C20.2995 33.0891 20.3125 33.0708 20.323 33.0498C20.3335 33.0237 20.3439 33.0002 20.3544 32.9792C20.3701 32.9531 20.3858 32.9295 20.4015 32.9086C20.4172 32.8668 20.4407 32.8302 20.4721 32.7988C20.493 32.7726 20.5113 32.7517 20.527 32.736C20.5427 32.7151 20.5558 32.6994 20.5662 32.6889C20.5819 32.6575 20.5872 32.6314 20.5819 32.6105C20.5767 32.5843 20.5741 32.5634 20.5741 32.5477C20.5845 32.5215 20.5924 32.5058 20.5976 32.5006C20.6133 32.4954 20.6264 32.4875 20.6369 32.4771C20.6525 32.4666 20.6682 32.4588 20.6839 32.4535C20.7258 32.4274 20.7702 32.4012 20.8173 32.3751C20.8644 32.3489 20.9115 32.328 20.9585 32.3123C21.0056 32.2809 21.0527 32.26 21.0998 32.2495C21.1521 32.2338 21.2044 32.2182 21.2567 32.2025C21.2985 32.2025 21.3404 32.2025 21.3822 32.2025C21.4241 32.2025 21.4633 32.2051 21.4999 32.2103H21.5705C21.6281 32.2312 21.6856 32.2417 21.7432 32.2417C21.8059 32.2417 21.8661 32.2391 21.9236 32.2338C21.9498 32.2338 21.9759 32.2338 22.0021 32.2338C22.0335 32.2286 22.0622 32.226 22.0884 32.226C22.1145 32.2469 22.1355 32.2652 22.1512 32.2809C22.1721 32.2914 22.193 32.3071 22.2139 32.328C22.2296 32.3332 22.2453 32.3411 22.261 32.3515C22.2767 32.362 22.295 32.3698 22.3159 32.3751C22.3892 32.3803 22.4545 32.4038 22.5121 32.4457C22.5749 32.4875 22.6324 32.5294 22.6847 32.5712C22.6847 32.5817 22.6847 32.5974 22.6847 32.6183C22.6847 32.634 22.6873 32.6497 22.6925 32.6654C22.6925 32.6915 22.7082 32.7151 22.7396 32.736C22.7553 32.7412 22.7736 32.7438 22.7945 32.7438C22.8155 32.7438 22.8364 32.7491 22.8573 32.7595C22.8678 32.7805 22.8809 32.804 22.8965 32.8302C22.9175 32.8563 22.9358 32.8825 22.9515 32.9086C22.9724 32.9295 22.9933 32.9505 23.0142 32.9714C23.0352 32.9923 23.0509 33.0158 23.0613 33.042C23.0718 33.0525 23.0796 33.0655 23.0849 33.0812C23.0953 33.0969 23.1032 33.11 23.1084 33.1205C23.1241 33.1362 23.1398 33.1518 23.1555 33.1675C23.1712 33.1832 23.1816 33.2042 23.1869 33.2303C23.1973 33.2669 23.213 33.3035 23.2339 33.3402C23.2549 33.3768 23.2705 33.416 23.281 33.4578C23.2862 33.4735 23.2941 33.4892 23.3045 33.5049C23.3202 33.5206 23.3359 33.5389 23.3516 33.5598C23.3621 33.6069 23.3699 33.6566 23.3752 33.7089C23.3856 33.7612 23.4013 33.8109 23.4222 33.858ZM22.3238 34.1405C22.329 34.1038 22.3238 34.0725 22.3081 34.0463C22.2924 34.0149 22.2872 33.9835 22.2924 33.9522C22.2924 33.9417 22.2845 33.9286 22.2689 33.9129C22.2636 33.9025 22.261 33.8815 22.261 33.8502C22.2662 33.8397 22.2689 33.8266 22.2689 33.8109C22.2689 33.79 22.2689 33.7769 22.2689 33.7717C22.2322 33.7142 22.1982 33.6618 22.1669 33.6148C22.1355 33.5625 22.1015 33.5128 22.0649 33.4657C22.0649 33.4552 22.0596 33.45 22.0492 33.45C22.0387 33.4448 22.0282 33.4343 22.0178 33.4186C21.9289 33.4186 21.8321 33.3951 21.7275 33.348C21.6647 33.3166 21.5889 33.314 21.4999 33.3402C21.4947 33.3402 21.4869 33.3428 21.4764 33.348C21.4712 33.3532 21.4633 33.3611 21.4529 33.3715H21.4136C21.3299 33.3558 21.275 33.3872 21.2489 33.4657C21.2384 33.4866 21.2253 33.5102 21.2096 33.5363C21.1992 33.5572 21.1913 33.5808 21.1861 33.6069C21.1809 33.6278 21.1704 33.6514 21.1547 33.6775C21.139 33.6985 21.1259 33.7194 21.1155 33.7403C21.0945 33.7665 21.0762 33.7952 21.0605 33.8266C21.0449 33.858 21.0265 33.8868 21.0056 33.9129C21.0004 33.9652 20.9873 34.0175 20.9664 34.0698C20.9507 34.1222 20.9402 34.1718 20.935 34.2189C20.9507 34.2451 20.9664 34.2738 20.9821 34.3052C20.9978 34.3314 21.0109 34.3575 21.0213 34.3837C21.0527 34.4517 21.0658 34.5171 21.0605 34.5798C21.0605 34.5903 21.0632 34.6008 21.0684 34.6112C21.0736 34.6217 21.0789 34.6322 21.0841 34.6426C21.1312 34.6531 21.1756 34.6635 21.2175 34.674C21.2645 34.6845 21.309 34.6975 21.3509 34.7132C21.3875 34.7237 21.4241 34.7315 21.4607 34.7368C21.4973 34.742 21.5339 34.7368 21.5705 34.7211H21.5941C21.6359 34.7315 21.6752 34.7342 21.7118 34.7289C21.7536 34.7185 21.7981 34.708 21.8452 34.6975C21.8818 34.6714 21.9184 34.6426 21.955 34.6112C21.9969 34.5798 22.0387 34.5537 22.0805 34.5328C22.1172 34.4595 22.1616 34.3942 22.2139 34.3366C22.2662 34.2791 22.3029 34.2137 22.3238 34.1405ZM26.5711 32.8223C26.5554 32.8903 26.524 32.9478 26.4769 32.9949C26.456 33.0158 26.4377 33.0394 26.422 33.0655C26.4115 33.0865 26.3958 33.1022 26.3749 33.1126C26.354 33.1335 26.3383 33.1518 26.3278 33.1675C26.3174 33.1832 26.3069 33.2042 26.2964 33.2303C26.2703 33.2826 26.2258 33.2878 26.1631 33.246C26.1317 33.2251 26.1108 33.2042 26.1003 33.1832L26.0061 33.1754C25.9957 33.1754 25.9878 33.1728 25.9826 33.1675C25.9564 33.1571 25.9381 33.1414 25.9277 33.1205C25.9172 33.0943 25.8989 33.0734 25.8728 33.0577C25.7943 33.0211 25.7158 32.9949 25.6374 32.9792C25.5589 32.9635 25.4778 32.9688 25.3941 32.9949C25.3418 33.0629 25.3078 33.1126 25.2921 33.144C25.2764 33.1702 25.2581 33.2198 25.2372 33.2931C25.2372 33.3297 25.2424 33.3663 25.2529 33.4029C25.2686 33.4343 25.2817 33.4709 25.2921 33.5128C25.3183 33.5546 25.3523 33.5834 25.3941 33.5991C25.4151 33.5991 25.436 33.6017 25.4569 33.6069C25.4778 33.6069 25.4988 33.6095 25.5197 33.6148C25.5406 33.6305 25.5589 33.6462 25.5746 33.6618C25.5903 33.6723 25.606 33.6828 25.6217 33.6932C25.6583 33.7142 25.6923 33.7429 25.7237 33.7795C25.7603 33.8109 25.7969 33.8345 25.8335 33.8502C25.8754 33.8711 25.9146 33.8894 25.9512 33.9051C25.9878 33.9208 26.0244 33.9391 26.0611 33.96C26.0924 33.9652 26.1186 33.9783 26.1395 33.9992C26.1657 34.0202 26.1892 34.0437 26.2101 34.0698C26.2258 34.1012 26.2441 34.1326 26.2651 34.164C26.2912 34.1954 26.3148 34.2294 26.3357 34.266C26.3514 34.3235 26.3644 34.3837 26.3749 34.4465C26.3906 34.504 26.3984 34.5668 26.3984 34.6348C26.3984 34.6818 26.4011 34.7289 26.4063 34.776C26.4115 34.8178 26.4168 34.8623 26.422 34.9094C26.4272 34.9355 26.4298 34.9643 26.4298 34.9957C26.4351 35.0271 26.4351 35.0611 26.4298 35.0977C26.4141 35.1291 26.3984 35.1631 26.3828 35.1997C26.3671 35.2363 26.354 35.2755 26.3435 35.3174C26.3226 35.3958 26.2938 35.4691 26.2572 35.5371C26.2363 35.5632 26.2128 35.5894 26.1866 35.6155C26.1604 35.6417 26.1343 35.6678 26.1081 35.694C26.0924 35.7045 26.0794 35.7175 26.0689 35.7332C26.0584 35.7489 26.048 35.762 26.0375 35.7725C25.9852 35.8038 25.9434 35.8405 25.912 35.8823C25.8806 35.9242 25.8518 35.9686 25.8257 36.0157C25.7891 36.0209 25.7524 36.0262 25.7158 36.0314C25.6792 36.0418 25.64 36.0523 25.5981 36.0628C25.5668 36.068 25.5354 36.0758 25.504 36.0863C25.4726 36.102 25.4438 36.1151 25.4177 36.1255H25.2294C25.1718 36.0994 25.1169 36.0889 25.0646 36.0942C25.0123 36.0994 24.9574 36.1098 24.8998 36.1255C24.8475 36.136 24.8109 36.1308 24.79 36.1098C24.7534 36.0837 24.7141 36.0628 24.6723 36.0471C24.6357 36.0366 24.5991 36.0288 24.5624 36.0235C24.5101 35.9712 24.4552 35.9215 24.3977 35.8745C24.3401 35.8274 24.2878 35.7751 24.2408 35.7175C24.2408 35.7018 24.2381 35.6862 24.2329 35.6705C24.2329 35.6495 24.2329 35.6312 24.2329 35.6155C24.2329 35.5737 24.2329 35.5371 24.2329 35.5057C24.2381 35.4691 24.2408 35.4325 24.2408 35.3958C24.2564 35.3226 24.2826 35.252 24.3192 35.184C24.3611 35.116 24.4003 35.048 24.4369 34.98C24.4683 34.9852 24.4971 34.9905 24.5232 34.9957C24.5494 35.0009 24.5781 35.0088 24.6095 35.0192C24.6357 35.0402 24.6671 35.0585 24.7037 35.0742C24.7403 35.0898 24.7769 35.1055 24.8135 35.1212C24.8606 35.1474 24.8972 35.1578 24.9234 35.1526C24.9443 35.1526 24.9626 35.1552 24.9783 35.1605C24.994 35.1657 25.0123 35.1709 25.0332 35.1762C25.096 35.2023 25.1561 35.1945 25.2137 35.1526C25.2398 35.1369 25.2634 35.1212 25.2843 35.1055C25.3104 35.0846 25.3314 35.0585 25.3471 35.0271C25.3471 34.9957 25.3471 34.9617 25.3471 34.9251C25.3471 34.8832 25.3497 34.844 25.3549 34.8074C25.3549 34.7917 25.3523 34.776 25.3471 34.7603C25.3418 34.7446 25.3366 34.7289 25.3314 34.7132C25.3261 34.6923 25.3209 34.674 25.3157 34.6583L25.2058 34.572C25.1849 34.5458 25.1692 34.5197 25.1588 34.4935C25.1483 34.4622 25.13 34.4386 25.1038 34.4229L24.9155 34.368C24.8841 34.3523 24.858 34.334 24.8371 34.3131C24.8161 34.2922 24.7952 34.2738 24.7743 34.2582C24.7638 34.2477 24.7534 34.2398 24.7429 34.2346C24.7324 34.2294 24.722 34.2242 24.7115 34.2189C24.6906 34.2137 24.6697 34.2085 24.6488 34.2032C24.6278 34.198 24.6043 34.1902 24.5781 34.1797C24.5468 34.1535 24.5049 34.13 24.4526 34.1091C24.4212 34.0725 24.4003 34.0358 24.3898 33.9992C24.3794 33.9626 24.3611 33.9286 24.3349 33.8972C24.314 33.8711 24.2931 33.8423 24.2721 33.8109C24.2512 33.7795 24.2277 33.7482 24.2015 33.7168C24.1858 33.6592 24.1701 33.6017 24.1544 33.5442C24.144 33.4814 24.1309 33.4212 24.1152 33.3637C24.0891 33.2852 24.0864 33.2094 24.1074 33.1362C24.1178 33.0891 24.1283 33.0394 24.1388 32.9871C24.1544 32.9348 24.1728 32.8825 24.1937 32.8302C24.2251 32.7674 24.2643 32.6811 24.3114 32.5712C24.3637 32.4875 24.4317 32.4117 24.5154 32.3437C24.6043 32.2705 24.6906 32.1972 24.7743 32.124C24.7952 32.1135 24.8188 32.1057 24.8449 32.1005C24.8711 32.09 24.8946 32.0822 24.9155 32.0769C24.9783 32.056 25.0254 32.0403 25.0568 32.0298C25.0881 32.0142 25.1221 32.0037 25.1588 31.9985C25.2006 31.9932 25.2608 31.9906 25.3392 31.9906H25.3549C25.4281 31.9645 25.4988 31.9566 25.5668 31.9671C25.64 31.9775 25.7106 31.9932 25.7786 32.0142C25.7943 32.0142 25.81 32.0168 25.8257 32.022C25.8466 32.022 25.8597 32.022 25.8649 32.022C25.912 32.0482 25.9512 32.0795 25.9826 32.1162C26.0192 32.1528 26.0584 32.1868 26.1003 32.2182C26.1264 32.2338 26.1552 32.2495 26.1866 32.2652C26.218 32.2757 26.2468 32.2888 26.2729 32.3045C26.3252 32.3463 26.3697 32.3934 26.4063 32.4457C26.4481 32.498 26.4874 32.5477 26.524 32.5948C26.5344 32.6314 26.5423 32.668 26.5475 32.7046C26.5528 32.7412 26.5606 32.7805 26.5711 32.8223ZM30.6231 33.2303C30.6179 33.2826 30.6126 33.3375 30.6074 33.3951C30.6074 33.4474 30.6022 33.4997 30.5917 33.552C30.5865 33.6043 30.5839 33.6618 30.5839 33.7246C30.5839 33.7822 30.5734 33.8423 30.5525 33.9051C30.542 33.9208 30.529 33.9391 30.5133 33.96C30.4976 33.9757 30.4819 33.9966 30.4662 34.0228C30.4662 34.0437 30.4662 34.062 30.4662 34.0777C30.4714 34.0934 30.4766 34.1117 30.4819 34.1326C30.4714 34.1588 30.4557 34.1823 30.4348 34.2032C30.4139 34.2189 30.393 34.232 30.372 34.2425C30.3197 34.2582 30.27 34.2738 30.223 34.2895C30.1811 34.3052 30.1366 34.3183 30.0896 34.3288C30.0163 34.3392 29.9405 34.3418 29.862 34.3366C29.7836 34.3262 29.7051 34.3235 29.6266 34.3288C29.5586 34.3288 29.4854 34.3314 29.407 34.3366C29.3337 34.3366 29.2579 34.3366 29.1794 34.3366H28.74C28.7191 34.3523 28.6956 34.3575 28.6694 34.3523C28.6485 34.3471 28.6276 34.3497 28.6066 34.3602C28.5857 34.3497 28.5622 34.3497 28.536 34.3602C28.5099 34.3654 28.4837 34.3628 28.4576 34.3523C28.4366 34.3575 28.4157 34.3628 28.3948 34.368C28.3791 34.368 28.3582 34.3706 28.332 34.3758C28.3111 34.3706 28.2928 34.3654 28.2771 34.3602C28.2614 34.3497 28.2431 34.3523 28.2222 34.368C28.2326 34.3837 28.2431 34.402 28.2536 34.4229C28.2693 34.4386 28.2797 34.4595 28.285 34.4857C28.3006 34.5066 28.3137 34.5275 28.3242 34.5485C28.3346 34.5694 28.3451 34.5929 28.3556 34.6191C28.366 34.64 28.3739 34.6635 28.3791 34.6897C28.3843 34.7106 28.3896 34.7315 28.3948 34.7525C28.421 34.7786 28.4497 34.8048 28.4811 34.8309C28.5125 34.8571 28.5439 34.8832 28.5753 34.9094C28.6014 34.9146 28.6276 34.9198 28.6537 34.9251C28.6851 34.9303 28.7139 34.9355 28.74 34.9408C28.7714 34.946 28.8028 34.9512 28.8342 34.9565C28.8656 34.9617 28.8996 34.9617 28.9362 34.9565C28.9728 34.946 29.0068 34.9486 29.0382 34.9643C29.0696 34.9748 29.1036 34.9826 29.1402 34.9878C29.1873 34.9826 29.2343 34.9774 29.2814 34.9722C29.3337 34.9669 29.3834 34.9617 29.4305 34.9565C29.4514 34.9408 29.4723 34.9277 29.4933 34.9172C29.5194 34.9015 29.543 34.8858 29.5639 34.8702C29.6319 34.8545 29.6999 34.8571 29.7679 34.878C29.7836 34.9042 29.8019 34.9303 29.8228 34.9565C29.849 34.9826 29.8725 35.0114 29.8934 35.0428C29.9248 35.0898 29.9562 35.1369 29.9876 35.184C30.019 35.2258 30.0399 35.2755 30.0503 35.3331C30.0608 35.3592 30.0765 35.3854 30.0974 35.4115C30.1183 35.4377 30.134 35.4612 30.1445 35.4822C30.1497 35.5083 30.1471 35.5318 30.1366 35.5528C30.1314 35.5737 30.1262 35.5972 30.121 35.6234C30.1 35.6443 30.0739 35.6626 30.0425 35.6783C30.0373 35.6783 30.032 35.6835 30.0268 35.694C30.0216 35.7045 30.0137 35.7123 30.0033 35.7175C29.9719 35.7385 29.9405 35.7594 29.9091 35.7803C29.8777 35.8012 29.849 35.8222 29.8228 35.8431C29.7496 35.9058 29.6737 35.9372 29.5953 35.9372C29.5639 35.9372 29.5403 35.9398 29.5246 35.9451C29.4985 35.9503 29.4723 35.9608 29.4462 35.9765C29.42 35.9922 29.3913 36.0052 29.3599 36.0157C29.3337 36.0157 29.3076 36.0183 29.2814 36.0235C29.2553 36.034 29.2291 36.0418 29.203 36.0471C29.1873 36.0471 29.169 36.0445 29.148 36.0392C29.1271 36.0392 29.1062 36.0392 29.0853 36.0392C29.0382 36.0445 28.9911 36.0418 28.944 36.0314C28.897 36.0209 28.8499 36.0157 28.8028 36.0157C28.7871 36.0105 28.7714 36.0052 28.7557 36C28.74 35.9948 28.7243 35.9922 28.7086 35.9922C28.6197 35.9974 28.536 35.9843 28.4576 35.9529C28.3791 35.9163 28.3006 35.8797 28.2222 35.8431C28.1594 35.8274 28.115 35.7986 28.0888 35.7568C28.0522 35.7149 28.0103 35.6809 27.9633 35.6548C27.9214 35.6234 27.8743 35.5972 27.822 35.5763C27.7906 35.5658 27.7593 35.5528 27.7279 35.5371C27.6965 35.5162 27.6625 35.4952 27.6259 35.4743C27.6206 35.4534 27.6128 35.4325 27.6023 35.4115C27.5919 35.3906 27.5814 35.3697 27.571 35.3488C27.5605 35.3331 27.5448 35.3174 27.5239 35.3017C27.5082 35.286 27.4925 35.2703 27.4768 35.2546C27.4611 35.2389 27.448 35.2206 27.4376 35.1997C27.4114 35.1108 27.3853 35.0245 27.3591 34.9408C27.333 34.8518 27.299 34.7655 27.2571 34.6818C27.2623 34.6452 27.265 34.6086 27.265 34.572C27.2702 34.5302 27.2676 34.4857 27.2571 34.4386C27.2519 34.4282 27.2493 34.4151 27.2493 34.3994C27.2493 34.3837 27.2493 34.3706 27.2493 34.3602C27.2493 34.334 27.2493 34.3131 27.2493 34.2974C27.2545 34.2765 27.2545 34.2582 27.2493 34.2425C27.244 34.2006 27.2388 34.1588 27.2336 34.1169C27.2283 34.0751 27.231 34.0358 27.2414 33.9992C27.2519 33.9574 27.2623 33.9155 27.2728 33.8737C27.2833 33.8318 27.2963 33.7874 27.312 33.7403C27.3068 33.7298 27.3042 33.7142 27.3042 33.6932C27.3042 33.6723 27.3016 33.6514 27.2963 33.6305C27.3068 33.5729 27.3173 33.5154 27.3277 33.4578C27.3382 33.4003 27.3513 33.3454 27.367 33.2931C27.3826 33.2617 27.3983 33.2329 27.414 33.2068C27.435 33.1754 27.4559 33.144 27.4768 33.1126C27.5134 33.0498 27.5422 32.9897 27.5631 32.9322C27.6259 32.9008 27.6625 32.8825 27.673 32.8772C27.6886 32.8668 27.7017 32.8537 27.7122 32.838C27.7226 32.8223 27.7566 32.7909 27.8142 32.7438C27.809 32.7282 27.822 32.7046 27.8534 32.6732C27.8848 32.6418 27.8953 32.6157 27.8848 32.5948C27.9319 32.5058 27.9999 32.4352 28.0888 32.3829C28.1202 32.362 28.149 32.3411 28.1751 32.3202C28.2065 32.294 28.2326 32.2705 28.2536 32.2495C28.2797 32.2338 28.3033 32.2286 28.3242 32.2338C28.3503 32.2338 28.3739 32.2338 28.3948 32.2338C28.4105 32.2286 28.4262 32.226 28.4419 32.226C28.4628 32.2208 28.4837 32.2155 28.5046 32.2103C28.5151 32.2051 28.5282 32.1998 28.5439 32.1946C28.5596 32.1894 28.5726 32.1815 28.5831 32.1711C28.5936 32.1658 28.604 32.1606 28.6145 32.1554C28.625 32.1502 28.6354 32.1475 28.6459 32.1475C28.693 32.1423 28.7374 32.1292 28.7793 32.1083C28.8211 32.0874 28.8603 32.0665 28.897 32.0455C28.9754 32.0769 29.0565 32.0874 29.1402 32.0769C29.1925 32.0717 29.2422 32.0743 29.2893 32.0848C29.3416 32.0952 29.3886 32.1083 29.4305 32.124L29.5403 32.0926C29.5822 32.0978 29.6214 32.1109 29.658 32.1318C29.6946 32.1528 29.7313 32.1737 29.7679 32.1946H29.8385C29.8437 32.1998 29.849 32.2051 29.8542 32.2103C29.8594 32.2103 29.8646 32.2129 29.8699 32.2182C29.9274 32.2705 29.9823 32.3202 30.0346 32.3672C30.087 32.4091 30.1419 32.4535 30.1994 32.5006C30.2779 32.5529 30.3276 32.6157 30.3485 32.6889C30.3694 32.7203 30.3877 32.7438 30.4034 32.7595C30.4662 32.8118 30.5211 32.8825 30.5682 32.9714C30.5682 32.9818 30.5682 32.9975 30.5682 33.0185C30.5734 33.0342 30.576 33.0498 30.576 33.0655C30.5708 33.0917 30.576 33.1178 30.5917 33.144C30.6074 33.1702 30.6179 33.1989 30.6231 33.2303ZM29.6266 33.4892V33.2931C29.6266 33.2669 29.624 33.2512 29.6188 33.246C29.6136 33.2303 29.6057 33.2146 29.5953 33.1989C29.59 33.1832 29.5848 33.1728 29.5796 33.1675V33.0342L29.556 33.0106C29.5351 33.0106 29.509 33.0054 29.4776 32.9949C29.4671 32.9478 29.454 32.9112 29.4383 32.8851C29.4226 32.8642 29.4017 32.8511 29.3756 32.8458C29.3494 32.8406 29.3206 32.8328 29.2893 32.8223C29.2213 32.8432 29.148 32.8615 29.0696 32.8772C28.9911 32.8929 28.9153 32.9138 28.842 32.94C28.8054 32.9452 28.7714 32.9478 28.74 32.9478C28.7086 32.9478 28.6773 32.9505 28.6459 32.9557C28.5936 32.9766 28.5465 33.0106 28.5046 33.0577C28.468 33.0995 28.4314 33.1414 28.3948 33.1832C28.3739 33.2094 28.3556 33.2382 28.3399 33.2695C28.3242 33.3009 28.3059 33.3297 28.285 33.3558C28.2797 33.3611 28.2771 33.3768 28.2771 33.4029C28.2928 33.4448 28.3163 33.4709 28.3477 33.4814C28.3791 33.4866 28.4105 33.4945 28.4419 33.5049C28.4733 33.5154 28.5073 33.5258 28.5439 33.5363C28.5596 33.5311 28.5726 33.5285 28.5831 33.5285C28.5988 33.5285 28.6145 33.5258 28.6302 33.5206C28.693 33.4945 28.7453 33.4918 28.7871 33.5128C28.829 33.518 28.8656 33.518 28.897 33.5128C28.9336 33.5075 28.9702 33.5023 29.0068 33.4971C29.0382 33.5128 29.0696 33.5232 29.101 33.5285C29.1376 33.5337 29.1716 33.5415 29.203 33.552C29.271 33.5729 29.3363 33.5834 29.3991 33.5834C29.4619 33.5834 29.5246 33.5755 29.5874 33.5598C29.6136 33.5337 29.6266 33.5102 29.6266 33.4892Z" fill="black"/>
</svg>
