<svg width="82" height="82" viewBox="0 0 82 82" fill="none" xmlns="http://www.w3.org/2000/svg">
<path d="M82 0H0V82H82V0Z" fill="#7CCCE9"/>
<mask id="mask0_72_349" style="mask-type:luminance" maskUnits="userSpaceOnUse" x="0" y="0" width="82" height="83">
<path d="M82 0.459961H0V82.46H82V0.459961Z" fill="white"/>
</mask>
<g mask="url(#mask0_72_349)">
<path d="M7.21175 142.885L6.84147 142.605C-10.3072 129.558 0.916969 96.7476 6.30919 80.9788L6.36994 80.7995C7.29275 78.0918 8.95034 75.6589 11.3051 73.5529C4.74418 66.5697 1.15129 57.6193 1.15129 48.1829C1.15129 29.9002 15.0108 14.1141 33.6666 10.7931C33.2182 10.2059 32.5355 9.52318 31.8268 8.98801L31.6185 7.48663L33.0939 6.57828C33.1633 6.60143 34.3464 7.00353 35.6193 7.69491C38.0059 3.42221 45.5504 0.781064 46.5137 0.459961L48.2899 1.07903L47.7807 2.87258C47.1674 3.33254 46.0971 4.22642 45.0499 5.29676C46.0797 4.8397 46.8116 4.58513 46.8811 4.55909L48.2956 5.3633L48.1857 6.94857C47.5146 7.47506 45.9785 8.84047 44.8619 10.3245C65.2187 12.1759 80.8515 28.4046 80.8515 48.1829C80.8515 57.6193 77.2557 66.5697 70.6977 73.5529C73.0524 75.6589 74.71 78.0889 75.6328 80.7995L75.7052 81.0135C81.0916 96.7736 92.2984 129.567 75.1613 142.605L74.791 142.885H7.21175Z" fill="white"/>
<path d="M74.3223 81.2421C73.2607 78.1323 71.227 75.6445 68.6611 73.6542C75.3493 67.0644 79.4658 58.0793 79.4658 48.18C79.4658 28.4249 63.0663 12.3235 42.536 11.554C43.6902 8.71321 47.3323 5.86089 47.3323 5.86089C47.3323 5.86089 43.4212 7.21762 40.8032 9.39592C41.5379 5.82039 46.9504 1.76465 46.9504 1.76465C46.9504 1.76465 37.0367 5.08561 36.3164 9.77488C34.8295 8.60907 32.6541 7.88008 32.6541 7.88008C32.6541 7.88008 35.6395 10.122 35.5729 11.8866C16.8969 14.4005 2.52821 29.6891 2.52821 48.18C2.52821 58.0793 6.6447 67.0644 13.3329 73.6542C10.767 75.6445 8.73332 78.1323 7.67165 81.2421C2.49928 96.3687 -8.74802 129.011 7.67165 141.505H74.3194C90.7391 129.011 79.4889 96.3687 74.3194 81.2421H74.3223Z" fill="#BEA483"/>
<path d="M75.3031 48.99C75.1584 44.2284 73.9897 40.6789 71.9937 38.0493C65.7712 27.2128 52.2964 20.6953 44.1994 26.8628C42.2786 28.3265 39.6548 28.3641 37.734 26.9004C37.6327 26.8252 37.5315 26.7528 37.4273 26.6805C37.3637 26.6342 37.3 26.5851 37.2364 26.5417C37.0657 26.4231 36.8921 26.3102 36.7157 26.2032C36.6983 26.1916 36.681 26.1801 36.6636 26.1714C36.4698 26.0528 36.276 25.9429 36.0793 25.8387C36.0156 25.804 35.952 25.7751 35.8883 25.7432C35.7524 25.6738 35.6193 25.6073 35.4805 25.5436C35.4023 25.506 35.3213 25.4742 35.2432 25.4395C35.1188 25.3845 34.9973 25.3325 34.873 25.2833C34.7862 25.2486 34.7023 25.2168 34.6155 25.1849C34.494 25.1386 34.3725 25.0953 34.251 25.0548C34.1613 25.0258 34.0745 24.9969 33.9849 24.968C33.8634 24.9304 33.7419 24.8928 33.6175 24.8609C33.5278 24.8349 33.4381 24.8118 33.3455 24.7886C33.2212 24.7568 33.0968 24.7279 32.9724 24.7018C32.8827 24.6816 32.793 24.6613 32.7004 24.644C32.5732 24.6179 32.443 24.5977 32.3157 24.5745C32.226 24.5601 32.1392 24.5456 32.0496 24.5312C31.9107 24.5109 31.7719 24.4964 31.633 24.4791C31.552 24.4704 31.4739 24.4588 31.3929 24.453C31.2222 24.4357 31.0515 24.427 30.8809 24.4154C30.8317 24.4154 30.7796 24.4068 30.7304 24.4039C30.5077 24.3923 30.2849 24.3894 30.0622 24.3894C30.0014 24.3894 29.9436 24.3923 29.8828 24.3923C29.7179 24.3923 29.5531 24.3981 29.3882 24.4039C29.3043 24.4068 29.2204 24.4154 29.1365 24.4212C28.9947 24.4299 28.853 24.4386 28.7112 24.453C28.6187 24.4617 28.5261 24.4733 28.4335 24.482C28.3005 24.4964 28.1645 24.5109 28.0314 24.5283C27.936 24.5398 27.8376 24.5543 27.7421 24.5688C27.6091 24.589 27.476 24.6093 27.3458 24.6324C27.2475 24.6498 27.152 24.6671 27.0537 24.6874C26.9206 24.7134 26.7875 24.7394 26.6544 24.7684C26.559 24.7886 26.4606 24.8118 26.3652 24.832C26.2292 24.8638 26.0961 24.8985 25.9602 24.9333C25.8647 24.9564 25.7721 24.9824 25.6767 25.0085C25.5349 25.0461 25.3961 25.0895 25.2543 25.13C25.1675 25.156 25.0779 25.182 24.9911 25.2081C24.8291 25.2573 24.67 25.3122 24.508 25.3672C24.4414 25.3903 24.3749 25.4106 24.3055 25.4337C24.0769 25.5147 23.8513 25.5986 23.6228 25.6883C23.5823 25.7027 23.5447 25.7201 23.5042 25.7375C23.3161 25.8127 23.131 25.8879 22.943 25.9689C22.862 26.0036 22.7838 26.0412 22.7028 26.0759C22.5553 26.1425 22.4107 26.2061 22.266 26.2755C22.1764 26.3189 22.0867 26.3623 21.9999 26.4057C21.8639 26.4722 21.728 26.5388 21.592 26.6082C21.4994 26.6545 21.4069 26.7037 21.3143 26.7528C21.1841 26.8223 21.0539 26.8917 20.9238 26.964C20.8283 27.0161 20.7357 27.0682 20.6432 27.1231C20.5159 27.1954 20.3886 27.2707 20.2613 27.3459C20.1687 27.4008 20.0733 27.4558 19.9807 27.5137C19.8534 27.5918 19.7261 27.6699 19.5988 27.7509C19.5092 27.8087 19.4166 27.8666 19.3269 27.9244C19.1967 28.0083 19.0666 28.098 18.9364 28.1848C18.8525 28.2426 18.7657 28.2976 18.6818 28.3555C18.5401 28.4538 18.4012 28.5551 18.2595 28.6563C18.1871 28.7084 18.1177 28.7576 18.0454 28.8096C17.8429 28.9601 17.6404 29.1105 17.4408 29.2667C17.4321 29.2725 17.4263 29.2783 17.4177 29.2841C17.2094 29.4461 17.004 29.611 16.7986 29.7816C16.735 29.8337 16.6713 29.8916 16.6077 29.9436C16.4688 30.0593 16.33 30.1779 16.194 30.2966C16.1159 30.3631 16.0407 30.4325 15.9626 30.5019C15.8411 30.6119 15.7196 30.7189 15.5981 30.8317C15.5171 30.9069 15.4361 30.9822 15.3551 31.0603C15.2394 31.1702 15.1265 31.2772 15.0108 31.39C14.9298 31.4681 14.8488 31.5491 14.7707 31.6301C14.6608 31.7401 14.548 31.8529 14.4409 31.9657C14.3599 32.0467 14.2818 32.1306 14.2037 32.2145C14.0938 32.3302 13.9868 32.4459 13.8797 32.5616C13.8016 32.6455 13.7264 32.7294 13.6512 32.8133C13.5442 32.9348 13.4371 33.0563 13.3301 33.1778C13.2578 33.2617 13.1855 33.3427 13.1131 33.4266C13.0003 33.5597 12.8904 33.6927 12.7805 33.8258C12.7168 33.901 12.6532 33.9791 12.5924 34.0543C12.4594 34.2221 12.3263 34.3928 12.1961 34.5635C12.1614 34.6098 12.1238 34.6531 12.0891 34.6994C11.9242 34.9164 11.7622 35.1391 11.6031 35.3619C11.5597 35.4226 11.5192 35.4834 11.4758 35.5441C11.3601 35.709 11.2473 35.871 11.1344 36.0388C11.0766 36.1256 11.0216 36.2095 10.9667 36.2963C10.8712 36.4409 10.7786 36.5827 10.6861 36.7273C10.6253 36.8228 10.5674 36.9182 10.5096 37.0137C10.4257 37.1525 10.3389 37.2914 10.2579 37.4303C10.1972 37.5315 10.1393 37.6328 10.0815 37.734C10.0033 37.8729 9.92235 38.0117 9.84713 38.1506C9.78928 38.2547 9.73431 38.356 9.67935 38.4601C9.60414 38.6019 9.52892 38.7436 9.4566 38.8853C9.40453 38.9895 9.34957 39.0936 9.2975 39.1978C9.22518 39.3424 9.15575 39.4899 9.08632 39.6375C9.03714 39.7387 8.98797 39.8429 8.94168 39.9441C8.86936 40.1003 8.79993 40.2565 8.7334 40.4156C8.6929 40.5111 8.64951 40.6066 8.60901 40.702C8.53379 40.8843 8.45858 41.0665 8.38626 41.2488C8.35733 41.324 8.32551 41.3963 8.29658 41.4715C8.19822 41.729 8.10276 41.9893 8.01019 42.2497C7.99283 42.2989 7.97837 42.351 7.96101 42.4001C7.88869 42.6113 7.81926 42.8225 7.75273 43.0365C7.7238 43.132 7.69777 43.2275 7.66884 43.32C7.61677 43.4907 7.56759 43.6614 7.51841 43.8321C7.48948 43.9391 7.46055 44.0461 7.43452 44.1532C7.39113 44.3152 7.35063 44.4743 7.31302 44.6363C7.28698 44.7491 7.26095 44.8619 7.23491 44.9776C7.2002 45.1367 7.16549 45.293 7.13367 45.4521C7.11052 45.5678 7.08738 45.6835 7.06713 45.7992C7.0382 45.9583 7.00927 46.1174 6.98324 46.2765C6.96299 46.3922 6.94563 46.5108 6.92827 46.6265C6.90513 46.7885 6.88199 46.9505 6.86174 47.1125C6.84728 47.2283 6.83281 47.344 6.81835 47.4597C6.7981 47.6275 6.78363 47.7981 6.76917 47.9688C6.76049 48.0787 6.74892 48.1858 6.74024 48.2957C6.72578 48.4837 6.7171 48.6689 6.70553 48.8569C6.69974 48.9495 6.69396 49.0421 6.69106 49.1375C6.67949 49.4181 6.67371 49.6987 6.67371 49.9822C6.67371 68.9129 22.0751 84.3114 41.0029 84.3114C59.9306 84.3114 75.3349 68.91 75.3349 49.9822C75.3349 49.6495 75.3233 49.3169 75.3089 48.9842L75.3031 48.99Z" fill="#E3CCB5"/>
<path d="M37.6211 47.6535C37.6211 41.298 30.2791 36.1459 21.2188 36.1459C16.301 36.1459 11.8923 37.6675 8.88668 40.0714C8.83461 40.1871 8.78254 40.3029 8.73047 40.4215C8.68997 40.5169 8.64658 40.6124 8.60608 40.7079C8.53086 40.8901 8.45565 41.0724 8.38333 41.2546C8.3544 41.3298 8.32258 41.4021 8.29365 41.4773C8.19529 41.7348 8.09983 41.9952 8.00726 42.2555C7.9899 42.3047 7.97544 42.3568 7.95808 42.4059C7.88576 42.6171 7.81633 42.8283 7.7498 43.0424C7.72087 43.1378 7.69484 43.2333 7.66591 43.3259C7.61384 43.4965 7.56466 43.6672 7.51548 43.8379C7.48655 43.9449 7.45762 44.052 7.43159 44.159C7.3882 44.321 7.3477 44.4801 7.31009 44.6421C7.28405 44.7549 7.25802 44.8677 7.23198 44.9835C7.19727 45.1426 7.16256 45.2988 7.13074 45.4579C7.10759 45.5736 7.08445 45.6893 7.0642 45.805C7.03527 45.9641 7.00634 46.1232 6.98031 46.2823C6.96006 46.398 6.9427 46.5166 6.92534 46.6324C6.9022 46.7944 6.87906 46.9564 6.85881 47.1184C6.84435 47.2341 6.82988 47.3498 6.81542 47.4655C6.79517 47.6333 6.7807 47.804 6.76624 47.9746C6.75756 48.0846 6.74599 48.1916 6.73731 48.3015C6.72285 48.4896 6.71417 48.6747 6.7026 48.8627C6.69681 48.9553 6.69103 49.0479 6.68813 49.1433C6.67656 49.4239 6.67078 49.7045 6.67078 49.988C6.67078 51.0613 6.72574 52.12 6.8241 53.1673C9.60699 56.7399 15.0108 55.5509 21.2246 55.5509C30.282 55.5509 37.6269 54.0091 37.6269 47.6535H37.6211Z" fill="#9A856A"/>
<path d="M75.303 48.9901C75.1901 45.2728 74.4525 42.2989 73.1825 39.921C70.1827 37.6068 65.8608 36.1488 61.05 36.1488C51.9926 36.1488 44.6477 41.3009 44.6477 47.6565C44.6477 54.012 51.9897 55.5539 61.05 55.5539C67.0468 55.5539 72.2829 56.9019 75.1439 53.5318C75.2625 52.366 75.3261 51.1857 75.3261 49.991C75.3261 49.6583 75.3145 49.3256 75.3001 48.9929L75.303 48.9901Z" fill="#9A856A"/>
<path d="M39.6114 57.3301L36.7272 54.0236C36.4004 53.6504 36.6665 53.066 37.1641 53.066H44.8358C45.3334 53.066 45.5966 53.6504 45.2726 54.0236L42.3885 57.3301C41.6537 58.1719 40.3462 58.1719 39.6143 57.3301H39.6114Z" fill="#574938"/>
<path d="M40.9999 73.7468C43.3277 73.7468 45.2147 70.5776 45.2147 66.6681C45.2147 62.7586 43.3277 59.5894 40.9999 59.5894C38.6721 59.5894 36.785 62.7586 36.785 66.6681C36.785 70.5776 38.6721 73.7468 40.9999 73.7468Z" fill="#F39D72"/>
<path d="M31.309 47.1473C29.9205 49.2504 26.8078 49.5571 25.6593 49.5571C24.6295 49.5571 21.4184 49.262 20.0096 47.1473" stroke="#231815" stroke-width="2" stroke-linecap="round" stroke-linejoin="round"/>
<path d="M61.8138 47.1473C60.4252 49.2504 57.3125 49.5571 56.1641 49.5571C55.1342 49.5571 51.9232 49.262 50.5144 47.1473" stroke="#231815" stroke-width="2" stroke-linecap="round" stroke-linejoin="round"/>
<mask id="mask1_72_349" style="mask-type:luminance" maskUnits="userSpaceOnUse" x="36" y="59" width="10" height="15">
<path d="M40.9999 73.796C43.3277 73.796 45.2147 70.6268 45.2147 66.7173C45.2147 62.8078 43.3277 59.6385 40.9999 59.6385C38.6721 59.6385 36.785 62.8078 36.785 66.7173C36.785 70.6268 38.6721 73.796 40.9999 73.796Z" fill="white"/>
</mask>
<g mask="url(#mask1_72_349)">
<path d="M41.156 60.6192C43.5621 60.6192 45.5126 60.3899 45.5126 60.1071C45.5126 59.8243 43.5621 59.5951 41.156 59.5951C38.75 59.5951 36.7994 59.8243 36.7994 60.1071C36.7994 60.3899 38.75 60.6192 41.156 60.6192Z" fill="white"/>
</g>
<path d="M28.1934 83.6807C22.5437 86.1744 15.9914 83.7675 13.5846 78.3175C11.1778 72.8645 13.816 66.4019 19.4628 63.9083C25.1125 61.4147 31.6648 63.8215 34.0716 69.2716C36.4784 74.7246 33.8431 81.1871 28.1934 83.6807Z" fill="white"/>
<path d="M27.975 83.1927C33.412 80.7924 35.9627 74.6404 33.6721 69.4518C31.3815 64.2632 25.117 62.0029 19.68 64.4032C14.2429 66.8034 11.6922 72.9554 13.9828 78.144C16.2734 83.3326 22.5379 85.593 27.975 83.1927Z" fill="#BEA483"/>
<path d="M35.2606 66.5784L32.8624 67.9669" stroke="#BEA483" stroke-miterlimit="10" stroke-linecap="round"/>
<path d="M36.3165 69.3324L33.9183 70.721" stroke="#BEA483" stroke-miterlimit="10" stroke-linecap="round"/>
<path d="M33.3021 64.62L30.9039 66.0086" stroke="#BEA483" stroke-miterlimit="10" stroke-linecap="round"/>
</g>
</svg>
