<svg width="124" height="184" viewBox="0 0 124 184" fill="none" xmlns="http://www.w3.org/2000/svg">
<path d="M73.8741 137.263C65.1779 136.542 57.3859 144.941 57.3859 144.941C57.3859 144.941 63.6863 154.515 72.3825 155.236C81.0786 155.958 88.8707 147.558 88.8707 147.558C88.8707 147.558 82.5702 137.985 73.8741 137.263Z" fill="#AED25D"/>
<path d="M57.3859 144.941C59.7172 147.472 63.3875 150.511 67.2839 150.838C71.1813 151.161 75.3002 148.77 78.016 146.656C75.6892 144.126 72.019 141.087 68.1171 140.764C64.2152 140.44 60.1008 142.832 57.3859 144.941Z" fill="#97B651"/>
<path d="M64.4679 116.209C56.0123 114.058 46.9332 121.053 46.9332 121.053C46.9332 121.053 51.5615 131.536 60.0171 133.687C68.4727 135.838 77.5518 128.843 77.5518 128.843C77.5518 128.843 72.9235 118.36 64.4679 116.209Z" fill="#AED25D"/>
<path d="M46.9378 121.054C48.815 123.937 51.9307 127.537 55.7232 128.504C59.5156 129.47 63.9727 127.792 67.003 126.158C65.1249 123.279 62.01 119.675 58.2176 118.708C54.4251 117.741 49.968 119.42 46.9378 121.054Z" fill="#97B651"/>
<path d="M59.096 94.0949C51.1188 90.5629 40.9955 95.9432 40.9955 95.9432C40.9955 95.9432 43.8048 107.052 51.7821 110.584C59.7594 114.116 69.8826 108.735 69.8826 108.735C69.8826 108.735 67.0733 97.6269 59.096 94.0949Z" fill="#AED25D"/>
<path d="M41.0001 95.9442C42.3716 99.0986 44.8401 103.172 48.4139 104.757C51.9922 106.342 56.6683 105.43 59.9278 104.326C58.5563 101.171 56.0878 97.0985 52.5141 95.5135C48.9403 93.9284 44.2605 94.8359 41.0001 95.9442Z" fill="#97B651"/>
<path d="M56.388 69.1458C51.3518 62.0243 39.899 61.4567 39.899 61.4567C39.899 61.4567 36.6085 72.428 41.6448 79.5494C46.681 86.6709 58.1338 87.2384 58.1338 87.2384C58.1338 87.2384 61.4243 76.2672 56.388 69.1458Z" fill="#AED25D"/>
<path d="M39.8999 61.4521C39.4589 64.8638 39.4852 69.6228 41.7421 72.8129C43.999 76.0031 48.4819 77.6235 51.8498 78.3457C52.29 74.9385 52.2645 70.1749 50.0076 66.9848C47.7507 63.7947 43.2679 62.1743 39.9045 61.4529L39.8999 61.4521Z" fill="#97B651"/>
<path d="M34.1312 78.6674C40.1506 72.3624 38.499 61.0225 38.499 61.0225C38.499 61.0225 27.0858 59.9077 21.0655 66.2173C15.0461 72.5224 16.6977 83.8622 16.6977 83.8622C16.6977 83.8622 28.1109 84.977 34.1312 78.6674Z" fill="#AED25D"/>
<path d="M38.4944 61.0217C35.0608 61.2448 30.3888 62.1869 27.6882 65.015C24.9876 67.8431 24.2646 72.5489 24.2074 75.989C27.641 75.7659 32.313 74.8238 35.009 71.9948C37.7051 69.1659 38.4326 64.4609 38.489 61.0254L38.4944 61.0217Z" fill="#97B651"/>
<path d="M36.5792 113.157C42.5986 106.852 40.9471 95.5124 40.9471 95.5124C40.9471 95.5124 29.5338 94.3976 23.5136 100.707C17.4942 107.012 19.1458 118.352 19.1458 118.352C19.1458 118.352 30.559 119.467 36.5792 113.157Z" fill="#AED25D"/>
<path d="M40.9471 95.5124C37.5135 95.7355 32.8415 96.6776 30.1409 99.5057C27.4403 102.334 26.7173 107.04 26.6601 110.48C30.0937 110.257 34.7657 109.314 37.4617 106.486C40.1578 103.657 40.8853 98.9517 40.9417 95.5162L40.9471 95.5124Z" fill="#97B651"/>
<path d="M48.8453 137.835C51.0634 129.406 44.13 120.279 44.13 120.279C44.13 120.279 33.6026 124.817 31.3846 133.247C29.1665 141.677 36.0999 150.803 36.0999 150.803C36.0999 150.803 46.6272 146.265 48.8453 137.835Z" fill="#AED25D"/>
<path d="M44.1299 120.279C41.2301 122.132 37.5999 125.215 36.607 128.994C35.6142 132.773 37.2549 137.242 38.8663 140.28C41.7616 138.426 45.3963 135.344 46.3892 131.565C47.3821 127.786 45.7413 123.317 44.1299 120.279Z" fill="#97B651"/>
<path d="M61.3524 162.724C63.5705 154.294 56.6371 145.168 56.6371 145.168C56.6371 145.168 46.1098 149.706 43.8917 158.135C41.6736 166.565 48.607 175.692 48.607 175.692C48.607 175.692 59.1343 171.154 61.3524 162.724Z" fill="#AED25D"/>
<path d="M56.6417 145.169C53.7418 147.021 50.1116 150.104 49.1187 153.883C48.1259 157.662 49.7666 162.132 51.378 165.17C54.2733 163.316 57.9081 160.234 58.9009 156.455C59.8938 152.676 58.253 148.206 56.6417 145.169Z" fill="#97B651"/>
<path d="M64.8829 7.1874C33.4137 28.8131 23.1225 109.238 68.7038 163.406" stroke="#6F4620" stroke-width="5.82973" stroke-miterlimit="10" stroke-linecap="round"/>
<path d="M84.9716 162.308C77.6169 157.616 66.7995 161.413 66.7995 161.413C66.7995 161.413 67.903 172.818 75.2578 177.51C82.6125 182.202 93.4299 178.405 93.4299 178.405C93.4299 178.405 92.3264 167 84.9716 162.308Z" fill="#AED25D"/>
<path d="M66.8003 161.409C67.6802 164.733 69.5048 169.132 72.8025 171.235C76.1002 173.338 80.8619 173.142 84.2515 172.541C83.3716 169.217 81.547 164.818 78.2493 162.715C74.9516 160.612 70.1899 160.808 66.8003 161.409Z" fill="#97B651"/>
</svg>
