<svg width="193" height="194" viewBox="0 0 193 194" fill="none" xmlns="http://www.w3.org/2000/svg">
<mask id="mask0_90_335" style="mask-type:alpha" maskUnits="userSpaceOnUse" x="0" y="0" width="193" height="194">
<circle cx="96.5" cy="97" r="96.5" fill="#D9D9D9"/>
</mask>
<g mask="url(#mask0_90_335)">
<rect y="1" width="193" height="193" rx="96.5" fill="white"/>
<mask id="mask1_90_335" style="mask-type:luminance" maskUnits="userSpaceOnUse" x="-3" y="-2" width="199" height="199">
<path d="M195.438 -1.5H-2.43816V196.5H195.438V-1.5Z" fill="white"/>
</mask>
<g mask="url(#mask1_90_335)">
<path d="M34.3015 299.272L33.6174 298.755C2.05048 274.719 22.7065 214.277 32.6401 185.233L32.7518 184.905C34.4551 179.917 37.5057 175.44 41.8407 171.556C29.7641 158.696 23.1463 142.205 23.1463 124.819C23.1463 91.1365 48.6609 62.0574 83.0062 55.9385C82.1825 54.8558 80.926 53.5985 79.6206 52.6136L79.2366 49.8475L81.9521 48.171C82.0778 48.213 84.2558 48.9534 86.6013 50.2247C90.9992 42.3594 104.884 37.4978 106.657 36.9041L109.924 38.0426L108.989 41.3466C107.858 42.1988 105.889 43.8403 103.962 45.8171C105.861 44.9788 107.201 44.5039 107.334 44.4619L109.938 45.9428L109.736 48.8626C108.5 49.8335 105.673 52.3481 103.613 55.0793C141.093 58.4881 169.868 88.3843 169.868 124.819C169.868 142.205 163.25 158.689 151.173 171.556C155.508 175.433 158.559 179.917 160.262 184.905L160.395 185.303C170.307 214.333 190.943 274.747 159.397 298.762L158.712 299.279H34.3015V299.272Z" fill="white"/>
<path d="M157.854 185.715C155.899 179.987 152.158 175.405 147.432 171.738C159.746 159.598 167.32 143.05 167.32 124.812C167.32 88.4193 137.128 58.7605 99.3342 57.3425C101.456 52.1107 108.165 46.8579 108.165 46.8579C108.165 46.8579 100.968 49.3586 96.144 53.368C97.4983 46.7811 107.46 39.314 107.46 39.314C107.46 39.314 89.2121 45.4329 87.8858 54.0665C85.1493 51.9221 81.1424 50.581 81.1424 50.581C81.1424 50.581 86.6362 54.7092 86.5175 57.9572C52.1373 62.5884 25.6873 90.7523 25.6873 124.812C25.6873 143.05 33.2684 159.598 45.5754 171.738C40.8565 175.405 37.1078 179.987 35.1532 185.715C25.6314 213.579 4.91955 273.713 35.1532 296.729H157.847C188.08 273.713 167.362 213.586 157.847 185.715H157.854Z" fill="#BEA483"/>
<path d="M159.662 126.3C159.397 117.526 157.246 110.988 153.568 106.148C142.112 86.1841 117.31 74.1767 102.399 85.5415C98.8595 88.2378 94.0358 88.3076 90.4966 85.6114C90.3081 85.4717 90.1196 85.3389 89.9381 85.2062C89.8194 85.1224 89.7008 85.0316 89.5821 84.9478C89.268 84.7312 88.9468 84.5217 88.6257 84.3261C88.5908 84.3051 88.5629 84.2842 88.535 84.2632C88.179 84.0467 87.8229 83.8441 87.4599 83.6485C87.3413 83.5857 87.2226 83.5298 87.1039 83.4739C86.8526 83.3482 86.6083 83.2224 86.357 83.1037C86.2104 83.0338 86.0638 82.978 85.9172 82.9081C85.6938 82.8103 85.4635 82.7125 85.2331 82.6217C85.0725 82.5589 84.919 82.503 84.7584 82.4401C84.535 82.3563 84.3116 82.2795 84.0882 82.2026C83.9277 82.1467 83.7602 82.0978 83.5996 82.042C83.3762 81.9721 83.1528 81.9092 82.9225 81.8464C82.7549 81.7975 82.5944 81.7556 82.4268 81.7137C82.1965 81.6578 81.9661 81.6019 81.7427 81.553C81.5752 81.5181 81.4076 81.4762 81.2401 81.4482C81.0028 81.3993 80.7654 81.3644 80.5281 81.3225C80.3675 81.2946 80.2 81.2666 80.0394 81.2457C79.7881 81.2107 79.5298 81.1828 79.2715 81.1479C79.1249 81.1339 78.9783 81.1129 78.8317 81.099C78.5176 81.071 78.2035 81.0501 77.8893 81.0291C77.7986 81.0291 77.7009 81.0152 77.6101 81.0082C77.2052 80.9872 76.7934 80.9802 76.3815 80.9802C76.2698 80.9802 76.1581 80.9802 76.0534 80.9802C75.7532 80.9802 75.4461 80.9872 75.1459 81.0012C74.9923 81.0082 74.8388 81.0221 74.6852 81.0291C74.4269 81.0431 74.1616 81.064 73.8964 81.085C73.7288 81.099 73.5543 81.1199 73.3868 81.1409C73.1424 81.1688 72.8911 81.1968 72.6468 81.2317C72.4723 81.2526 72.2908 81.2806 72.1163 81.3085C71.8719 81.3435 71.6276 81.3854 71.3833 81.4273C71.2018 81.4552 71.0273 81.4901 70.8458 81.5251C70.6014 81.574 70.3571 81.6229 70.1128 81.6787C69.9313 81.7206 69.7568 81.7556 69.5753 81.7975C69.324 81.8534 69.0796 81.9162 68.8283 81.9791C68.6538 82.021 68.4793 82.0699 68.3048 82.1188C68.0465 82.1886 67.7882 82.2655 67.5299 82.3423C67.3694 82.3912 67.2088 82.4401 67.0413 82.489C66.7481 82.5798 66.4479 82.6846 66.1547 82.7824C66.0291 82.8243 65.9104 82.8662 65.7847 82.9081C65.3659 83.0548 64.947 83.2155 64.5282 83.3761C64.4584 83.4041 64.3816 83.439 64.3118 83.4669C63.9697 83.6066 63.6207 83.7463 63.2786 83.893C63.132 83.9559 62.9854 84.0257 62.8389 84.0886C62.5666 84.2073 62.3013 84.3261 62.0361 84.4588C61.8685 84.5356 61.708 84.6195 61.5404 84.6963C61.2891 84.8151 61.0378 84.9408 60.7935 85.0665C60.626 85.1503 60.4514 85.2411 60.2839 85.3319C60.0396 85.4577 59.8022 85.5904 59.5649 85.7231C59.3904 85.8209 59.2158 85.9187 59.0483 86.0165C58.811 86.1492 58.5806 86.2889 58.3432 86.4286C58.1687 86.5334 58.0012 86.6312 57.8267 86.736C57.5893 86.8826 57.359 87.0293 57.1216 87.176C56.9541 87.2808 56.7865 87.3856 56.619 87.4973C56.3747 87.651 56.1373 87.8187 55.9 87.9793C55.7464 88.0841 55.5859 88.1889 55.4323 88.2936C55.174 88.4753 54.9157 88.6569 54.6574 88.8455C54.5248 88.9433 54.3921 89.0341 54.2665 89.1249C53.8965 89.3973 53.5195 89.6767 53.1565 89.9631C53.1426 89.9771 53.1286 89.984 53.1147 89.991C52.7307 90.2914 52.3538 90.5917 51.9768 90.9061C51.8581 91.0039 51.7395 91.1086 51.6208 91.2064C51.3625 91.423 51.1112 91.6395 50.8599 91.856C50.7203 91.9818 50.5737 92.1075 50.4341 92.2332C50.2107 92.4358 49.9873 92.6314 49.7639 92.8409C49.6173 92.9806 49.4637 93.1204 49.3171 93.2601C49.1077 93.4626 48.8913 93.6582 48.6819 93.8678C48.5353 94.0144 48.3817 94.1611 48.2351 94.3078C48.0327 94.5104 47.8302 94.7199 47.6278 94.9295C47.4812 95.0832 47.3346 95.2299 47.188 95.3835C46.9856 95.5931 46.7901 95.8096 46.5946 96.0262C46.455 96.1798 46.3154 96.3335 46.1688 96.4872C45.9664 96.7107 45.7709 96.9342 45.5755 97.1578C45.4428 97.3114 45.3102 97.4651 45.1776 97.6188C44.9681 97.8632 44.7657 98.1077 44.5632 98.3592C44.4516 98.4989 44.3329 98.6386 44.2142 98.7783C43.9699 99.0856 43.7256 99.4 43.4812 99.7143C43.4184 99.7981 43.3486 99.8819 43.2858 99.9658C42.9856 100.364 42.6854 100.776 42.3922 101.181C42.3154 101.293 42.2387 101.405 42.1619 101.516C41.9524 101.817 41.736 102.124 41.5336 102.425C41.4289 102.585 41.3242 102.739 41.2195 102.9C41.045 103.165 40.8704 103.43 40.7029 103.696C40.5912 103.87 40.4865 104.052 40.3748 104.227C40.2212 104.485 40.0607 104.737 39.9071 104.995C39.7954 105.184 39.6907 105.365 39.586 105.554C39.4394 105.812 39.2928 106.064 39.1532 106.322C39.0485 106.511 38.9437 106.699 38.846 106.895C38.7064 107.153 38.5738 107.412 38.4341 107.677C38.3364 107.866 38.2387 108.062 38.141 108.257C38.0083 108.523 37.8757 108.795 37.75 109.067C37.6593 109.256 37.5685 109.445 37.4848 109.633C37.3521 109.92 37.2265 110.213 37.1008 110.499C37.024 110.674 36.9473 110.849 36.8705 111.03C36.7308 111.365 36.5982 111.701 36.4656 112.036C36.4097 112.176 36.3539 112.308 36.305 112.441C36.1235 112.916 35.949 113.391 35.7815 113.873C35.7466 113.964 35.7186 114.055 35.6907 114.153C35.5581 114.544 35.4254 114.935 35.3068 115.326C35.2509 115.501 35.2021 115.675 35.1532 115.85C35.0624 116.164 34.9647 116.479 34.8809 116.793C34.8251 116.988 34.7762 117.191 34.7274 117.387C34.6506 117.68 34.5738 117.98 34.504 118.274C34.4551 118.483 34.4063 118.693 34.3574 118.902C34.2946 119.196 34.2317 119.482 34.1689 119.776C34.127 119.985 34.0851 120.202 34.0433 120.418C33.9874 120.712 33.9385 121.005 33.8897 121.298C33.8548 121.515 33.8199 121.724 33.785 121.941C33.7431 122.241 33.7012 122.535 33.6593 122.835C33.6314 123.045 33.6035 123.261 33.5825 123.471C33.5476 123.785 33.5197 124.092 33.4918 124.407C33.4708 124.609 33.4499 124.805 33.4359 125.007C33.408 125.35 33.394 125.699 33.3731 126.041C33.3661 126.216 33.3522 126.383 33.3452 126.558C33.3242 127.075 33.3173 127.592 33.3173 128.116C33.3173 162.985 61.6661 191.359 96.521 191.359C131.376 191.359 159.725 162.992 159.725 128.116C159.725 127.501 159.704 126.886 159.676 126.279L159.662 126.3Z" fill="#E3CCB5"/>
<path d="M90.2872 123.841C90.2872 112.134 76.7654 102.641 60.0954 102.641C51.0414 102.641 42.9297 105.442 37.394 109.87C37.2963 110.087 37.1986 110.297 37.1078 110.513C37.031 110.688 36.9542 110.862 36.8774 111.044C36.7378 111.379 36.6052 111.715 36.4726 112.05C36.4167 112.19 36.3609 112.322 36.312 112.455C36.1305 112.93 35.956 113.405 35.7884 113.887C35.7535 113.978 35.7256 114.069 35.6977 114.166C35.5651 114.557 35.4324 114.949 35.3137 115.34C35.2579 115.514 35.209 115.689 35.1602 115.864C35.0694 116.178 34.9717 116.492 34.8879 116.807C34.8321 117.002 34.7832 117.205 34.7343 117.4C34.6576 117.694 34.5808 117.994 34.511 118.288C34.4621 118.497 34.4132 118.707 34.3644 118.916C34.3015 119.21 34.2387 119.496 34.1759 119.789C34.134 119.999 34.0921 120.215 34.0502 120.432C33.9944 120.725 33.9455 121.019 33.8967 121.312C33.8618 121.529 33.8268 121.738 33.7919 121.955C33.7501 122.255 33.7082 122.548 33.6663 122.849C33.6384 123.058 33.6104 123.275 33.5895 123.484C33.5546 123.799 33.5267 124.106 33.4988 124.42C33.4778 124.623 33.4569 124.819 33.4429 125.021C33.415 125.363 33.401 125.713 33.3801 126.055C33.3731 126.23 33.3591 126.397 33.3522 126.572C33.3312 127.089 33.3242 127.606 33.3242 128.13C33.3242 130.106 33.4289 132.055 33.6035 133.983C38.7273 140.563 48.6749 138.377 60.1164 138.377C76.7934 138.377 90.3081 135.534 90.3081 123.834L90.2872 123.841Z" fill="#9A856A"/>
<path d="M159.655 126.299C159.445 119.454 158.084 113.971 155.753 109.591C150.231 105.323 142.273 102.641 133.421 102.641C116.744 102.641 103.229 112.134 103.229 123.841C103.229 135.548 116.751 138.384 133.421 138.384C144.465 138.384 154.105 140.87 159.369 134.661C159.592 132.516 159.704 130.337 159.704 128.137C159.704 127.522 159.683 126.907 159.655 126.299Z" fill="#9A856A"/>
<path d="M93.1562 140.759L89.1214 136.128C88.3325 135.226 88.9748 133.815 90.1755 133.815H102.846C104.046 133.815 104.681 135.226 103.9 136.128L99.8647 140.759C98.0916 142.791 94.9363 142.791 93.1702 140.759H93.1562Z" fill="#574938"/>
<path d="M106.908 149.476C104.353 153.353 98.6222 153.919 96.507 153.919C94.6083 153.919 88.6956 153.374 86.1057 149.476" stroke="#231815" stroke-width="2" stroke-linecap="round" stroke-linejoin="round"/>
<path d="M69.7986 131.587C74.2169 131.587 77.7986 128.71 77.7986 125.161C77.7986 121.612 74.2169 118.735 69.7986 118.735C65.3804 118.735 61.7987 121.612 61.7987 125.161C61.7987 128.71 65.3804 131.587 69.7986 131.587Z" fill="white"/>
<path d="M70.8946 127.976C73.6821 127.976 75.9417 126.012 75.9417 123.589C75.9417 121.167 73.6821 119.203 70.8946 119.203C68.1072 119.203 65.8476 121.167 65.8476 123.589C65.8476 126.012 68.1072 127.976 70.8946 127.976Z" fill="#231815"/>
<path d="M122.329 131.587C126.747 131.587 130.329 128.71 130.329 125.161C130.329 121.612 126.747 118.735 122.329 118.735C117.911 118.735 114.329 121.612 114.329 125.161C114.329 128.71 117.911 131.587 122.329 131.587Z" fill="white"/>
<path d="M121.324 127.976C124.111 127.976 126.371 126.012 126.371 123.589C126.371 121.167 124.111 119.203 121.324 119.203C118.536 119.203 116.276 121.167 116.276 123.589C116.276 126.012 118.536 127.976 121.324 127.976Z" fill="#231815"/>
</g>
</g>
</svg>
