<svg width="167" height="134" viewBox="0 0 167 134" fill="none" xmlns="http://www.w3.org/2000/svg">
<path d="M52.2683 134L51.9953 133.792C45.8416 129.124 42.9893 121.15 43.521 110.087C43.9736 100.625 46.7613 90.7162 48.9634 83.7733C46.905 83.0066 45.1806 81.5593 44.0347 79.6176C37.432 68.433 25.254 47.8694 23.5944 45.0679C19.8655 44.3407 16.5211 42.7679 14.1609 40.6292C11.6355 38.34 10.5111 35.6674 10.9997 33.1023C11.7864 28.961 16.6145 26.1809 23.0124 26.1809C24.4098 26.1809 25.836 26.3171 27.2585 26.5858C34.3749 27.9292 39.7131 32.2318 40.0903 36.8855L46.905 48.3925C46.7792 47.2067 46.7182 46.0101 46.7182 44.8135C46.7182 36.1618 50.0159 27.8181 56.0043 21.3231C61.6622 15.1827 69.339 11.0843 77.7307 9.69426C77.2745 8.96701 76.3764 8.08929 75.6615 7.55192L75.525 6.35178L76.5991 5.77858C76.6674 5.80007 77.9283 6.22639 79.1964 6.95364C81.2153 2.87317 88.5759 0.308095 89.492 0L90.7565 0.641268L90.426 1.77692C89.6393 2.36445 88.0802 3.68998 86.8229 5.1803C88.4251 4.37066 89.7506 3.90493 89.844 3.87269L90.9828 4.43514L90.8032 5.6317C90.778 5.65319 88.6154 7.35846 87.2971 9.28943C96.3605 9.99877 104.774 13.7891 111.136 20.062C117.907 26.7398 121.636 35.5277 121.636 44.8135C121.636 45.53 121.615 46.243 121.568 46.9559L127.535 36.8855C127.915 32.2318 133.25 27.9292 140.366 26.5858C141.789 26.3171 143.219 26.1809 144.613 26.1809C151.014 26.1809 155.842 28.961 156.625 33.1023C157.114 35.6674 155.99 38.34 153.464 40.6292C151.104 42.7644 147.759 44.3371 144.031 45.0679C142.371 47.873 130.193 68.433 123.59 79.6176C122.577 81.3336 121.079 82.6842 119.305 83.5046C121.525 90.4726 124.352 100.457 124.826 109.969C125.383 121.089 122.534 129.106 116.359 133.792L116.086 134H52.2575H52.2683Z" fill="white"/>
<path d="M155.634 33.2923C154.768 28.7318 148.022 26.1775 140.564 27.5818C133.757 28.8679 128.713 33.0093 128.544 37.1901L119.879 51.821C120.368 49.5569 120.627 47.2139 120.627 44.8101C120.627 26.1452 105.09 10.9339 85.641 10.2066C86.7331 7.52335 90.1853 4.82931 90.1853 4.82931C90.1853 4.82931 86.4817 6.11185 83.9994 8.1682C84.6963 4.7899 89.8225 0.960205 89.8225 0.960205C89.8225 0.960205 80.4322 4.09848 79.7496 8.52645C78.3414 7.42663 76.2794 6.73878 76.2794 6.73878C76.2794 6.73878 79.1066 8.85605 79.0455 10.5219C61.3533 12.8971 47.742 27.3418 47.742 44.8101C47.742 47.9806 48.1911 51.0472 49.0281 53.9634L39.0917 37.1901C38.9193 33.0093 33.8792 28.8679 27.0718 27.5818C19.6141 26.1739 12.8677 28.7282 12.002 33.2923C11.1362 37.8528 16.4816 42.6928 23.9393 44.1007C24.0866 44.1294 24.2338 44.1509 24.3811 44.176L24.2841 44.2333C24.2841 44.2333 37.7805 67.0216 44.9149 79.1054C46.147 81.194 48.1048 82.5768 50.2495 83.1142C45.1987 98.7948 39.2893 122.876 52.6168 132.986H115.756C129.137 122.833 123.12 98.5942 118.058 82.9172C119.937 82.2795 121.622 80.9754 122.725 79.1054C129.859 67.0216 143.355 44.2333 143.355 44.2333L143.258 44.176C143.406 44.1509 143.553 44.1294 143.7 44.1007C151.158 42.6928 156.503 37.8528 155.637 33.2923H155.634ZM57.973 68.8809C57.9478 68.9024 57.9227 68.9239 57.8939 68.9418L57.6856 68.5907C57.779 68.6875 57.876 68.7842 57.9694 68.8773L57.973 68.8809Z" fill="#BEA483"/>
<mask id="mask0_75_509" style="mask-type:luminance" maskUnits="userSpaceOnUse" x="47" y="10" width="74" height="70">
<path d="M84.161 79.5603C104.267 79.5603 120.566 64.0262 120.566 44.8638C120.566 25.7014 104.267 10.1672 84.161 10.1672C64.0553 10.1672 47.7563 25.7014 47.7563 44.8638C47.7563 64.0262 64.0553 79.5603 84.161 79.5603Z" fill="white"/>
</mask>
<g mask="url(#mask0_75_509)">
<path d="M115.73 76.0637C114.724 73.1261 112.799 70.776 110.367 68.8951C116.704 62.6688 120.602 54.1818 120.602 44.8279C120.602 26.163 105.065 10.9517 85.6159 10.2245C86.7079 7.54118 90.1602 4.84713 90.1602 4.84713C90.1602 4.84713 86.4565 6.12967 83.9742 8.18603C84.6711 4.80772 89.7973 0.978027 89.7973 0.978027C89.7973 0.978027 80.407 4.1163 79.7244 8.54428C78.3163 7.44445 76.2543 6.75661 76.2543 6.75661C76.2543 6.75661 79.0814 8.87387 79.0204 10.5397C61.3282 12.9149 47.7168 27.3596 47.7168 44.8279C47.7168 54.1818 51.6181 62.6688 57.9514 68.8951C55.523 70.776 53.5939 73.1261 52.588 76.0637C47.6881 90.3544 37.0297 121.196 52.588 133H115.727C131.285 121.196 120.623 90.3579 115.727 76.0637H115.73Z" fill="#BEA483"/>
<path d="M116.661 45.5909C116.524 41.0913 115.418 37.7381 113.525 35.2554C107.63 25.0166 94.866 18.8583 87.1928 24.687C85.3715 26.0699 82.8892 26.1057 81.0679 24.7229C80.9709 24.6512 80.8739 24.5831 80.7805 24.5151C80.7195 24.4721 80.6584 24.4255 80.5973 24.3825C80.4357 24.2715 80.2704 24.164 80.1052 24.0637C80.0872 24.0529 80.0728 24.0422 80.0585 24.0314C79.8753 23.9204 79.6921 23.8165 79.5053 23.7162C79.4442 23.6839 79.3831 23.6553 79.3221 23.6266C79.1927 23.5621 79.067 23.4976 78.9377 23.4367C78.8622 23.4009 78.7868 23.3723 78.7114 23.3364C78.5964 23.2863 78.4779 23.2361 78.3593 23.1895C78.2767 23.1573 78.1977 23.1286 78.115 23.0964C78.0001 23.0534 77.8851 23.014 77.7702 22.9746C77.6875 22.9459 77.6013 22.9209 77.5187 22.8922C77.4037 22.8564 77.2888 22.8241 77.1703 22.7919C77.084 22.7668 77.0014 22.7453 76.9152 22.7238C76.7966 22.6952 76.6781 22.6665 76.5632 22.6414C76.4769 22.6235 76.3907 22.602 76.3045 22.5877C76.1824 22.5626 76.0602 22.5447 75.9381 22.5232C75.8555 22.5089 75.7692 22.4945 75.6866 22.4838C75.5573 22.4659 75.4244 22.4515 75.2915 22.4336C75.216 22.4265 75.1406 22.4157 75.0652 22.4086C74.9035 22.3942 74.7418 22.3835 74.5802 22.3727C74.5335 22.3727 74.4832 22.3656 74.4365 22.362C74.2281 22.3512 74.0162 22.3477 73.8042 22.3477C73.7468 22.3477 73.6893 22.3477 73.6354 22.3477C73.4809 22.3477 73.3229 22.3512 73.1684 22.3584C73.0894 22.362 73.0103 22.3692 72.9313 22.3727C72.7984 22.3799 72.6619 22.3906 72.5254 22.4014C72.4392 22.4086 72.3494 22.4193 72.2631 22.4301C72.1374 22.4444 72.0081 22.4587 71.8824 22.4766C71.7925 22.4874 71.6991 22.5017 71.6093 22.516C71.4836 22.5339 71.3579 22.5554 71.2321 22.5769C71.1387 22.5913 71.0489 22.6092 70.9555 22.6271C70.8298 22.6522 70.7041 22.6772 70.5783 22.7059C70.4849 22.7274 70.3951 22.7453 70.3017 22.7668C70.1724 22.7955 70.0467 22.8277 69.9173 22.86C69.8275 22.8814 69.7377 22.9065 69.6479 22.9316C69.515 22.9674 69.3821 23.0068 69.2492 23.0462C69.1666 23.0713 69.0839 23.0964 68.9977 23.1215C68.8468 23.168 68.6924 23.2218 68.5415 23.2719C68.4768 23.2934 68.4158 23.3149 68.3511 23.3364C68.1356 23.4117 67.92 23.4941 67.7045 23.5765C67.6686 23.5908 67.629 23.6087 67.5931 23.623C67.4171 23.6947 67.2375 23.7663 67.0614 23.8416C66.986 23.8738 66.9106 23.9096 66.8351 23.9419C66.695 24.0028 66.5585 24.0637 66.422 24.1317C66.3358 24.1712 66.2532 24.2141 66.167 24.2535C66.0376 24.3144 65.9083 24.3789 65.7826 24.4434C65.6964 24.4864 65.6066 24.533 65.5203 24.5796C65.3946 24.644 65.2725 24.7121 65.1503 24.7802C65.0605 24.8303 64.9707 24.8805 64.8845 24.9306C64.7624 24.9987 64.6438 25.0704 64.5217 25.142C64.4319 25.1957 64.3456 25.2459 64.2558 25.2996C64.1337 25.3749 64.0152 25.4501 63.893 25.5253C63.8068 25.5791 63.7206 25.6328 63.6344 25.6901C63.5086 25.7689 63.3865 25.8549 63.2644 25.9373C63.1853 25.9911 63.1027 26.0448 63.0237 26.0985C62.8908 26.1917 62.7578 26.2848 62.6249 26.3816C62.5567 26.4317 62.4884 26.4783 62.4238 26.5249C62.2334 26.6646 62.0394 26.8079 61.8526 26.9548C61.8454 26.9619 61.8382 26.9655 61.831 26.9691C61.6334 27.1231 61.4395 27.2772 61.2455 27.4384C61.1844 27.4885 61.1233 27.5423 61.0623 27.5924C60.9293 27.7035 60.8 27.8146 60.6707 27.9256C60.5989 27.9901 60.5234 28.0546 60.4516 28.1191C60.3366 28.223 60.2217 28.3233 60.1067 28.4307C60.0313 28.5024 59.9522 28.574 59.8768 28.6457C59.769 28.7496 59.6577 28.8499 59.5499 28.9574C59.4745 29.0326 59.3954 29.1078 59.32 29.1831C59.2158 29.287 59.1116 29.3944 59.0075 29.5019C58.932 29.5807 58.8566 29.656 58.7811 29.7348C58.677 29.8423 58.5764 29.9533 58.4758 30.0644C58.4039 30.1432 58.3321 30.222 58.2567 30.3008C58.1525 30.4155 58.0519 30.5301 57.9513 30.6447C57.8831 30.7236 57.8148 30.8024 57.7466 30.8812C57.6388 31.0066 57.5346 31.132 57.4304 31.2609C57.3729 31.3326 57.3119 31.4042 57.2508 31.4759C57.1251 31.6335 56.9993 31.7947 56.8736 31.9559C56.8413 31.9989 56.8054 32.0419 56.773 32.0849C56.6186 32.2891 56.4641 32.5005 56.3132 32.7083C56.2737 32.7656 56.2342 32.8229 56.1947 32.8802C56.0869 33.0343 55.9755 33.1919 55.8714 33.3459C55.8175 33.4283 55.7636 33.5072 55.7097 33.5896C55.6199 33.7257 55.5301 33.8618 55.4439 33.998C55.3864 34.0875 55.3325 34.1807 55.275 34.2702C55.196 34.4028 55.1134 34.5318 55.0343 34.6643C54.9769 34.761 54.923 34.8542 54.8691 34.9509C54.7937 35.0835 54.7182 35.2124 54.6464 35.345C54.5925 35.4417 54.5386 35.5384 54.4883 35.6387C54.4165 35.7713 54.3482 35.9039 54.2764 36.04C54.2261 36.1367 54.1758 36.237 54.1255 36.3373C54.0572 36.4735 53.989 36.6132 53.9243 36.7529C53.8776 36.8496 53.8309 36.9464 53.7878 37.0431C53.7196 37.19 53.6549 37.3404 53.5902 37.4873C53.5507 37.5769 53.5112 37.6664 53.4717 37.7596C53.3998 37.9316 53.3316 38.1035 53.2633 38.2755C53.2346 38.3471 53.2058 38.4152 53.1807 38.4833C53.0873 38.7269 52.9975 38.9705 52.9113 39.2177C52.8933 39.2642 52.879 39.3108 52.8646 39.361C52.7963 39.5616 52.7281 39.7622 52.667 39.9628C52.6383 40.0524 52.6131 40.142 52.588 40.2315C52.5413 40.3927 52.491 40.5539 52.4479 40.7152C52.4191 40.8155 52.394 40.9194 52.3688 41.0197C52.3293 41.1701 52.2898 41.3242 52.2539 41.4746C52.2287 41.5821 52.2036 41.6896 52.1784 41.7971C52.1461 41.9475 52.1138 42.0944 52.0815 42.2449C52.0599 42.3524 52.0383 42.4634 52.0168 42.5745C51.9881 42.7249 51.9629 42.8754 51.9378 43.0259C51.9198 43.1369 51.9018 43.2444 51.8839 43.3555C51.8623 43.5095 51.8408 43.66 51.8192 43.814C51.8048 43.9215 51.7905 44.0326 51.7797 44.14C51.7617 44.3012 51.7474 44.4589 51.733 44.6201C51.7222 44.724 51.7114 44.8243 51.7043 44.9282C51.6899 45.1037 51.6827 45.2828 51.6719 45.4584C51.6683 45.548 51.6612 45.6339 51.6576 45.7235C51.6468 45.9886 51.6432 46.2537 51.6432 46.5224C51.6432 64.4063 66.2316 78.9584 84.1681 78.9584C102.105 78.9584 116.693 64.4098 116.693 46.5224C116.693 46.2071 116.682 45.8919 116.668 45.5802L116.661 45.5909Z" fill="#E3CCB5"/>
<path d="M80.9602 44.3299C80.9602 38.3257 74.0019 33.457 65.4234 33.457C60.7642 33.457 56.5899 34.8936 53.7412 37.1649C53.6909 37.276 53.6406 37.3835 53.5939 37.4945C53.5544 37.5841 53.5149 37.6736 53.4753 37.7668C53.4035 37.9387 53.3352 38.1107 53.267 38.2827C53.2382 38.3543 53.2095 38.4224 53.1844 38.4905C53.091 38.7341 53.0012 38.9777 52.9149 39.2249C52.897 39.2714 52.8826 39.318 52.8682 39.3682C52.8 39.5688 52.7317 39.7694 52.6707 39.97C52.6419 40.0596 52.6168 40.1491 52.5916 40.2387C52.5449 40.3999 52.4946 40.5611 52.4515 40.7223C52.4228 40.8227 52.3976 40.9266 52.3725 41.0269C52.333 41.1773 52.2935 41.3314 52.2575 41.4818C52.2324 41.5893 52.2072 41.6968 52.1821 41.8043C52.1498 41.9547 52.1174 42.1016 52.0851 42.2521C52.0636 42.3596 52.042 42.4706 52.0204 42.5817C51.9917 42.7321 51.9666 42.8826 51.9414 43.0331C51.9235 43.1441 51.9055 43.2516 51.8875 43.3627C51.866 43.5167 51.8444 43.6672 51.8229 43.8212C51.8085 43.9287 51.7941 44.0398 51.7834 44.1472C51.7654 44.3084 51.751 44.4661 51.7367 44.6273C51.7259 44.7312 51.7151 44.8315 51.7079 44.9354C51.6936 45.1109 51.6864 45.29 51.6756 45.4656C51.672 45.5552 51.6648 45.6411 51.6612 45.7307C51.6504 45.9958 51.6469 46.2609 51.6469 46.5296C51.6469 47.5434 51.7007 48.543 51.7905 49.5317C54.4273 52.9064 59.5464 51.7851 65.4342 51.7851C74.0163 51.7851 80.971 50.327 80.971 44.3264L80.9602 44.3299Z" fill="#9A856A"/>
<path d="M116.661 45.591C116.553 42.0801 115.853 39.2679 114.653 37.0216C111.811 34.8327 107.716 33.457 103.161 33.457C94.5788 33.457 87.624 38.3257 87.624 44.3299C87.624 50.3342 94.5824 51.7887 103.161 51.7887C108.844 51.7887 113.805 53.0641 116.513 49.8792C116.628 48.7794 116.686 47.6617 116.686 46.5332C116.686 46.2179 116.675 45.9027 116.661 45.591Z" fill="#9A856A"/>
<path d="M82.4367 53.0031L80.3603 50.628C79.9544 50.1658 80.2849 49.4421 80.9027 49.4421H87.4228C88.0407 49.4421 88.3676 50.1658 87.9652 50.628L85.8889 53.0031C84.9764 54.0457 83.3527 54.0457 82.4438 53.0031H82.4367Z" fill="#574938"/>
<path d="M89.5135 57.4778C88.1987 59.4661 85.2494 59.7563 84.1609 59.7563C83.1838 59.7563 80.1411 59.4768 78.8083 57.4778" stroke="#231815" stroke-width="2" stroke-linecap="round" stroke-linejoin="round"/>
<path d="M70.4167 48.2993C72.6904 48.2993 74.5335 46.8237 74.5335 45.0034C74.5335 43.1831 72.6904 41.7075 70.4167 41.7075C68.1431 41.7075 66.2999 43.1831 66.2999 45.0034C66.2999 46.8237 68.1431 48.2993 70.4167 48.2993Z" fill="white"/>
<path d="M70.9807 46.4508C72.4151 46.4508 73.5779 45.4435 73.5779 44.201C73.5779 42.9584 72.4151 41.9512 70.9807 41.9512C69.5463 41.9512 68.3834 42.9584 68.3834 44.201C68.3834 45.4435 69.5463 46.4508 70.9807 46.4508Z" fill="#231815"/>
<path d="M97.449 48.2993C99.7226 48.2993 101.566 46.8237 101.566 45.0034C101.566 43.1831 99.7226 41.7075 97.449 41.7075C95.1753 41.7075 93.3322 43.1831 93.3322 45.0034C93.3322 46.8237 95.1753 48.2993 97.449 48.2993Z" fill="white"/>
<path d="M96.9317 46.4508C98.3661 46.4508 99.529 45.4435 99.529 44.201C99.529 42.9584 98.3661 41.9512 96.9317 41.9512C95.4973 41.9512 94.3345 42.9584 94.3345 44.201C94.3345 45.4435 95.4973 46.4508 96.9317 46.4508Z" fill="#231815"/>
</g>
<path d="M75.8807 40.5039H63.9254V48.9837H75.8807V40.5039Z" fill="#9A856A"/>
<path d="M104.066 40.5039H92.1108V48.9837H104.066V40.5039Z" fill="#9A856A"/>
<path d="M93.9105 55.2781H75.8806V66.0256H93.9105V55.2781Z" fill="#E3CCB5"/>
<path d="M101.084 46.8448L94.6039 46.5582L100.402 43.5023C100.79 43.2981 100.937 42.818 100.732 42.4311L100.661 42.2986C100.456 41.9117 99.9744 41.7648 99.5864 41.969L92.5347 45.6876C92.1467 45.8918 91.9994 46.3719 92.2042 46.7588L92.276 46.8913C92.4593 47.2388 92.8688 47.3929 93.2316 47.2711L100.912 47.6114C101.39 47.6329 101.817 47.4789 101.864 47.2675C101.911 47.0561 101.562 46.8698 101.084 46.8483V46.8448Z" fill="#231815"/>
<path d="M66.907 46.8448L73.3876 46.5582L67.5896 43.5023C67.2016 43.2981 67.0543 42.818 67.2591 42.4311L67.3309 42.2986C67.5357 41.9117 68.017 41.7648 68.405 41.969L75.4568 45.6876C75.8447 45.8918 75.992 46.3719 75.7872 46.7588L75.7154 46.8913C75.5322 47.2388 75.1227 47.3929 74.7598 47.2711L67.0795 47.6114C66.6017 47.6329 66.1742 47.4789 66.1275 47.2675C66.0808 47.0561 66.4292 46.8698 66.907 46.8483V46.8448Z" fill="#231815"/>
<path d="M40.6759 27.4671C41.9476 27.9077 42.9714 28.3376 40.385 28.6565C41.8866 29.2225 43.3738 29.7277 40.6975 29.9139C42.2027 30.6089 42.3069 30.9135 40.4891 30.9815C40.816 31.784 42.3572 32.3751 40.1694 32.2999C41.1717 33.2349 41.8075 33.4678 38.8151 33.2815C40.8376 34.3097 42.1739 34.8936 40.094 34.5605C41.4052 35.714 40.2018 36.0185 37.5937 35.5707C38.7038 36.821 38.9121 37.036 38.6247 36.4807C39.882 37.8134 39.9898 38.1967 37.0225 37.5196C38.5134 38.9454 37.9206 39.5867 36.2215 38.7627C38.1901 40.3032 38.7541 40.7618 37.1303 39.8088C37.5003 41.4424 36.7962 41.8258 36.0526 40.7582C36.6238 42.4742 37.0441 42.6999 34.2277 41.5284C35.6718 43.3053 33.6781 43.1764 32.3453 41.9404C35.1007 43.7388 33.4626 44.5771 32.9991 43.1907C33.1357 45.1002 33.053 45.1468 31.6628 43.6851C30.9228 45.6232 32.0148 45.4369 30.2115 43.9251C30.7036 45.8633 29.4679 46.1964 29.687 44.5915C29.7158 46.5762 28.5195 47.3213 27.3879 45.5838C28.7351 47.6473 29.0548 47.7297 26.3498 45.9313C27.2658 48.0056 27.2586 47.6115 26.8024 45.7988C26.0372 47.83 26.7593 48.4534 25.8217 46.5332C23.5801 48.6146 23.1382 48.1166 23.9213 46.2036C22.2222 48.2241 23.7956 48.7902 21.3205 46.7875C21.5576 48.8439 21.1732 48.1561 21.5109 46.1893C20.9074 48.1561 21.3349 48.9155 18.5867 46.8556C19.5423 48.8618 18.8885 48.7973 19.2765 46.7195C17.5486 48.6863 18.558 47.8157 17.4983 45.8095C16.5104 47.6509 17.0061 48.0916 16.7295 46.0352C15.3034 47.873 14.8651 47.8515 16.2876 45.7916C15.2531 47.5793 13.0833 46.8664 13.3886 44.8781C11.8583 46.5403 13.1084 46.4615 14.24 44.4876C11.05 46.0854 10.9962 46.6872 10.9135 44.6703C10.5974 46.2609 9.7101 45.9421 11.2728 43.9753C9.93283 45.4692 9.58437 44.7169 9.60952 42.8432C7.62655 44.1938 7.78462 44.4231 8.84794 42.5566C8.08278 43.8571 6.60993 43.4737 8.35939 41.6825C6.4339 42.8683 6.13215 42.0156 8.18696 40.3426C6.05312 41.3708 6.13574 41.1093 6.19322 39.5043C3.84743 40.425 4.609 40.4178 4.91435 38.8666C3.82228 39.7013 3.71451 39.4291 4.02704 37.9567C2.45361 38.6803 1.47649 38.0892 4.64492 36.7314C2.95294 37.3118 2.65478 36.9536 4.08452 35.6925C0.639482 36.1511 0.0754866 35.8466 2.88468 34.6787C1.30047 35.0226 0.664628 34.4709 3.52771 33.4284C0.463458 33.629 0.434719 33.1704 2.16981 32.2426C1.55552 32.3106 -0.757932 31.913 1.46212 31.0962C1.07415 31.0389 -0.409477 30.6197 1.57349 29.9247C0.474235 29.742 0.305396 29.2154 2.30991 28.6529C0.510158 28.3341 0.46705 27.9149 3.20799 27.4743C-0.736378 27.0229 1.26455 26.593 3.34091 26.2849C0.0862637 25.7081 -1.47999 25.1886 1.87165 25.0167C0.00723275 24.3109 -0.883664 23.9168 2.91702 23.8703C0.115002 23.0499 -0.280153 22.7346 2.56856 22.8063C-0.204714 21.8784 0.722106 21.3195 2.30632 21.5309C-0.29093 20.4776 1.26814 19.9008 3.11819 20.2555C2.04408 19.0769 0.510158 18.6864 3.45946 19.1664C2.64759 17.8839 1.45853 17.6654 3.05352 18.2529C2.11952 16.888 2.08 16.6372 5.76214 17.3358C3.68937 15.8884 3.61033 15.2687 5.39931 16.1141C2.7374 14.5557 5.55378 14.4698 6.69614 15.4048C5.60048 13.7891 6.81469 13.6637 6.68177 14.6919C5.09756 13.0189 5.69029 12.0014 6.64944 13.2051C7.24936 11.396 6.78595 11.4426 8.62163 12.7179C7.05537 10.8765 8.01453 10.812 10.7806 12.1698C8.28036 10.2926 8.73299 9.79102 10.2633 11.2634C10.953 9.31454 9.94001 9.02078 11.8547 10.5863C10.5723 8.59088 10.7195 8.74134 13.0438 10.3571C12.7133 8.3616 11.6535 7.77407 14.1933 9.508C14.1107 7.44806 13.1372 7.24386 14.6927 9.04944C15.835 6.968 16.4744 7.57703 17.2504 9.37545C15.368 7.35491 17.4875 7.24027 17.721 9.09601C16.8014 7.07548 16.769 7.00741 18.0156 8.90972C19.7722 6.89635 20.1494 6.78888 20.2284 8.73776C20.505 6.73514 21.3492 6.23001 20.329 8.2577C22.3228 6.23001 23.0268 6.12611 22.136 8.18964C23.2855 6.18343 24.3704 6.15119 23.2568 8.23621C24.4853 6.26225 25.3008 7.09339 23.7489 9.11392C26.0229 7.25819 25.2936 7.03249 24.7799 9.08168C27.6897 7.25102 28.2214 6.91068 27.1796 8.9957C27.1868 7.18295 27.9519 7.54837 28.0274 9.59756C29.3314 7.87438 29.9852 8.45116 27.837 10.4394C31.1275 8.83091 29.9385 8.92405 31.1347 10.8908C30.9012 9.35395 31.2138 9.81251 29.9744 11.7148C32.6866 10.289 32.4028 10.0812 32.0436 11.9799C33.7571 10.6042 35.3126 10.615 33.3225 12.4815C35.5713 11.181 35.6323 11.9405 33.7643 13.6995C36.1424 12.546 35.388 12.7251 34.0409 14.4268C36.7603 13.3699 35.9341 13.8822 36.6166 15.4908C37.5614 14.5665 36.7316 14.9677 35.2443 16.4867C39.1528 15.6842 38.0248 15.8849 36.8322 17.3322C37.8057 16.6336 38.6786 16.7697 38.8582 18.1454C39.2139 17.5471 40.7334 17.9555 38.208 19.2309C41.6495 18.758 40.385 19.3348 39.9251 20.4884C40.0581 20.1588 41.9225 20.5958 39.9036 21.6384C40.6472 21.4377 42.1416 21.882 38.2044 22.8098C41.9404 22.7418 42.3607 23.1609 38.7972 23.9742C42.4865 24.0351 42.9463 24.3754 39.0378 25.0776C41.6638 25.2567 43.2121 25.6938 39.142 26.2705C43.072 26.5786 43.6791 27.03 40.6795 27.4814L40.6759 27.4671Z" fill="#F6CE5C"/>
<path d="M165.11 27.4671C166.382 27.9077 167.406 28.3376 164.819 28.6565C166.321 29.2225 167.808 29.7277 165.132 29.9139C166.637 30.6089 166.741 30.9135 164.924 30.9815C165.25 31.784 166.792 32.3751 164.604 32.2999C165.606 33.2349 166.242 33.4678 163.25 33.2815C165.272 34.3097 166.608 34.8936 164.528 34.5605C165.84 35.714 164.636 36.0185 162.028 35.5707C163.138 36.821 163.347 37.036 163.059 36.4807C164.316 37.8134 164.424 38.1967 161.457 37.5196C162.948 38.9454 162.355 39.5867 160.656 38.7627C162.625 40.3032 163.188 40.7618 161.565 39.8088C161.935 41.4424 161.231 41.8258 160.487 40.7582C161.058 42.4742 161.479 42.6999 158.662 41.5284C160.106 43.3053 158.113 43.1764 156.78 41.9404C159.535 43.7388 157.897 44.5771 157.434 43.1907C157.57 45.1002 157.487 45.1468 156.097 43.6851C155.357 45.6232 156.449 45.4369 154.646 43.9251C155.138 45.8633 153.902 46.1964 154.121 44.5915C154.15 46.5762 152.954 47.3213 151.822 45.5838C153.17 47.6473 153.489 47.7297 150.784 45.9313C151.7 48.0056 151.693 47.6115 151.237 45.7988C150.472 47.83 151.194 48.4534 150.256 46.5332C148.015 48.6146 147.573 48.1166 148.356 46.2036C146.657 48.2241 148.23 48.7902 145.755 46.7875C145.992 48.8439 145.608 48.1561 145.945 46.1893C145.342 48.1561 145.769 48.9155 143.021 46.8556C143.977 48.8618 143.323 48.7973 143.711 46.7195C141.983 48.6863 142.992 47.8157 141.933 45.8095C140.945 47.6509 141.441 48.0916 141.164 46.0352C139.738 47.873 139.3 47.8515 140.722 45.7916C139.688 47.5793 137.518 46.8664 137.823 44.8781C136.293 46.5403 137.543 46.4615 138.674 44.4876C135.484 46.0854 135.431 46.6872 135.348 44.6703C135.032 46.2609 134.145 45.9421 135.707 43.9753C134.367 45.4692 134.019 44.7169 134.044 42.8432C132.061 44.1938 132.219 44.4231 133.282 42.5566C132.517 43.8571 131.044 43.4737 132.794 41.6825C130.868 42.8683 130.567 42.0156 132.621 40.3426C130.488 41.3708 130.57 41.1093 130.628 39.5043C128.282 40.425 129.043 40.4178 129.349 38.8666C128.257 39.7013 128.149 39.4291 128.461 37.9567C126.888 38.6803 125.911 38.0892 129.079 36.7314C127.387 37.3118 127.089 36.9536 128.519 35.6925C125.074 36.1511 124.51 35.8466 127.319 34.6787C125.735 35.0226 125.099 34.4709 127.962 33.4284C124.898 33.629 124.869 33.1704 126.604 32.2426C125.99 32.3106 123.677 31.913 125.897 31.0962C125.509 31.0389 124.025 30.6197 126.008 29.9247C124.909 29.742 124.74 29.2154 126.744 28.6529C124.945 28.3341 124.901 27.9149 127.642 27.4743C123.698 27.0229 125.699 26.593 127.775 26.2849C124.521 25.7081 122.954 25.1886 126.306 25.0167C124.442 24.3109 123.551 23.9168 127.351 23.8703C124.549 23.0499 124.154 22.7346 127.003 22.8063C124.23 21.8784 125.157 21.3195 126.741 21.5309C124.144 20.4776 125.703 19.9008 127.553 20.2555C126.479 19.0769 124.945 18.6864 127.894 19.1664C127.082 17.8839 125.893 17.6654 127.488 18.2529C126.554 16.888 126.514 16.6372 130.197 17.3358C128.124 15.8884 128.045 15.2687 129.834 16.1141C127.172 14.5557 129.988 14.4698 131.131 15.4048C130.035 13.7891 131.249 13.6637 131.116 14.6919C129.532 13.0189 130.125 12.0014 131.084 13.2051C131.684 11.396 131.22 11.4426 133.056 12.7179C131.49 10.8765 132.449 10.812 135.215 12.1698C132.715 10.2926 133.167 9.79102 134.698 11.2634C135.387 9.31454 134.374 9.02078 136.289 10.5863C135.007 8.59088 135.154 8.74134 137.478 10.3571C137.148 8.3616 136.088 7.77407 138.628 9.508C138.545 7.44806 137.572 7.24386 139.127 9.04944C140.269 6.968 140.909 7.57703 141.685 9.37545C139.802 7.35491 141.922 7.24027 142.155 9.09601C141.236 7.07548 141.203 7.00741 142.45 8.90972C144.207 6.89635 144.584 6.78888 144.663 8.73776C144.939 6.73514 145.784 6.23001 144.763 8.2577C146.757 6.23001 147.461 6.12611 146.57 8.18964C147.72 6.18343 148.805 6.15119 147.691 8.23621C148.92 6.26225 149.735 7.09339 148.183 9.11392C150.457 7.25819 149.728 7.03249 149.214 9.08168C152.124 7.25102 152.656 6.91068 151.614 8.9957C151.621 7.18295 152.386 7.54837 152.462 9.59756C153.766 7.87438 154.42 8.45116 152.271 10.4394C155.562 8.83091 154.373 8.92405 155.569 10.8908C155.336 9.35395 155.648 9.81251 154.409 11.7148C157.121 10.289 156.837 10.0812 156.478 11.9799C158.192 10.6042 159.747 10.615 157.757 12.4815C160.006 11.181 160.067 11.9405 158.199 13.6995C160.577 12.546 159.822 12.7251 158.475 14.4268C161.195 13.3699 160.369 13.8822 161.051 15.4908C161.996 14.5665 161.166 14.9677 159.679 16.4867C163.587 15.6842 162.459 15.8849 161.267 17.3322C162.24 16.6336 163.113 16.7697 163.293 18.1454C163.648 17.5471 165.168 17.9555 162.642 19.2309C166.084 18.758 164.819 19.3348 164.36 20.4884C164.493 20.1588 166.357 20.5958 164.338 21.6384C165.082 21.4377 166.576 21.882 162.639 22.8098C166.375 22.7418 166.795 23.1609 163.232 23.9742C166.921 24.0351 167.381 24.3754 163.472 25.0776C166.098 25.2567 167.647 25.6938 163.576 26.2705C167.506 26.5786 168.114 27.03 165.114 27.4814L165.11 27.4671Z" fill="#F6CE5C"/>
</svg>
