<svg width="83" height="89" viewBox="0 0 83 89" fill="none" xmlns="http://www.w3.org/2000/svg">
<path d="M81.0773 49.0824C81.0773 59.2262 76.8413 68.4299 69.9606 75.1821H13.0472C6.17048 68.4299 1.93445 59.2262 1.93445 49.0824C1.93445 30.139 16.7138 14.4745 35.9241 11.8987C35.9944 10.0922 32.9246 7.79224 32.9246 7.79224C32.9246 7.79224 35.1596 8.54205 36.6887 9.73475C37.4181 5.00278 47.3099 1.63446 47.6181 1.53345C47.3958 1.7005 42.0442 5.76036 41.303 9.34625C43.9983 7.11236 48.0198 5.7254 48.0198 5.7254C48.0198 5.7254 44.2753 8.64695 43.0856 11.5568C64.2073 12.3455 81.0773 28.8414 81.0773 49.0824Z" fill="#BEA483"/>
<path d="M41.4941 88.0998C30.5296 88.0998 20.037 83.799 12.6259 76.2893H12.5986L12.2749 75.9746C4.89497 68.7368 0.82666 59.1873 0.82666 49.094C0.82666 39.7117 4.4074 30.6634 10.9097 23.616C17.0531 16.957 25.3925 12.5125 34.5004 11.0051C34.005 10.2126 33.0299 9.26464 32.2537 8.68577L31.8246 7.3299L33.2717 6.76268C33.3458 6.78599 34.7149 7.24831 36.0918 8.03697C38.3698 3.46428 46.8731 0.628206 47.2709 0.5L48.5074 1.01282L48.289 2.41921C47.189 3.26226 45.6249 4.63368 44.3767 6.11388C46.1124 5.23586 47.5479 4.73469 47.6493 4.69973L49.112 5.27859L48.6946 6.60728C48.6673 6.63059 46.3192 8.47986 44.8876 10.5778C54.7288 11.347 63.864 15.4574 70.7719 22.2601C78.1245 29.5018 82.1733 39.0318 82.1733 49.1018C82.1733 59.1718 78.1089 68.7406 70.729 75.9824L70.4053 76.3009H70.3468C62.9396 83.8107 52.447 88.1114 41.4824 88.1114L41.4941 88.0998Z" fill="white"/>
<path d="M81.0773 49.094C81.0773 59.2339 76.8413 68.4414 69.9645 75.1898H69.8904C62.924 82.4353 52.7825 87.0003 41.4942 87.0003C30.2059 87.0003 20.0644 82.4353 13.094 75.1898H13.0511C6.17048 68.4414 1.93445 59.2339 1.93445 49.094C1.93445 30.1467 16.7177 14.4822 35.928 11.9064C35.9943 10.0999 32.9246 7.80381 32.9246 7.80381C32.9246 7.80381 35.1596 8.54974 36.6887 9.74245C37.422 5.01436 47.3138 1.64215 47.622 1.54114C47.3997 1.71208 42.0481 5.77194 41.3069 9.35783C43.9983 7.12393 48.0198 5.73309 48.0198 5.73309C48.0198 5.73309 44.2753 8.65852 43.0895 11.5684C64.2073 12.3571 81.0773 28.8529 81.0773 49.094Z" fill="#BEA483"/>
<mask id="mask0_77_953" style="mask-type:luminance" maskUnits="userSpaceOnUse" x="1" y="11" width="81" height="76">
<path d="M41.5059 86.8332C63.3369 86.8332 81.0344 69.9872 81.0344 49.2066C81.0344 28.4261 63.3369 11.5801 41.5059 11.5801C19.6749 11.5801 1.97736 28.4261 1.97736 49.2066C1.97736 69.9872 19.6749 86.8332 41.5059 86.8332Z" fill="white"/>
</mask>
<g mask="url(#mask0_77_953)">
<path d="M75.7842 83.0415C74.692 79.8557 72.6013 77.3071 69.9606 75.2675C76.8412 68.5153 81.0734 59.3116 81.0734 49.1678C81.0734 28.9268 64.2033 12.4309 43.0856 11.6423C44.2714 8.73237 48.0198 5.81083 48.0198 5.81083C48.0198 5.81083 43.9983 7.20167 41.303 9.43168C42.0597 5.76809 47.6259 1.61499 47.6259 1.61499C47.6259 1.61499 37.4297 5.01828 36.6886 9.82018C35.1596 8.62748 32.9207 7.88155 32.9207 7.88155C32.9207 7.88155 35.9904 10.1776 35.9241 11.9842C16.7137 14.5599 1.93442 30.2244 1.93442 49.1678C1.93442 59.3116 6.17045 68.5153 13.0472 75.2675C10.4104 77.3071 8.31578 79.8557 7.22361 83.0415C1.90322 98.5389 -9.66982 131.985 7.22361 144.786H75.7803C92.6737 131.985 81.0968 98.5427 75.7803 83.0415H75.7842Z" fill="#BEA483"/>
<path d="M76.7905 49.9953C76.6423 45.1157 75.4409 41.4793 73.3853 38.787C66.9844 27.6835 53.1257 21.0052 44.794 27.3261C42.8164 28.8257 40.1211 28.8646 38.1435 27.365C38.0382 27.2873 37.9329 27.2134 37.8315 27.1396C37.7652 27.093 37.6989 27.0425 37.6325 26.9959C37.457 26.8755 37.2776 26.7589 37.0982 26.6501C37.0787 26.6385 37.0631 26.6268 37.0475 26.6152C36.8485 26.4947 36.6496 26.3821 36.4468 26.2733C36.3805 26.2383 36.3142 26.2072 36.2478 26.1761C36.1074 26.1062 35.9709 26.0363 35.8305 25.9702C35.7486 25.9314 35.6667 25.9003 35.5847 25.8615C35.4599 25.8071 35.3312 25.7527 35.2025 25.7022C35.1128 25.6672 35.027 25.6361 34.9372 25.6012C34.8124 25.5545 34.6876 25.5118 34.5628 25.4691C34.4731 25.438 34.3795 25.4108 34.2898 25.3797C34.1649 25.3409 34.0401 25.3059 33.9114 25.2709C33.8178 25.2437 33.7281 25.2204 33.6344 25.1971C33.5057 25.166 33.377 25.135 33.2522 25.1078C33.1586 25.0883 33.065 25.065 32.9714 25.0495C32.8387 25.0223 32.7061 25.0029 32.5735 24.9796C32.4838 24.964 32.3902 24.9485 32.3005 24.9368C32.16 24.9174 32.0157 24.9019 31.8714 24.8824C31.7895 24.8747 31.7076 24.863 31.6256 24.8552C31.4501 24.8397 31.2746 24.828 31.0991 24.8164C31.0484 24.8164 30.9938 24.8086 30.943 24.8047C30.7168 24.7931 30.4867 24.7892 30.2565 24.7892C30.1941 24.7892 30.1317 24.7892 30.0732 24.7892C29.9055 24.7892 29.7339 24.7931 29.5661 24.8008C29.4803 24.8047 29.3945 24.8125 29.3087 24.8164C29.1644 24.8242 29.0162 24.8358 28.8679 24.8475C28.7743 24.8552 28.6768 24.8669 28.5832 24.8785C28.4467 24.8941 28.3063 24.9096 28.1697 24.929C28.0722 24.9407 27.9708 24.9562 27.8733 24.9718C27.7368 24.9912 27.6003 25.0145 27.4637 25.0378C27.3623 25.0534 27.2648 25.0728 27.1634 25.0922C27.0269 25.1194 26.8903 25.1466 26.7538 25.1777C26.6524 25.201 26.5549 25.2204 26.4535 25.2437C26.313 25.2748 26.1765 25.3098 26.0361 25.3447C25.9386 25.3681 25.8411 25.3953 25.7436 25.4224C25.5993 25.4613 25.4549 25.504 25.3106 25.5468C25.2209 25.574 25.1312 25.6012 25.0376 25.6284C24.8737 25.6789 24.706 25.7371 24.5422 25.7915C24.472 25.8148 24.4057 25.8381 24.3355 25.8615C24.1014 25.943 23.8674 26.0324 23.6334 26.1218C23.5943 26.1373 23.5514 26.1567 23.5124 26.1723C23.3213 26.25 23.1263 26.3277 22.9351 26.4092C22.8532 26.4442 22.7713 26.4831 22.6894 26.518C22.5373 26.5841 22.3891 26.6501 22.2408 26.7239C22.1472 26.7667 22.0575 26.8133 21.9639 26.856C21.8235 26.9221 21.6831 26.992 21.5465 27.0619C21.4529 27.1086 21.3554 27.1591 21.2618 27.2096C21.1253 27.2795 20.9927 27.3533 20.86 27.4271C20.7625 27.4815 20.665 27.5359 20.5714 27.5903C20.4388 27.6641 20.3101 27.7418 20.1774 27.8195C20.0799 27.8778 19.9863 27.9322 19.8888 27.9905C19.7562 28.072 19.6274 28.1536 19.4948 28.2352C19.4012 28.2935 19.3076 28.3518 19.214 28.4139C19.0775 28.4994 18.9448 28.5926 18.8122 28.682C18.7264 28.7403 18.6367 28.7985 18.5509 28.8568C18.4066 28.9578 18.2622 29.0588 18.1179 29.1637C18.0438 29.2181 17.9697 29.2686 17.8995 29.3191C17.6928 29.4707 17.4821 29.6261 17.2793 29.7853C17.2715 29.7931 17.2637 29.797 17.2559 29.8009C17.0414 29.9679 16.8307 30.135 16.6201 30.3098C16.5538 30.3642 16.4875 30.4225 16.4212 30.4769C16.2769 30.5973 16.1364 30.7178 15.996 30.8382C15.918 30.9081 15.8361 30.978 15.7581 31.048C15.6333 31.1606 15.5084 31.2694 15.3836 31.386C15.3017 31.4637 15.2159 31.5414 15.134 31.6191C15.017 31.7317 14.896 31.8405 14.779 31.9571C14.6971 32.0387 14.6113 32.1202 14.5294 32.2018C14.4163 32.3145 14.3032 32.431 14.19 32.5476C14.1081 32.6331 14.0262 32.7147 13.9443 32.8001C13.8312 32.9167 13.722 33.0371 13.6128 33.1576C13.5347 33.243 13.4567 33.3285 13.3748 33.414C13.2617 33.5383 13.1525 33.6626 13.0433 33.7869C12.9692 33.8724 12.895 33.9579 12.8209 34.0433C12.7039 34.1793 12.5908 34.3153 12.4777 34.4552C12.4153 34.5329 12.349 34.6106 12.2827 34.6883C12.1461 34.8592 12.0096 35.034 11.8731 35.2089C11.838 35.2555 11.799 35.3021 11.7639 35.3487C11.5962 35.5702 11.4284 35.7994 11.2646 36.0247C11.2217 36.0869 11.1788 36.149 11.1359 36.2112C11.0189 36.3782 10.8979 36.5492 10.7848 36.7162C10.7263 36.8056 10.6678 36.8911 10.6093 36.9804C10.5118 37.1281 10.4143 37.2757 10.3207 37.4233C10.2583 37.5204 10.1997 37.6215 10.1373 37.7186C10.0515 37.8623 9.9618 38.0022 9.87599 38.1459C9.81358 38.2508 9.75507 38.3518 9.69656 38.4567C9.61465 38.6005 9.53274 38.7403 9.45473 38.8841C9.39622 38.989 9.33771 39.0939 9.2831 39.2027C9.20509 39.3464 9.13098 39.4902 9.05297 39.6378C8.99836 39.7427 8.94375 39.8515 8.88914 39.9602C8.81503 40.1079 8.74092 40.2594 8.67071 40.4109C8.62 40.5158 8.5693 40.6207 8.5225 40.7256C8.44839 40.8849 8.37817 41.0481 8.30796 41.2073C8.26505 41.3045 8.22215 41.4016 8.17924 41.5026C8.10123 41.6891 8.02711 41.8756 7.953 42.0621C7.9218 42.1398 7.8906 42.2136 7.8633 42.2874C7.76188 42.5516 7.66437 42.8158 7.57075 43.0838C7.55125 43.1343 7.53565 43.1848 7.52004 43.2392C7.44593 43.4568 7.37181 43.6743 7.3055 43.8919C7.2743 43.989 7.247 44.0862 7.21969 44.1833C7.16898 44.3581 7.11438 44.5329 7.06757 44.7078C7.03637 44.8165 7.00907 44.9292 6.98176 45.038C6.93885 45.2012 6.89595 45.3682 6.85694 45.5314C6.82964 45.6479 6.80233 45.7645 6.77503 45.881C6.73993 46.0442 6.70482 46.2035 6.66972 46.3667C6.64632 46.4832 6.6229 46.6037 6.5995 46.7241C6.5683 46.8873 6.54099 47.0504 6.51369 47.2136C6.49418 47.334 6.47468 47.4506 6.45518 47.571C6.43178 47.7381 6.40838 47.9013 6.38497 48.0683C6.36937 48.1849 6.35376 48.3053 6.34206 48.4219C6.32256 48.5967 6.30696 48.7676 6.29136 48.9424C6.27966 49.0551 6.26795 49.1639 6.26015 49.2766C6.24455 49.4669 6.23675 49.6612 6.22505 49.8516C6.22115 49.9487 6.21334 50.0419 6.20944 50.139C6.19774 50.4265 6.19385 50.714 6.19385 51.0054C6.19385 70.3995 22.0341 86.1805 41.5097 86.1805C60.9853 86.1805 76.8256 70.4034 76.8256 51.0054C76.8256 50.6635 76.8139 50.3216 76.7983 49.9836L76.7905 49.9953Z" fill="#E3CCB5"/>
<path d="M38.0304 48.6277C38.0304 42.1164 30.475 36.8367 21.1604 36.8367C16.1013 36.8367 11.5689 38.3946 8.4757 40.8577C8.42109 40.9781 8.36648 41.0947 8.31577 41.2151C8.27286 41.3122 8.22996 41.4094 8.18706 41.5104C8.10904 41.6968 8.03494 41.8833 7.96083 42.0698C7.92962 42.1475 7.89841 42.2213 7.87111 42.2951C7.76969 42.5593 7.67218 42.8235 7.57857 43.0916C7.55906 43.1421 7.54346 43.1926 7.52786 43.247C7.45375 43.4645 7.37964 43.6821 7.31333 43.8997C7.28212 43.9968 7.25482 44.0939 7.22752 44.191C7.17681 44.3659 7.12219 44.5407 7.07539 44.7155C7.04418 44.8243 7.01688 44.937 6.98957 45.0457C6.94667 45.2089 6.90377 45.376 6.86476 45.5391C6.83746 45.6557 6.81015 45.7723 6.78284 45.8888C6.74774 46.052 6.71264 46.2113 6.67753 46.3744C6.65413 46.491 6.63073 46.6114 6.60732 46.7319C6.57612 46.895 6.54881 47.0582 6.52151 47.2214C6.50201 47.3418 6.4825 47.4584 6.46299 47.5788C6.43959 47.7458 6.41619 47.909 6.39278 48.0761C6.37718 48.1926 6.36159 48.3131 6.34988 48.4296C6.33038 48.6044 6.31478 48.7754 6.29917 48.9502C6.28747 49.0629 6.27576 49.1717 6.26796 49.2843C6.25236 49.4747 6.24456 49.6689 6.23286 49.8593C6.22896 49.9564 6.22117 50.0497 6.21727 50.1468C6.20556 50.4343 6.20166 50.7218 6.20166 51.0132C6.20166 52.1126 6.26017 53.1966 6.35768 54.2688C9.22071 57.9285 14.779 56.7125 21.1721 56.7125C30.4906 56.7125 38.0421 55.1313 38.0421 48.6239L38.0304 48.6277Z" fill="#9A856A"/>
<path d="M76.7905 49.9953C76.6735 46.1879 75.9129 43.1382 74.6101 40.7023C71.5247 38.3285 67.078 36.8367 62.1321 36.8367C52.8136 36.8367 45.2621 42.1164 45.2621 48.6277C45.2621 55.1391 52.8175 56.7164 62.1321 56.7164C68.3028 56.7164 73.6895 58.0995 76.6306 54.6457C76.7554 53.453 76.8178 52.2408 76.8178 51.017C76.8178 50.6752 76.8061 50.3333 76.7905 49.9953Z" fill="#9A856A"/>
<path d="M39.6336 58.0335L37.379 55.4577C36.9383 54.9565 37.2971 54.1718 37.968 54.1718H45.0476C45.7185 54.1718 46.0734 54.9565 45.6366 55.4577L43.382 58.0335C42.3913 59.164 40.6282 59.164 39.6414 58.0335H39.6336Z" fill="#574938"/>
<path d="M47.3177 62.8859C45.8901 65.0421 42.6877 65.3567 41.5058 65.3567C40.4449 65.3567 37.1411 65.0537 35.694 62.8859" stroke="#231815" stroke-width="2" stroke-linecap="round" stroke-linejoin="round"/>
<path d="M26.5822 52.9363C29.051 52.9363 31.0523 51.3361 31.0523 49.3621C31.0523 47.3881 29.051 45.7878 26.5822 45.7878C24.1135 45.7878 22.1122 47.3881 22.1122 49.3621C22.1122 51.3361 24.1135 52.9363 26.5822 52.9363Z" fill="white"/>
<path d="M27.1946 50.9277C28.7521 50.9277 30.0148 49.8354 30.0148 48.4879C30.0148 47.1404 28.7521 46.0481 27.1946 46.0481C25.6371 46.0481 24.3745 47.1404 24.3745 48.4879C24.3745 49.8354 25.6371 50.9277 27.1946 50.9277Z" fill="#231815"/>
<path d="M55.9341 52.9363C58.4028 52.9363 60.4041 51.3361 60.4041 49.3621C60.4041 47.3881 58.4028 45.7878 55.9341 45.7878C53.4653 45.7878 51.464 47.3881 51.464 49.3621C51.464 51.3361 53.4653 52.9363 55.9341 52.9363Z" fill="white"/>
<path d="M55.3724 50.9277C56.9299 50.9277 58.1925 49.8354 58.1925 48.4879C58.1925 47.1404 56.9299 46.0481 55.3724 46.0481C53.8149 46.0481 52.5522 47.1404 52.5522 48.4879C52.5522 49.8354 53.8149 50.9277 55.3724 50.9277Z" fill="#231815"/>
</g>
<path d="M41.0456 69.6847C47.3166 69.6847 52.4002 67.5313 52.4002 64.875C52.4002 62.2187 47.3166 60.0653 41.0456 60.0653C34.7747 60.0653 29.691 62.2187 29.691 64.875C29.691 67.5313 34.7747 69.6847 41.0456 69.6847Z" fill="#E3CCB5"/>
<path d="M44.9851 64.0553C44.9851 68.0414 43.4288 71.2699 41.5058 71.2699C39.5828 71.2699 38.0265 68.0414 38.0265 64.0553C38.0265 60.0693 39.5828 61.7204 41.5058 61.7204C43.4288 61.7204 44.9851 60.0693 44.9851 64.0553Z" fill="#F39D72"/>
<mask id="mask1_77_953" style="mask-type:luminance" maskUnits="userSpaceOnUse" x="38" y="61" width="7" height="11">
<path d="M44.9851 64.0553C44.9851 68.0414 43.4288 71.2699 41.5058 71.2699C39.5828 71.2699 38.0265 68.0414 38.0265 64.0553C38.0265 60.0693 39.5828 61.7204 41.5058 61.7204C43.4288 61.7204 44.9851 60.0693 44.9851 64.0553Z" fill="white"/>
</mask>
<g mask="url(#mask1_77_953)">
<path d="M41.5058 62.7305C43.3714 62.7305 44.8837 61.8608 44.8837 60.788C44.8837 59.7152 43.3714 58.8455 41.5058 58.8455C39.6403 58.8455 38.1279 59.7152 38.1279 60.788C38.1279 61.8608 39.6403 62.7305 41.5058 62.7305Z" fill="white"/>
</g>
<path d="M27.2024 51.798C28.9624 51.798 30.3892 50.4674 30.3892 48.8259C30.3892 47.1845 28.9624 45.8539 27.2024 45.8539C25.4424 45.8539 24.0156 47.1845 24.0156 48.8259C24.0156 50.4674 25.4424 51.798 27.2024 51.798Z" fill="white"/>
<path d="M55.5869 51.798C57.3469 51.798 58.7737 50.4674 58.7737 48.8259C58.7737 47.1845 57.3469 45.8539 55.5869 45.8539C53.8269 45.8539 52.4001 47.1845 52.4001 48.8259C52.4001 50.4674 53.8269 51.798 55.5869 51.798Z" fill="white"/>
<path d="M30.1863 46.7087C30.1863 46.7087 30.3385 47.1321 29.6559 47.6644C29.6559 47.6644 29.2892 46.1337 30.1863 45.7568C29.6442 45.5937 28.7353 45.8307 28.552 47.1516C28.4779 47.0972 28.4038 47.0467 28.3258 46.9962C27.7056 46.258 26.4886 43.7483 27.4637 42.3807C26.1414 42.6216 25.334 43.7133 25.0298 46.2269C24.9401 45.4227 22.8416 45.5315 22.8416 45.5315C22.8416 45.5315 24.4135 46.0288 24.511 47.7732C24.511 47.7732 24.5071 47.7809 24.5032 47.7848C24.4135 47.7304 23.5437 47.2331 22.8416 47.5478C23.2082 47.5478 23.7855 48.4569 23.9961 49.2883C23.9961 49.3272 23.9922 49.3621 23.9922 49.401C23.9922 50.9628 25.2638 52.2293 26.8318 52.2293C28.3999 52.2293 29.6715 50.9628 29.6715 49.401C29.6715 49.2728 29.6598 49.1446 29.6442 49.0203C30.3463 48.4453 30.6154 47.0272 30.1863 46.7126V46.7087Z" fill="#ED6E1B"/>
<path d="M26.8318 50.6986C26.118 50.6986 25.5368 50.1275 25.5251 49.4204V49.3466L24.9907 48.8221L25.7474 48.6706L26.0712 48.2044L26.04 47.6799C26.0127 47.202 25.9152 46.7786 25.7669 46.4017L26.469 47.9247L26.2194 46.4017C26.5276 47.0972 26.8903 47.6605 27.1516 47.9713L27.3077 48.1578L27.5144 48.286C27.5495 48.3093 27.5846 48.3326 27.6197 48.3598L28.3257 48.1733L28.119 49.2184C28.1307 49.2922 28.1346 49.3505 28.1346 49.3932C28.1346 50.1119 27.5495 50.6947 26.8279 50.6947L26.8318 50.6986Z" fill="#F2EC4A"/>
<path d="M59.156 46.7087C59.156 46.7087 59.3081 47.1321 58.6255 47.6644C58.6255 47.6644 58.2588 46.1337 59.156 45.7568C58.6138 45.5937 57.7049 45.8307 57.5216 47.1516C57.4475 47.0972 57.3734 47.0467 57.2954 46.9962C56.6752 46.258 55.4582 43.7483 56.4334 42.3807C55.1111 42.6216 54.3036 43.7133 53.9994 46.2269C53.9097 45.4227 51.8112 45.5315 51.8112 45.5315C51.8112 45.5315 53.3831 46.0288 53.4806 47.7732C53.4806 47.7732 53.4767 47.7809 53.4728 47.7848C53.3831 47.7304 52.5133 47.2331 51.8112 47.5478C52.1778 47.5478 52.7551 48.4569 52.9657 49.2883C52.9657 49.3272 52.9618 49.3621 52.9618 49.401C52.9618 50.9628 54.2334 52.2293 55.8015 52.2293C57.3695 52.2293 58.6411 50.9628 58.6411 49.401C58.6411 49.2728 58.6294 49.1446 58.6138 49.0203C59.3159 48.4453 59.585 47.0272 59.156 46.7126V46.7087Z" fill="#ED6E1B"/>
<path d="M55.8014 50.6986C55.0876 50.6986 54.5064 50.1275 54.4947 49.4204V49.3466L53.9603 48.8221L54.717 48.6706L55.0408 48.2044L55.0096 47.6799C54.9823 47.202 54.8848 46.7786 54.7365 46.4017L55.4387 47.9247L55.189 46.4017C55.4972 47.0972 55.8599 47.6605 56.1213 47.9713L56.2773 48.1578L56.484 48.286C56.5191 48.3093 56.5542 48.3326 56.5893 48.3598L57.2953 48.1733L57.0886 49.2184C57.1003 49.2922 57.1042 49.3505 57.1042 49.3932C57.1042 50.1119 56.5191 50.6947 55.7975 50.6947L55.8014 50.6986Z" fill="#F2EC4A"/>
</svg>
