<svg width="276" height="363" viewBox="0 0 276 363" fill="none" xmlns="http://www.w3.org/2000/svg">
<g clip-path="url(#clip0_75_558)">
<path d="M73.72 374.04L72.96 373.46C57.86 361.98 49.88 343.29 49.23 317.93C48.76 299.64 51.98 278.16 59.05 252.3C54.22 248.92 50.52 244.1 48.52 238.52L1.66 107.96C-2.38 96.71 1.12 84.03 10.16 76.41L8.85 71.59C8.41 69.95 9.38 68.27 11.01 67.83L11.37 67.73H11.81C12.46 67.73 13.06 67.93 13.57 68.28L13.31 67.32C13.09 66.53 13.2 65.71 13.61 65C14.02 64.29 14.68 63.78 15.47 63.56L15.83 63.46H16.27C17.65 63.46 18.87 64.38 19.23 65.72L20.62 70.83C20.62 70.83 20.72 70.8 20.76 70.79L19.91 67.65C19.69 66.86 19.8 66.04 20.21 65.32C20.62 64.61 21.28 64.1 22.07 63.89L22.43 63.79H22.86C24.24 63.79 25.46 64.71 25.82 66.05L26.83 69.75C27.42 69.71 28.02 69.69 28.61 69.69C40.65 69.69 51.47 77.3 55.54 88.64L60.82 103.34C69.91 64.31 102.83 33.98 144.63 27.07C143.36 25.04 140.86 22.59 138.88 21.09L138.2 17.68L141.49 16.14C141.68 16.2 145.18 17.39 148.72 19.42C150.99 14.8 155.98 10.35 163.61 6.14001C170.53 2.33001 177.11 0.10001 177.39 0.0100098L180.98 1.85001L179.99 4.96001C177.8 6.60001 173.46 10.3 169.96 14.46C174.42 12.2 178.11 10.9 178.37 10.81L181.63 12.35L181.05 15.72C180.98 15.78 174.96 20.54 171.29 25.93C196.52 27.91 219.94 38.49 237.65 56C256.5 74.64 266.88 99.17 266.88 125.09C266.88 151.01 257.27 173.7 239.75 192.05C246.19 197.63 250.69 204.12 253.16 211.37L253.35 211.93C267.49 253.32 296.92 339.43 252.19 373.46L251.43 374.04H73.72Z" fill="white"/>
<path d="M250.44 212.28C247.64 204.08 242.28 197.52 235.51 192.27C253.15 174.89 264 151.2 264 125.09C264 72.9899 220.75 30.5299 166.61 28.4999C169.65 21.0099 179.26 13.4899 179.26 13.4899C179.26 13.4899 168.95 17.0699 162.04 22.8099C163.98 13.3799 178.25 2.68994 178.25 2.68994C178.25 2.68994 152.11 11.4499 150.21 23.8099C146.29 20.7399 140.55 18.8199 140.55 18.8199C140.55 18.8199 148.42 24.7299 148.25 29.3799C102.66 35.5199 66.83 70.5299 61.75 114.37L52.85 89.5799C48.61 77.7799 36.65 70.9699 24.71 72.8099L23.07 66.7699C23.04 66.6499 22.91 66.5799 22.79 66.6099C22.67 66.6399 22.6 66.7699 22.63 66.8899L24.26 72.8799C22.8 73.1299 21.33 73.5099 19.88 74.0299C19.47 74.1799 19.06 74.3299 18.67 74.4999L16.48 66.4399C16.45 66.3199 16.32 66.2499 16.2 66.2799C16.08 66.3099 16.01 66.4399 16.04 66.5599L18.24 74.6499C18.24 74.6499 18.26 74.6699 18.26 74.6799C16.66 75.3799 15.17 76.2199 13.79 77.1899L12.03 70.7199C12 70.5999 11.87 70.5299 11.75 70.5599C11.63 70.5899 11.56 70.7199 11.59 70.8399L13.39 77.4799C4.38 84.0499 0.37 95.9899 4.33 107.01L51.19 237.57C53.3 243.46 57.34 248.1 62.34 251.05C50.54 293.37 42.63 346.83 74.67 371.21H250.43C293.74 338.26 264.06 252.18 250.43 212.28H250.44Z" fill="#BEA483"/>
<path d="M253.03 127.22C252.65 114.66 249.57 105.3 244.3 98.37C227.89 69.79 192.36 52.6 171 68.87C165.93 72.73 159.02 72.83 153.95 68.97C153.68 68.77 153.41 68.58 153.15 68.39C152.98 68.27 152.81 68.14 152.64 68.02C152.19 67.71 151.73 67.41 151.27 67.13C151.22 67.1 151.18 67.07 151.14 67.04C150.63 66.73 150.12 66.44 149.6 66.16C149.43 66.07 149.26 65.99 149.09 65.91C148.73 65.73 148.38 65.55 148.02 65.38C147.81 65.28 147.6 65.2 147.39 65.1C147.07 64.96 146.74 64.82 146.41 64.69C146.18 64.6 145.96 64.52 145.73 64.43C145.41 64.31 145.09 64.2 144.77 64.09C144.54 64.01 144.3 63.94 144.07 63.86C143.75 63.76 143.43 63.67 143.1 63.58C142.86 63.51 142.63 63.45 142.39 63.39C142.06 63.31 141.73 63.23 141.41 63.16C141.17 63.11 140.93 63.05 140.69 63.01C140.35 62.94 140.01 62.89 139.67 62.83C139.44 62.79 139.2 62.75 138.97 62.72C138.61 62.67 138.24 62.63 137.87 62.58C137.66 62.56 137.45 62.53 137.24 62.51C136.79 62.47 136.34 62.44 135.89 62.41C135.76 62.41 135.62 62.39 135.49 62.38C134.91 62.35 134.32 62.34 133.73 62.34C133.57 62.34 133.41 62.34 133.26 62.34C132.83 62.34 132.39 62.35 131.96 62.37C131.74 62.38 131.52 62.4 131.3 62.41C130.93 62.43 130.55 62.46 130.17 62.49C129.93 62.51 129.68 62.54 129.44 62.57C129.09 62.61 128.73 62.65 128.38 62.7C128.13 62.73 127.87 62.77 127.62 62.81C127.27 62.86 126.92 62.92 126.57 62.98C126.31 63.02 126.06 63.07 125.8 63.12C125.45 63.19 125.1 63.26 124.75 63.34C124.49 63.4 124.24 63.45 123.98 63.51C123.62 63.59 123.27 63.68 122.91 63.77C122.66 63.83 122.41 63.9 122.16 63.97C121.79 64.07 121.42 64.18 121.05 64.29C120.82 64.36 120.59 64.43 120.35 64.5C119.93 64.63 119.5 64.78 119.08 64.92C118.9 64.98 118.73 65.04 118.55 65.1C117.95 65.31 117.35 65.54 116.75 65.77C116.65 65.81 116.54 65.86 116.44 65.9C115.95 66.1 115.45 66.3 114.96 66.51C114.75 66.6 114.54 66.7 114.33 66.79C113.94 66.96 113.56 67.13 113.18 67.32C112.94 67.43 112.71 67.55 112.47 67.66C112.11 67.83 111.75 68.01 111.4 68.19C111.16 68.31 110.91 68.44 110.67 68.57C110.32 68.75 109.98 68.94 109.64 69.13C109.39 69.27 109.14 69.41 108.9 69.55C108.56 69.74 108.23 69.94 107.89 70.14C107.64 70.29 107.4 70.43 107.15 70.58C106.81 70.79 106.48 71 106.14 71.21C105.9 71.36 105.66 71.51 105.42 71.67C105.07 71.89 104.73 72.13 104.39 72.36C104.17 72.51 103.94 72.66 103.72 72.81C103.35 73.07 102.98 73.33 102.61 73.6C102.42 73.74 102.23 73.87 102.05 74C101.52 74.39 100.98 74.79 100.46 75.2C100.44 75.22 100.42 75.23 100.4 75.24C99.85 75.67 99.31 76.1 98.77 76.55C98.6 76.69 98.43 76.84 98.26 76.98C97.89 77.29 97.53 77.6 97.17 77.91C96.97 78.09 96.76 78.27 96.56 78.45C96.24 78.74 95.92 79.02 95.6 79.32C95.39 79.52 95.17 79.72 94.96 79.92C94.66 80.21 94.35 80.49 94.05 80.79C93.84 81 93.62 81.21 93.41 81.42C93.12 81.71 92.83 82.01 92.54 82.31C92.33 82.53 92.12 82.74 91.91 82.96C91.62 83.26 91.34 83.57 91.06 83.88C90.86 84.1 90.66 84.32 90.45 84.54C90.16 84.86 89.88 85.18 89.6 85.5C89.41 85.72 89.22 85.94 89.03 86.16C88.73 86.51 88.44 86.86 88.15 87.22C87.99 87.42 87.82 87.62 87.65 87.82C87.3 88.26 86.95 88.71 86.6 89.16C86.51 89.28 86.41 89.4 86.32 89.52C85.89 90.09 85.46 90.68 85.04 91.26C84.93 91.42 84.82 91.58 84.71 91.74C84.41 92.17 84.1 92.61 83.81 93.04C83.66 93.27 83.51 93.49 83.36 93.72C83.11 94.1 82.86 94.48 82.62 94.86C82.46 95.11 82.31 95.37 82.15 95.62C81.93 95.99 81.7 96.35 81.48 96.72C81.32 96.99 81.17 97.25 81.02 97.52C80.81 97.89 80.6 98.25 80.4 98.62C80.25 98.89 80.1 99.16 79.96 99.44C79.76 99.81 79.57 100.18 79.37 100.56C79.23 100.83 79.09 101.11 78.95 101.39C78.76 101.77 78.57 102.16 78.39 102.55C78.26 102.82 78.13 103.09 78.01 103.36C77.82 103.77 77.64 104.19 77.46 104.6C77.35 104.85 77.24 105.1 77.13 105.36C76.93 105.84 76.74 106.32 76.55 106.8C76.47 107 76.39 107.19 76.32 107.38C76.06 108.06 75.81 108.74 75.57 109.43C75.52 109.56 75.48 109.69 75.44 109.83C75.25 110.39 75.06 110.95 74.89 111.51C74.81 111.76 74.74 112.01 74.67 112.26C74.54 112.71 74.4 113.16 74.28 113.61C74.2 113.89 74.13 114.18 74.06 114.46C73.95 114.88 73.84 115.31 73.74 115.73C73.67 116.03 73.6 116.33 73.53 116.63C73.44 117.05 73.35 117.46 73.26 117.88C73.2 118.18 73.14 118.49 73.08 118.8C73 119.22 72.93 119.64 72.86 120.06C72.81 120.37 72.76 120.67 72.71 120.98C72.65 121.41 72.59 121.83 72.53 122.26C72.49 122.56 72.45 122.87 72.42 123.17C72.37 123.62 72.33 124.06 72.29 124.51C72.26 124.8 72.23 125.08 72.21 125.37C72.17 125.86 72.15 126.36 72.12 126.85C72.11 127.1 72.09 127.34 72.08 127.59C72.05 128.33 72.04 129.07 72.04 129.82C72.04 179.74 112.65 220.36 162.58 220.36C212.51 220.36 253.12 179.75 253.12 129.82C253.12 128.94 253.09 128.06 253.05 127.19L253.03 127.22Z" fill="#E3CCB5"/>
<path d="M153.65 123.7C153.65 106.94 134.28 93.35 110.4 93.35C97.43 93.35 85.81 97.36 77.88 103.7C77.74 104.01 77.6 104.31 77.47 104.62C77.36 104.87 77.25 105.12 77.14 105.38C76.94 105.86 76.75 106.34 76.56 106.82C76.48 107.02 76.4 107.21 76.33 107.4C76.07 108.08 75.82 108.76 75.58 109.45C75.53 109.58 75.49 109.71 75.45 109.85C75.26 110.41 75.07 110.97 74.9 111.53C74.82 111.78 74.75 112.03 74.68 112.28C74.55 112.73 74.41 113.18 74.29 113.63C74.21 113.91 74.14 114.2 74.07 114.48C73.96 114.9 73.85 115.33 73.75 115.75C73.68 116.05 73.61 116.35 73.54 116.65C73.45 117.07 73.36 117.48 73.27 117.9C73.21 118.2 73.15 118.51 73.09 118.82C73.01 119.24 72.94 119.66 72.87 120.08C72.82 120.39 72.77 120.69 72.72 121C72.66 121.43 72.6 121.85 72.54 122.28C72.5 122.58 72.46 122.89 72.43 123.19C72.38 123.64 72.34 124.08 72.3 124.53C72.27 124.82 72.24 125.1 72.22 125.39C72.18 125.88 72.16 126.38 72.13 126.87C72.12 127.12 72.1 127.36 72.09 127.61C72.06 128.35 72.05 129.09 72.05 129.84C72.05 132.67 72.2 135.46 72.45 138.22C79.79 147.64 94.04 144.51 110.43 144.51C134.32 144.51 153.68 140.44 153.68 123.69L153.65 123.7Z" fill="#9A856A"/>
<path d="M253.03 127.22C252.73 117.42 250.78 109.57 247.44 103.3C239.53 97.19 228.13 93.35 215.45 93.35C191.56 93.35 172.2 106.94 172.2 123.7C172.2 140.46 191.57 144.52 215.45 144.52C231.27 144.52 245.08 148.08 252.62 139.19C252.94 136.12 253.1 133 253.1 129.85C253.1 128.97 253.07 128.09 253.03 127.22Z" fill="#9A856A"/>
<path d="M157.76 147.91L151.98 141.28C150.85 139.99 151.77 137.97 153.49 137.97H171.64C173.36 137.97 174.27 139.99 173.15 141.28L167.37 147.91C164.83 150.82 160.31 150.82 157.78 147.91H157.76Z" fill="#574938"/>
<path d="M177.46 160.4C173.8 165.95 165.59 166.76 162.56 166.76C159.84 166.76 151.37 165.98 147.66 160.4" stroke="#231815" stroke-width="2" stroke-linecap="round" stroke-linejoin="round"/>
<path d="M109.26 127.65C112.92 122.1 121.13 121.29 124.16 121.29C126.88 121.29 135.35 122.07 139.06 127.65" stroke="#231815" stroke-width="2" stroke-linecap="round" stroke-linejoin="round"/>
<path d="M182.84 127.65C186.5 122.1 194.71 121.29 197.74 121.29C200.46 121.29 208.93 122.07 212.64 127.65" stroke="#231815" stroke-width="2" stroke-linecap="round" stroke-linejoin="round"/>
</g>
<defs>
<clipPath id="clip0_75_558">
<rect width="275.96" height="374.04" fill="white"/>
</clipPath>
</defs>
</svg>
