<svg width="83" height="89" viewBox="0 0 83 89" fill="none" xmlns="http://www.w3.org/2000/svg">
<path d="M81.1924 49.0824C81.1924 59.2262 76.9564 68.4299 70.0757 75.1821H13.1623C6.2856 68.4299 2.04956 59.2262 2.04956 49.0824C2.04956 30.139 16.8289 14.4745 36.0392 11.8987C36.1095 10.0922 33.0397 7.79224 33.0397 7.79224C33.0397 7.79224 35.2747 8.54205 36.8038 9.73475C37.5332 5.00278 47.425 1.63446 47.7332 1.53345C47.5109 1.7005 42.1593 5.76036 41.4181 9.34625C44.1135 7.11236 48.135 5.7254 48.135 5.7254C48.135 5.7254 44.3904 8.64695 43.2007 11.5568C64.3224 12.3455 81.1924 28.8414 81.1924 49.0824Z" fill="#BEA483"/>
<path d="M41.6093 88.0998C30.6447 88.0998 20.1521 83.799 12.741 76.2893H12.7137L12.39 75.9746C5.01008 68.7368 0.941772 59.1873 0.941772 49.094C0.941772 39.7117 4.52251 30.6634 11.0248 23.616C17.1682 16.957 25.5077 12.5125 34.6155 11.0051C34.1201 10.2126 33.145 9.26464 32.3688 8.68577L31.9397 7.3299L33.3868 6.76268C33.4609 6.78599 34.83 7.24831 36.207 8.03697C38.4849 3.46428 46.9882 0.628206 47.386 0.5L48.6225 1.01282L48.4041 2.41921C47.3041 3.26226 45.74 4.63368 44.4918 6.11388C46.2276 5.23586 47.663 4.73469 47.7644 4.69973L49.2271 5.27859L48.8097 6.60728C48.7824 6.63059 46.4343 8.47986 45.0028 10.5778C54.8439 11.347 63.9791 15.4574 70.887 22.2601C78.2396 29.5018 82.2885 39.0318 82.2885 49.1018C82.2885 59.1718 78.224 68.7406 70.8441 75.9824L70.5204 76.3009H70.4619C63.0547 83.8107 52.5621 88.1114 41.5976 88.1114L41.6093 88.0998Z" fill="white"/>
<path d="M81.1924 49.094C81.1924 59.2339 76.9564 68.4414 70.0796 75.1898H70.0055C63.0391 82.4353 52.8976 87.0003 41.6093 87.0003C30.321 87.0003 20.1795 82.4353 13.2091 75.1898H13.1662C6.28559 68.4414 2.04956 59.2339 2.04956 49.094C2.04956 30.1467 16.8328 14.4822 36.0431 11.9064C36.1095 10.0999 33.0397 7.80381 33.0397 7.80381C33.0397 7.80381 35.2747 8.54974 36.8038 9.74245C37.5371 5.01436 47.429 1.64215 47.7371 1.54114C47.5148 1.71208 42.1632 5.77194 41.4221 9.35783C44.1135 7.12393 48.135 5.73309 48.135 5.73309C48.135 5.73309 44.3904 8.65852 43.2046 11.5684C64.3224 12.3571 81.1924 28.8529 81.1924 49.094Z" fill="#BEA483"/>
<mask id="mask0_77_988" style="mask-type:luminance" maskUnits="userSpaceOnUse" x="2" y="11" width="80" height="76">
<path d="M41.621 86.8332C63.452 86.8332 81.1495 69.9872 81.1495 49.2066C81.1495 28.4261 63.452 11.5801 41.621 11.5801C19.79 11.5801 2.09247 28.4261 2.09247 49.2066C2.09247 69.9872 19.79 86.8332 41.621 86.8332Z" fill="white"/>
</mask>
<g mask="url(#mask0_77_988)">
<path d="M75.8993 83.0415C74.8071 79.8557 72.7164 77.3071 70.0757 75.2675C76.9564 68.5153 81.1885 59.3116 81.1885 49.1678C81.1885 28.9268 64.3185 12.4309 43.2007 11.6423C44.3865 8.73237 48.1349 5.81083 48.1349 5.81083C48.1349 5.81083 44.1134 7.20167 41.4181 9.43168C42.1748 5.76809 47.741 1.61499 47.741 1.61499C47.741 1.61499 37.5448 5.01828 36.8037 9.82018C35.2747 8.62748 33.0358 7.88155 33.0358 7.88155C33.0358 7.88155 36.1055 10.1776 36.0392 11.9842C16.8288 14.5599 2.04953 30.2244 2.04953 49.1678C2.04953 59.3116 6.28557 68.5153 13.1623 75.2675C10.5255 77.3071 8.43089 79.8557 7.33873 83.0415C2.01833 98.5389 -9.5547 131.985 7.33873 144.786H75.8954C92.7888 131.985 81.2119 98.5427 75.8954 83.0415H75.8993Z" fill="#BEA483"/>
<path d="M76.9056 49.9953C76.7574 45.1157 75.556 41.4793 73.5004 38.787C67.0996 27.6835 53.2408 21.0052 44.9091 27.3261C42.9315 28.8257 40.2362 28.8646 38.2586 27.365C38.1533 27.2873 38.048 27.2134 37.9466 27.1396C37.8803 27.093 37.814 27.0425 37.7477 26.9959C37.5721 26.8755 37.3927 26.7589 37.2133 26.6501C37.1938 26.6385 37.1782 26.6268 37.1626 26.6152C36.9636 26.4947 36.7647 26.3821 36.5619 26.2733C36.4956 26.2383 36.4293 26.2072 36.363 26.1761C36.2225 26.1062 36.086 26.0363 35.9456 25.9702C35.8637 25.9314 35.7818 25.9003 35.6999 25.8615C35.575 25.8071 35.4463 25.7527 35.3176 25.7022C35.2279 25.6672 35.1421 25.6361 35.0524 25.6012C34.9275 25.5545 34.8027 25.5118 34.6779 25.4691C34.5882 25.438 34.4946 25.4108 34.4049 25.3797C34.28 25.3409 34.1552 25.3059 34.0265 25.2709C33.9329 25.2437 33.8432 25.2204 33.7496 25.1971C33.6208 25.166 33.4921 25.135 33.3673 25.1078C33.2737 25.0883 33.1801 25.065 33.0865 25.0495C32.9538 25.0223 32.8212 25.0029 32.6886 24.9796C32.5989 24.964 32.5053 24.9485 32.4156 24.9368C32.2751 24.9174 32.1308 24.9019 31.9865 24.8824C31.9046 24.8747 31.8227 24.863 31.7408 24.8552C31.5652 24.8397 31.3897 24.828 31.2142 24.8164C31.1635 24.8164 31.1089 24.8086 31.0582 24.8047C30.8319 24.7931 30.6018 24.7892 30.3717 24.7892C30.3093 24.7892 30.2468 24.7892 30.1883 24.7892C30.0206 24.7892 29.849 24.7931 29.6813 24.8008C29.5954 24.8047 29.5096 24.8125 29.4238 24.8164C29.2795 24.8242 29.1313 24.8358 28.9831 24.8475C28.8894 24.8552 28.7919 24.8669 28.6983 24.8785C28.5618 24.8941 28.4214 24.9096 28.2848 24.929C28.1873 24.9407 28.0859 24.9562 27.9884 24.9718C27.8519 24.9912 27.7154 25.0145 27.5788 25.0378C27.4774 25.0534 27.3799 25.0728 27.2785 25.0922C27.142 25.1194 27.0055 25.1466 26.8689 25.1777C26.7675 25.201 26.67 25.2204 26.5686 25.2437C26.4282 25.2748 26.2916 25.3098 26.1512 25.3447C26.0537 25.3681 25.9562 25.3953 25.8587 25.4224C25.7144 25.4613 25.57 25.504 25.4257 25.5468C25.336 25.574 25.2463 25.6012 25.1527 25.6284C24.9889 25.6789 24.8211 25.7371 24.6573 25.7915C24.5871 25.8148 24.5208 25.8381 24.4506 25.8615C24.2165 25.943 23.9825 26.0324 23.7485 26.1218C23.7095 26.1373 23.6666 26.1567 23.6276 26.1723C23.4364 26.25 23.2414 26.3277 23.0503 26.4092C22.9684 26.4442 22.8864 26.4831 22.8045 26.518C22.6524 26.5841 22.5042 26.6501 22.356 26.7239C22.2623 26.7667 22.1726 26.8133 22.079 26.856C21.9386 26.9221 21.7982 26.992 21.6617 27.0619C21.568 27.1086 21.4705 27.1591 21.3769 27.2096C21.2404 27.2795 21.1078 27.3533 20.9752 27.4271C20.8776 27.4815 20.7801 27.5359 20.6865 27.5903C20.5539 27.6641 20.4252 27.7418 20.2926 27.8195C20.195 27.8778 20.1014 27.9322 20.0039 27.9905C19.8713 28.072 19.7426 28.1536 19.61 28.2352C19.5163 28.2935 19.4227 28.3518 19.3291 28.4139C19.1926 28.4994 19.06 28.5926 18.9273 28.682C18.8415 28.7403 18.7518 28.7985 18.666 28.8568C18.5217 28.9578 18.3774 29.0588 18.233 29.1637C18.1589 29.2181 18.0848 29.2686 18.0146 29.3191C17.8079 29.4707 17.5972 29.6261 17.3944 29.7853C17.3866 29.7931 17.3788 29.797 17.371 29.8009C17.1565 29.9679 16.9459 30.135 16.7352 30.3098C16.6689 30.3642 16.6026 30.4225 16.5363 30.4769C16.392 30.5973 16.2515 30.7178 16.1111 30.8382C16.0331 30.9081 15.9512 30.978 15.8732 31.048C15.7484 31.1606 15.6236 31.2694 15.4987 31.386C15.4168 31.4637 15.331 31.5414 15.2491 31.6191C15.1321 31.7317 15.0112 31.8405 14.8941 31.9571C14.8122 32.0387 14.7264 32.1202 14.6445 32.2018C14.5314 32.3145 14.4183 32.431 14.3052 32.5476C14.2232 32.6331 14.1413 32.7147 14.0594 32.8001C13.9463 32.9167 13.8371 33.0371 13.7279 33.1576C13.6499 33.243 13.5718 33.3285 13.4899 33.414C13.3768 33.5383 13.2676 33.6626 13.1584 33.7869C13.0843 33.8724 13.0102 33.9579 12.9361 34.0433C12.819 34.1793 12.7059 34.3153 12.5928 34.4552C12.5304 34.5329 12.4641 34.6106 12.3978 34.6883C12.2613 34.8592 12.1247 35.034 11.9882 35.2089C11.9531 35.2555 11.9141 35.3021 11.879 35.3487C11.7113 35.5702 11.5435 35.7994 11.3797 36.0247C11.3368 36.0869 11.2939 36.149 11.251 36.2112C11.134 36.3782 11.0131 36.5492 10.8999 36.7162C10.8414 36.8056 10.7829 36.8911 10.7244 36.9804C10.6269 37.1281 10.5294 37.2757 10.4358 37.4233C10.3734 37.5204 10.3149 37.6215 10.2525 37.7186C10.1666 37.8623 10.0769 38.0022 9.99111 38.1459C9.9287 38.2508 9.87019 38.3518 9.81168 38.4567C9.72977 38.6005 9.64786 38.7403 9.56985 38.8841C9.51134 38.989 9.45283 39.0939 9.39822 39.2027C9.32021 39.3464 9.2461 39.4902 9.16809 39.6378C9.11348 39.7427 9.05887 39.8515 9.00426 39.9602C8.93015 40.1079 8.85604 40.2594 8.78583 40.4109C8.73512 40.5158 8.68442 40.6207 8.63761 40.7256C8.5635 40.8849 8.49329 41.0481 8.42308 41.2073C8.38017 41.3045 8.33726 41.4016 8.29436 41.5026C8.21635 41.6891 8.14223 41.8756 8.06812 42.0621C8.03692 42.1398 8.00571 42.2136 7.97841 42.2874C7.87699 42.5516 7.77948 42.8158 7.68587 43.0838C7.66636 43.1343 7.65076 43.1848 7.63516 43.2392C7.56105 43.4568 7.48694 43.6743 7.42063 43.8919C7.38942 43.989 7.36212 44.0862 7.33481 44.1833C7.28411 44.3581 7.2295 44.5329 7.18269 44.7078C7.15149 44.8165 7.12418 44.9292 7.09688 45.038C7.05397 45.2012 7.01106 45.3682 6.97206 45.5314C6.94475 45.6479 6.91745 45.7645 6.89015 45.881C6.85504 46.0442 6.81994 46.2035 6.78483 46.3667C6.76143 46.4832 6.73802 46.6037 6.71462 46.7241C6.68342 46.8873 6.65611 47.0504 6.62881 47.2136C6.6093 47.334 6.5898 47.4506 6.5703 47.571C6.5469 47.7381 6.52349 47.9013 6.50009 48.0683C6.48449 48.1849 6.46888 48.3053 6.45718 48.4219C6.43768 48.5967 6.42208 48.7676 6.40647 48.9424C6.39477 49.0551 6.38307 49.1639 6.37527 49.2766C6.35967 49.4669 6.35187 49.6612 6.34016 49.8516C6.33626 49.9487 6.32846 50.0419 6.32456 50.139C6.31286 50.4265 6.30896 50.714 6.30896 51.0054C6.30896 70.3995 22.1492 86.1805 41.6248 86.1805C61.1005 86.1805 76.9407 70.4034 76.9407 51.0054C76.9407 50.6635 76.929 50.3216 76.9134 49.9836L76.9056 49.9953Z" fill="#E3CCB5"/>
<path d="M38.1455 48.6277C38.1455 42.1164 30.5901 36.8367 21.2755 36.8367C16.2165 36.8367 11.684 38.3946 8.59081 40.8577C8.5362 40.9781 8.4816 41.0947 8.43089 41.2151C8.38798 41.3122 8.34508 41.4094 8.30217 41.5104C8.22416 41.6968 8.15005 41.8833 8.07594 42.0698C8.04473 42.1475 8.01353 42.2213 7.98622 42.2951C7.88481 42.5593 7.78729 42.8235 7.69368 43.0916C7.67418 43.1421 7.65857 43.1926 7.64297 43.247C7.56886 43.4645 7.49475 43.6821 7.42844 43.8997C7.39723 43.9968 7.36993 44.0939 7.34263 44.191C7.29192 44.3659 7.23731 44.5407 7.1905 44.7155C7.1593 44.8243 7.13199 44.937 7.10469 45.0457C7.06178 45.2089 7.01888 45.376 6.97987 45.5391C6.95257 45.6557 6.92526 45.7723 6.89796 45.8888C6.86285 46.052 6.82775 46.2113 6.79264 46.3744C6.76924 46.491 6.74584 46.6114 6.72243 46.7319C6.69123 46.895 6.66392 47.0582 6.63662 47.2214C6.61712 47.3418 6.59761 47.4584 6.57811 47.5788C6.55471 47.7458 6.5313 47.909 6.5079 48.0761C6.4923 48.1926 6.4767 48.3131 6.46499 48.4296C6.44549 48.6044 6.42989 48.7754 6.41429 48.9502C6.40259 49.0629 6.39088 49.1717 6.38308 49.2843C6.36748 49.4747 6.35968 49.6689 6.34798 49.8593C6.34408 49.9564 6.33627 50.0497 6.33237 50.1468C6.32067 50.4343 6.31677 50.7218 6.31677 51.0132C6.31677 52.1126 6.37528 53.1966 6.4728 54.2688C9.33582 57.9285 14.8942 56.7125 21.2872 56.7125C30.6057 56.7125 38.1572 55.1313 38.1572 48.6239L38.1455 48.6277Z" fill="#9A856A"/>
<path d="M76.9056 49.9953C76.7886 46.1879 76.028 43.1382 74.7252 40.7023C71.6398 38.3285 67.1932 36.8367 62.2472 36.8367C52.9287 36.8367 45.3772 42.1164 45.3772 48.6277C45.3772 55.1391 52.9326 56.7164 62.2472 56.7164C68.4179 56.7164 73.8047 58.0995 76.7457 54.6457C76.8705 53.453 76.9329 52.2408 76.9329 51.017C76.9329 50.6752 76.9212 50.3333 76.9056 49.9953Z" fill="#9A856A"/>
<path d="M39.7487 58.0335L37.4942 55.4577C37.0534 54.9565 37.4122 54.1718 38.0831 54.1718H45.1627C45.8336 54.1718 46.1886 54.9565 45.7517 55.4577L43.4972 58.0335C42.5064 59.164 40.7433 59.164 39.7565 58.0335H39.7487Z" fill="#574938"/>
<path d="M47.4289 62.8859C46.0013 65.0421 42.7989 65.3567 41.617 65.3567C40.5561 65.3567 37.2523 65.0537 35.8052 62.8859" stroke="#231815" stroke-width="2" stroke-linecap="round" stroke-linejoin="round"/>
<path d="M26.6934 52.9363C29.1621 52.9363 31.1635 51.3361 31.1635 49.3621C31.1635 47.3881 29.1621 45.7878 26.6934 45.7878C24.2246 45.7878 22.2233 47.3881 22.2233 49.3621C22.2233 51.3361 24.2246 52.9363 26.6934 52.9363Z" fill="white"/>
<path d="M27.3097 50.9277C28.8672 50.9277 30.1298 49.8354 30.1298 48.4879C30.1298 47.1404 28.8672 46.0481 27.3097 46.0481C25.7522 46.0481 24.4896 47.1404 24.4896 48.4879C24.4896 49.8354 25.7522 50.9277 27.3097 50.9277Z" fill="#231815"/>
<path d="M56.0492 52.9363C58.518 52.9363 60.5193 51.3361 60.5193 49.3621C60.5193 47.3881 58.518 45.7878 56.0492 45.7878C53.5805 45.7878 51.5792 47.3881 51.5792 49.3621C51.5792 51.3361 53.5805 52.9363 56.0492 52.9363Z" fill="white"/>
<path d="M55.4836 50.9277C57.0411 50.9277 58.3038 49.8354 58.3038 48.4879C58.3038 47.1404 57.0411 46.0481 55.4836 46.0481C53.9261 46.0481 52.6635 47.1404 52.6635 48.4879C52.6635 49.8354 53.9261 50.9277 55.4836 50.9277Z" fill="#231815"/>
</g>
<path d="M41.1607 69.6848C47.4317 69.6848 52.5153 67.5314 52.5153 64.8751C52.5153 62.2188 47.4317 60.0654 41.1607 60.0654C34.8897 60.0654 29.8061 62.2188 29.8061 64.8751C29.8061 67.5314 34.8897 69.6848 41.1607 69.6848Z" fill="#E3CCB5"/>
<path d="M34.5258 63.5386H48.7161" stroke="#231815" stroke-width="2" stroke-miterlimit="10" stroke-linecap="round"/>
<path d="M27.3175 51.798C29.0775 51.798 30.5043 50.4674 30.5043 48.8259C30.5043 47.1845 29.0775 45.8539 27.3175 45.8539C25.5575 45.8539 24.1307 47.1845 24.1307 48.8259C24.1307 50.4674 25.5575 51.798 27.3175 51.798Z" fill="white"/>
<path d="M55.7021 51.798C57.4621 51.798 58.8889 50.4674 58.8889 48.8259C58.8889 47.1845 57.4621 45.8539 55.7021 45.8539C53.9421 45.8539 52.5153 47.1845 52.5153 48.8259C52.5153 50.4674 53.9421 51.798 55.7021 51.798Z" fill="white"/>
<path d="M27.2941 51.6464C28.8516 51.6464 30.1142 50.5541 30.1142 49.2066C30.1142 47.8592 28.8516 46.7668 27.2941 46.7668C25.7366 46.7668 24.474 47.8592 24.474 49.2066C24.474 50.5541 25.7366 51.6464 27.2941 51.6464Z" fill="#231815"/>
<path d="M55.468 51.6464C57.0255 51.6464 58.2881 50.5541 58.2881 49.2066C58.2881 47.8592 57.0255 46.7668 55.468 46.7668C53.9105 46.7668 52.6479 47.8592 52.6479 49.2066C52.6479 50.5541 53.9105 51.6464 55.468 51.6464Z" fill="#231815"/>
</svg>
