<svg width="168" height="135" viewBox="0 0 168 135" fill="none" xmlns="http://www.w3.org/2000/svg">
<path d="M52.7655 134.825L52.4925 134.617C46.3388 129.949 43.4865 121.975 44.0182 110.912C44.4708 101.451 47.2585 91.5414 49.4606 84.5985C47.4022 83.8318 45.6778 82.3845 44.5319 80.4428C37.9292 69.2582 25.7512 48.6946 24.0916 45.8931C20.3627 45.1659 17.0183 43.5931 14.6581 41.4544C12.1327 39.1652 11.0083 36.4926 11.4969 33.9275C12.2836 29.7862 17.1117 27.0061 23.5096 27.0061C24.907 27.0061 26.3332 27.1423 27.7557 27.411C34.8721 28.7544 40.2103 33.057 40.5875 37.7107L47.4022 49.2177C47.2764 48.0319 47.2154 46.8353 47.2154 45.6387C47.2154 36.987 50.5131 28.6433 56.5015 22.1483C62.1594 16.0078 69.8362 11.9095 78.2279 10.5195C77.7717 9.7922 76.8736 8.91449 76.1587 8.37711L76.0222 7.17698L77.0963 6.60377C77.1646 6.62527 78.4255 7.05159 79.6936 7.77884C81.7124 3.69836 89.0731 1.13329 89.9892 0.825195L91.2537 1.46646L90.9232 2.60212C90.1365 3.18965 88.5774 4.51517 87.3201 6.0055C88.9222 5.19585 90.2478 4.73013 90.3412 4.69788L91.48 5.26034L91.3004 6.45689C91.2752 6.47839 89.1126 8.18366 87.7943 10.1146C96.8577 10.824 105.271 14.6143 111.633 20.8872C118.404 27.565 122.133 36.3529 122.133 45.6387C122.133 46.3552 122.112 47.0682 122.065 47.7811L128.032 37.7107C128.413 33.057 133.747 28.7544 140.864 27.411C142.286 27.1423 143.716 27.0061 145.11 27.0061C151.511 27.0061 156.339 29.7862 157.123 33.9275C157.611 36.4926 156.487 39.1652 153.961 41.4544C151.601 43.5896 148.257 45.1623 144.528 45.8931C142.868 48.6982 130.69 69.2582 124.088 80.4428C123.074 82.1588 121.576 83.5094 119.802 84.3298C122.022 91.2978 124.849 101.282 125.323 110.794C125.88 121.914 123.031 129.931 116.856 134.617L116.583 134.825H52.7547H52.7655Z" fill="white"/>
<path d="M156.131 34.1175C155.265 29.557 148.519 27.0026 141.061 28.407C134.254 29.6931 129.21 33.8345 129.041 38.0153L120.377 52.6462C120.865 50.3821 121.124 48.0391 121.124 45.6353C121.124 26.9704 105.587 11.7591 86.1382 11.0318C87.2303 8.34855 90.6825 5.65451 90.6825 5.65451C90.6825 5.65451 86.9788 6.93704 84.4965 8.9934C85.1935 5.6151 90.3197 1.7854 90.3197 1.7854C90.3197 1.7854 80.9294 4.92367 80.2468 9.35165C78.8386 8.25182 76.7766 7.56398 76.7766 7.56398C76.7766 7.56398 79.6038 9.68124 79.5427 11.3471C61.8505 13.7223 48.2392 28.167 48.2392 45.6353C48.2392 48.8058 48.6883 51.8724 49.5253 54.7886L39.5889 38.0153C39.4165 33.8345 34.3764 29.6931 27.569 28.407C20.1113 26.9991 13.3649 29.5534 12.4992 34.1175C11.6334 38.678 16.9788 43.518 24.4365 44.9259C24.5838 44.9546 24.731 44.9761 24.8783 45.0012L24.7813 45.0585C24.7813 45.0585 38.2777 67.8468 45.4121 79.9306C46.6442 82.0192 48.602 83.402 50.7467 83.9394C45.6958 99.62 39.7865 123.702 53.114 133.811H116.253C129.634 123.659 123.617 99.4194 118.555 83.7424C120.434 83.1047 122.119 81.8006 123.222 79.9306C130.356 67.8468 143.853 45.0585 143.853 45.0585L143.756 45.0012C143.903 44.9761 144.05 44.9546 144.197 44.9259C151.655 43.518 157 38.678 156.135 34.1175H156.131ZM58.4702 69.7061C58.445 69.7276 58.4199 69.7491 58.3911 69.767L58.1828 69.4159C58.2762 69.5127 58.3732 69.6094 58.4666 69.7025L58.4702 69.7061Z" fill="#BEA483"/>
<mask id="mask0_118_356" style="mask-type:luminance" maskUnits="userSpaceOnUse" x="48" y="10" width="74" height="71">
<path d="M84.6582 80.3855C104.764 80.3855 121.063 64.8514 121.063 45.689C121.063 26.5266 104.764 10.9924 84.6582 10.9924C64.5524 10.9924 48.2535 26.5266 48.2535 45.689C48.2535 64.8514 64.5524 80.3855 84.6582 80.3855Z" fill="white"/>
</mask>
<g mask="url(#mask0_118_356)">
<path d="M116.228 76.8889C115.222 73.9513 113.296 71.6012 110.864 69.7203C117.201 63.494 121.099 55.007 121.099 45.6531C121.099 26.9882 105.562 11.7769 86.1131 11.0497C87.2051 8.36637 90.6573 5.67233 90.6573 5.67233C90.6573 5.67233 86.9537 6.95486 84.4714 9.01122C85.1683 5.63292 90.2945 1.80322 90.2945 1.80322C90.2945 1.80322 80.9042 4.9415 80.2216 9.36947C78.8134 8.26964 76.7515 7.5818 76.7515 7.5818C76.7515 7.5818 79.5786 9.69906 79.5175 11.3649C61.8253 13.7401 48.214 28.1848 48.214 45.6531C48.214 55.007 52.1153 63.494 58.4486 69.7203C56.0202 71.6012 54.0911 73.9513 53.0852 76.8889C48.1853 91.1796 37.5269 122.021 53.0852 133.826H116.224C131.782 122.021 121.12 91.1831 116.224 76.8889H116.228Z" fill="#BEA483"/>
<path d="M117.158 46.4161C117.021 41.9165 115.915 38.5633 114.022 36.0806C108.127 25.8418 95.3632 19.6835 87.69 25.5122C85.8687 26.8951 83.3864 26.9309 81.5651 25.5481C81.4681 25.4764 81.3711 25.4083 81.2777 25.3403C81.2167 25.2973 81.1556 25.2507 81.0945 25.2077C80.9329 25.0967 80.7676 24.9892 80.6024 24.8889C80.5844 24.8781 80.57 24.8674 80.5557 24.8566C80.3725 24.7456 80.1893 24.6417 80.0025 24.5414C79.9414 24.5091 79.8803 24.4805 79.8192 24.4518C79.6899 24.3873 79.5642 24.3228 79.4349 24.2619C79.3594 24.2261 79.284 24.1974 79.2086 24.1616C79.0936 24.1115 78.9751 24.0613 78.8565 24.0147C78.7739 23.9825 78.6948 23.9538 78.6122 23.9216C78.4973 23.8786 78.3823 23.8392 78.2674 23.7998C78.1847 23.7711 78.0985 23.7461 78.0159 23.7174C77.9009 23.6816 77.786 23.6493 77.6674 23.6171C77.5812 23.592 77.4986 23.5705 77.4124 23.549C77.2938 23.5204 77.1753 23.4917 77.0603 23.4666C76.9741 23.4487 76.8879 23.4272 76.8017 23.4129C76.6796 23.3878 76.5574 23.3699 76.4353 23.3484C76.3527 23.3341 76.2664 23.3197 76.1838 23.309C76.0545 23.2911 75.9216 23.2767 75.7887 23.2588C75.7132 23.2517 75.6378 23.2409 75.5623 23.2338C75.4007 23.2194 75.239 23.2087 75.0774 23.1979C75.0307 23.1979 74.9804 23.1908 74.9337 23.1872C74.7253 23.1764 74.5134 23.1729 74.3014 23.1729C74.244 23.1729 74.1865 23.1729 74.1326 23.1729C73.9781 23.1729 73.8201 23.1764 73.6656 23.1836C73.5866 23.1872 73.5075 23.1943 73.4285 23.1979C73.2956 23.2051 73.1591 23.2158 73.0226 23.2266C72.9364 23.2338 72.8465 23.2445 72.7603 23.2552C72.6346 23.2696 72.5053 23.2839 72.3795 23.3018C72.2897 23.3126 72.1963 23.3269 72.1065 23.3412C71.9808 23.3591 71.8551 23.3806 71.7293 23.4021C71.6359 23.4165 71.5461 23.4344 71.4527 23.4523C71.327 23.4774 71.2013 23.5024 71.0755 23.5311C70.9821 23.5526 70.8923 23.5705 70.7989 23.592C70.6696 23.6207 70.5439 23.6529 70.4145 23.6851C70.3247 23.7066 70.2349 23.7317 70.1451 23.7568C70.0122 23.7926 69.8793 23.832 69.7464 23.8714C69.6637 23.8965 69.5811 23.9216 69.4949 23.9467C69.344 23.9932 69.1896 24.047 69.0387 24.0971C68.974 24.1186 68.9129 24.1401 68.8483 24.1616C68.6327 24.2369 68.4172 24.3193 68.2017 24.4016C68.1657 24.416 68.1262 24.4339 68.0903 24.4482C67.9143 24.5199 67.7347 24.5915 67.5586 24.6668C67.4832 24.699 67.4078 24.7348 67.3323 24.7671C67.1922 24.828 67.0557 24.8889 66.9192 24.9569C66.833 24.9963 66.7504 25.0393 66.6642 25.0787C66.5348 25.1396 66.4055 25.2041 66.2798 25.2686C66.1936 25.3116 66.1037 25.3582 66.0175 25.4048C65.8918 25.4692 65.7697 25.5373 65.6475 25.6054C65.5577 25.6555 65.4679 25.7057 65.3817 25.7558C65.2596 25.8239 65.141 25.8956 65.0189 25.9672C64.9291 26.0209 64.8428 26.0711 64.753 26.1248C64.6309 26.2001 64.5124 26.2753 64.3902 26.3505C64.304 26.4043 64.2178 26.458 64.1316 26.5153C64.0058 26.5941 63.8837 26.6801 63.7616 26.7625C63.6825 26.8163 63.5999 26.87 63.5209 26.9237C63.388 27.0169 63.255 27.11 63.1221 27.2068C63.0539 27.2569 62.9856 27.3035 62.921 27.3501C62.7306 27.4898 62.5366 27.6331 62.3498 27.78C62.3426 27.7871 62.3354 27.7907 62.3282 27.7943C62.1306 27.9483 61.9367 28.1024 61.7427 28.2636C61.6816 28.3137 61.6205 28.3675 61.5595 28.4176C61.4265 28.5287 61.2972 28.6398 61.1679 28.7508C61.096 28.8153 61.0206 28.8798 60.9488 28.9443C60.8338 29.0482 60.7189 29.1485 60.6039 29.2559C60.5285 29.3276 60.4494 29.3992 60.374 29.4709C60.2662 29.5748 60.1549 29.6751 60.0471 29.7826C59.9717 29.8578 59.8926 29.933 59.8172 30.0083C59.713 30.1122 59.6088 30.2196 59.5046 30.3271C59.4292 30.4059 59.3538 30.4812 59.2783 30.56C59.1742 30.6675 59.0736 30.7785 58.973 30.8896C58.9011 30.9684 58.8293 31.0472 58.7539 31.126C58.6497 31.2407 58.5491 31.3553 58.4485 31.4699C58.3803 31.5487 58.312 31.6276 58.2437 31.7064C58.136 31.8318 58.0318 31.9572 57.9276 32.0861C57.8701 32.1578 57.8091 32.2294 57.748 32.3011C57.6223 32.4587 57.4965 32.6199 57.3708 32.7811C57.3385 32.8241 57.3026 32.8671 57.2702 32.9101C57.1158 33.1143 56.9613 33.3257 56.8104 33.5335C56.7709 33.5908 56.7314 33.6481 56.6919 33.7054C56.5841 33.8595 56.4727 34.0171 56.3685 34.1711C56.3147 34.2535 56.2608 34.3324 56.2069 34.4148C56.1171 34.5509 56.0273 34.687 55.9411 34.8232C55.8836 34.9127 55.8297 35.0059 55.7722 35.0954C55.6932 35.228 55.6106 35.357 55.5315 35.4895C55.4741 35.5862 55.4202 35.6794 55.3663 35.7761C55.2909 35.9087 55.2154 36.0376 55.1436 36.1702C55.0897 36.2669 55.0358 36.3636 54.9855 36.4639C54.9137 36.5965 54.8454 36.729 54.7736 36.8652C54.7233 36.9619 54.673 37.0622 54.6227 37.1625C54.5544 37.2987 54.4862 37.4384 54.4215 37.5781C54.3748 37.6748 54.3281 37.7716 54.285 37.8683C54.2167 38.0152 54.1521 38.1656 54.0874 38.3125C54.0479 38.4021 54.0084 38.4916 53.9689 38.5848C53.897 38.7567 53.8288 38.9287 53.7605 39.1007C53.7318 39.1723 53.703 39.2404 53.6779 39.3085C53.5845 39.5521 53.4947 39.7957 53.4085 40.0429C53.3905 40.0894 53.3761 40.136 53.3618 40.1862C53.2935 40.3868 53.2253 40.5874 53.1642 40.788C53.1355 40.8776 53.1103 40.9672 53.0852 41.0567C53.0385 41.2179 52.9882 41.3791 52.9451 41.5404C52.9163 41.6407 52.8912 41.7446 52.866 41.8449C52.8265 41.9953 52.787 42.1494 52.7511 42.2998C52.7259 42.4073 52.7008 42.5148 52.6756 42.6223C52.6433 42.7727 52.611 42.9196 52.5786 43.0701C52.5571 43.1776 52.5355 43.2886 52.514 43.3997C52.4852 43.5501 52.4601 43.7006 52.435 43.8511C52.417 43.9621 52.399 44.0696 52.3811 44.1807C52.3595 44.3347 52.338 44.4852 52.3164 44.6392C52.302 44.7467 52.2877 44.8578 52.2769 44.9652C52.2589 45.1264 52.2446 45.2841 52.2302 45.4453C52.2194 45.5492 52.2086 45.6495 52.2014 45.7534C52.1871 45.9289 52.1799 46.108 52.1691 46.2836C52.1655 46.3731 52.1583 46.4591 52.1548 46.5487C52.144 46.8138 52.1404 47.0789 52.1404 47.3476C52.1404 65.2315 66.7288 79.7836 84.6653 79.7836C102.602 79.7836 117.19 65.235 117.19 47.3476C117.19 47.0323 117.179 46.7171 117.165 46.4054L117.158 46.4161Z" fill="#E3CCB5"/>
<path d="M81.4574 45.1551C81.4574 39.1508 74.4991 34.2822 65.9206 34.2822C61.2614 34.2822 57.0871 35.7188 54.2384 37.9901C54.1881 38.1012 54.1378 38.2087 54.0911 38.3197C54.0516 38.4093 54.0121 38.4988 53.9725 38.592C53.9007 38.7639 53.8324 38.9359 53.7642 39.1079C53.7354 39.1795 53.7067 39.2476 53.6816 39.3156C53.5882 39.5593 53.4983 39.8029 53.4121 40.0501C53.3942 40.0966 53.3798 40.1432 53.3654 40.1934C53.2972 40.394 53.2289 40.5946 53.1679 40.7952C53.1391 40.8848 53.114 40.9743 53.0888 41.0639C53.0421 41.2251 52.9918 41.3863 52.9487 41.5475C52.92 41.6479 52.8948 41.7517 52.8697 41.8521C52.8302 42.0025 52.7907 42.1566 52.7547 42.307C52.7296 42.4145 52.7044 42.522 52.6793 42.6295C52.647 42.7799 52.6146 42.9268 52.5823 43.0773C52.5608 43.1848 52.5392 43.2958 52.5176 43.4069C52.4889 43.5573 52.4638 43.7078 52.4386 43.8583C52.4206 43.9693 52.4027 44.0768 52.3847 44.1879C52.3632 44.3419 52.3416 44.4924 52.3201 44.6464C52.3057 44.7539 52.2913 44.8649 52.2805 44.9724C52.2626 45.1336 52.2482 45.2913 52.2339 45.4525C52.2231 45.5564 52.2123 45.6567 52.2051 45.7606C52.1907 45.9361 52.1836 46.1152 52.1728 46.2908C52.1692 46.3803 52.162 46.4663 52.1584 46.5559C52.1476 46.821 52.144 47.0861 52.144 47.3548C52.144 48.3686 52.1979 49.3682 52.2877 50.3569C54.9245 53.7316 60.0436 52.6103 65.9314 52.6103C74.5134 52.6103 81.4682 51.1522 81.4682 45.1515L81.4574 45.1551Z" fill="#9A856A"/>
<path d="M117.158 46.4162C117.05 42.9053 116.35 40.093 115.15 37.8468C112.308 35.6579 108.213 34.2822 103.658 34.2822C95.076 34.2822 88.1212 39.1508 88.1212 45.1551C88.1212 51.1594 95.0796 52.6139 103.658 52.6139C109.341 52.6139 114.302 53.8893 117.011 50.7044C117.126 49.6046 117.183 48.4869 117.183 47.3584C117.183 47.0431 117.172 46.7278 117.158 46.4162Z" fill="#9A856A"/>
<path d="M82.9338 53.8283L80.8575 51.4531C80.4516 50.991 80.7821 50.2673 81.3999 50.2673H87.92C88.5379 50.2673 88.8648 50.991 88.4624 51.4531L86.3861 53.8283C85.4736 54.8709 83.8499 54.8709 82.941 53.8283H82.9338Z" fill="#574938"/>
<path d="M90.0107 58.303C88.6959 60.2913 85.7466 60.5815 84.6581 60.5815C83.681 60.5815 80.6383 60.302 79.3055 58.303" stroke="#231815" stroke-width="2" stroke-linecap="round" stroke-linejoin="round"/>
<path d="M70.9139 49.1245C73.1876 49.1245 75.0307 47.6489 75.0307 45.8286C75.0307 44.0083 73.1876 42.5327 70.9139 42.5327C68.6403 42.5327 66.7971 44.0083 66.7971 45.8286C66.7971 47.6489 68.6403 49.1245 70.9139 49.1245Z" fill="white"/>
<path d="M71.4779 47.276C72.9123 47.276 74.0751 46.2687 74.0751 45.0262C74.0751 43.7836 72.9123 42.7764 71.4779 42.7764C70.0434 42.7764 68.8806 43.7836 68.8806 45.0262C68.8806 46.2687 70.0434 47.276 71.4779 47.276Z" fill="#231815"/>
<path d="M97.9461 49.1245C100.22 49.1245 102.063 47.6489 102.063 45.8286C102.063 44.0083 100.22 42.5327 97.9461 42.5327C95.6725 42.5327 93.8293 44.0083 93.8293 45.8286C93.8293 47.6489 95.6725 49.1245 97.9461 49.1245Z" fill="white"/>
<path d="M97.4289 47.276C98.8633 47.276 100.026 46.2687 100.026 45.0262C100.026 43.7836 98.8633 42.7764 97.4289 42.7764C95.9945 42.7764 94.8317 43.7836 94.8317 45.0262C94.8317 46.2687 95.9945 47.276 97.4289 47.276Z" fill="#231815"/>
</g>
<path d="M76.3779 41.3291H64.4226V49.8089H76.3779V41.3291Z" fill="#9A856A"/>
<path d="M104.563 41.3291H92.608V49.8089H104.563V41.3291Z" fill="#9A856A"/>
<path d="M94.4077 56.1033H76.3778V66.8508H94.4077V56.1033Z" fill="#E3CCB5"/>
<path d="M101.582 47.67L95.1011 47.3834L100.899 44.3275C101.287 44.1233 101.434 43.6432 101.23 43.2563L101.158 43.1238C100.953 42.7368 100.472 42.59 100.084 42.7942L93.0319 46.5128C92.6439 46.717 92.4966 47.1971 92.7014 47.584L92.7732 47.7165C92.9565 48.064 93.366 48.2181 93.7288 48.0963L101.409 48.4366C101.887 48.4581 102.314 48.3041 102.361 48.0927C102.408 47.8813 102.059 47.695 101.582 47.6735V47.67Z" fill="#231815"/>
<path d="M67.4042 47.67L73.8848 47.3834L68.0868 44.3275C67.6988 44.1233 67.5515 43.6432 67.7563 43.2563L67.8281 43.1238C68.0329 42.7368 68.5142 42.59 68.9022 42.7942L75.9539 46.5128C76.3419 46.717 76.4892 47.1971 76.2844 47.584L76.2126 47.7165C76.0294 48.064 75.6199 48.2181 75.257 48.0963L67.5766 48.4366C67.0989 48.4581 66.6714 48.3041 66.6247 48.0927C66.578 47.8813 66.9264 47.695 67.4042 47.6735V47.67Z" fill="#231815"/>
<path d="M41.1731 28.2923C42.4448 28.7329 43.4686 29.1628 40.8822 29.4817C42.3837 30.0477 43.871 30.5528 41.1947 30.7391C42.6999 31.4341 42.8041 31.7387 40.9863 31.8067C41.3132 32.6092 42.8543 33.2003 40.6666 33.1251C41.6689 34.0601 42.3047 34.293 39.3123 34.1067C41.3348 35.1349 42.6711 35.7188 40.5912 35.3856C41.9024 36.5392 40.6989 36.8437 38.0909 36.3959C39.201 37.6462 39.4093 37.8612 39.1219 37.3059C40.3792 38.6386 40.487 39.0219 37.5197 38.3448C39.0106 39.7706 38.4178 40.4119 36.7187 39.5879C38.6872 41.1284 39.2512 41.587 37.6275 40.634C37.9975 42.2676 37.2934 42.651 36.5498 41.5834C37.121 43.2994 37.5413 43.5251 34.7249 42.3536C36.169 44.1305 34.1753 44.0016 32.8425 42.7656C35.5978 44.564 33.9597 45.4023 33.4963 44.0159C33.6328 45.9254 33.5502 45.9719 32.16 44.5103C31.42 46.4484 32.512 46.2621 30.7087 44.7503C31.2008 46.6884 29.9651 47.0216 30.1842 45.4167C30.213 47.4014 29.0167 48.1465 27.8851 46.409C29.2322 48.4725 29.552 48.5549 26.8469 46.7565C27.763 48.8308 27.7558 48.4367 27.2996 46.624C26.5344 48.6552 27.2565 49.2786 26.3189 47.3584C24.0773 49.4398 23.6354 48.9418 24.4185 47.0288C22.7194 49.0493 24.2928 49.6154 21.8177 47.6127C22.0548 49.6691 21.6704 48.9812 22.0081 47.0145C21.4046 48.9812 21.8321 49.7407 19.0839 47.6808C20.0395 49.687 19.3857 49.6225 19.7737 47.5447C18.0457 49.5115 19.0552 48.6409 17.9955 46.6347C17.0076 48.4761 17.5033 48.9168 17.2267 46.8604C15.8005 48.6982 15.3623 48.6767 16.7848 46.6168C15.7503 48.4045 13.5805 47.6915 13.8858 45.7033C12.3555 47.3655 13.6056 47.2867 14.7372 45.3128C11.5472 46.9106 11.4933 47.5124 11.4107 45.4955C11.0946 47.0861 10.2073 46.7673 11.77 44.8005C10.43 46.2944 10.0816 45.542 10.1067 43.6684C8.12375 45.019 8.28181 45.2483 9.34514 43.3818C8.57997 44.6822 7.10712 44.2989 8.85658 42.5077C6.93109 43.6935 6.62934 42.8408 8.68415 41.1678C6.55031 42.196 6.63293 41.9345 6.69041 40.3295C4.34462 41.2502 5.10619 41.243 5.41154 39.6918C4.31947 40.5265 4.2117 40.2543 4.52424 38.7819C2.9508 39.5055 1.97369 38.9144 5.14212 37.5566C3.45013 38.137 3.15197 37.7788 4.58171 36.5177C1.13667 36.9763 0.572679 36.6718 3.38188 35.5039C1.79766 35.8478 1.16182 35.2961 4.0249 34.2536C0.96065 34.4542 0.931912 33.9956 2.667 33.0678C2.05272 33.1358 -0.26074 32.7382 1.95932 31.9214C1.57135 31.864 0.0877155 31.4449 2.07068 30.7499C0.971427 30.5672 0.802588 30.0406 2.80711 29.4781C1.00735 29.1593 0.964243 28.7401 3.70519 28.2995C-0.239186 27.8481 1.76174 27.4182 3.8381 27.1101C0.583456 26.5333 -0.982797 26.0138 2.36884 25.8419C0.504425 25.1361 -0.386472 24.742 3.41421 24.6955C0.612195 23.8751 0.217039 23.5598 3.06575 23.6315C0.292478 22.7036 1.2193 22.1447 2.80351 22.3561C0.206262 21.3028 1.76533 20.726 3.61538 21.0807C2.54127 19.9021 1.00735 19.5116 3.95665 19.9916C3.14478 18.7091 1.95572 18.4906 3.55072 19.0781C2.61671 17.7132 2.5772 17.4624 6.25933 18.161C4.18656 16.7136 4.10753 16.0939 5.8965 16.9393C3.23459 15.3809 6.05097 15.295 7.19333 16.23C6.09767 14.6143 7.31188 14.4889 7.17897 15.5171C5.59475 13.844 6.18748 12.8266 7.14663 14.0303C7.74655 12.2212 7.28314 12.2677 9.11882 13.5431C7.55257 11.7017 8.51172 11.6372 11.2778 12.995C8.77755 11.1178 9.23018 10.6162 10.7605 12.0886C11.4502 10.1397 10.4372 9.84597 12.3519 11.4115C11.0695 9.41607 11.2167 9.56654 13.541 11.1822C13.2105 9.18679 12.1507 8.59926 14.6905 10.3332C14.6079 8.27325 13.6344 8.06905 15.1898 9.87463C16.3322 7.7932 16.9716 8.40222 17.7476 10.2006C15.8652 8.18011 17.9847 8.06547 18.2182 9.92121C17.2985 7.90067 17.2662 7.83261 18.5127 9.73492C20.2694 7.72155 20.6466 7.61407 20.7256 9.56296C21.0022 7.56034 21.8464 7.0552 20.8262 9.0829C22.8199 7.0552 23.524 6.95131 22.6331 9.01483C23.7827 7.00863 24.8676 6.97639 23.754 9.0614C24.9825 7.08744 25.798 7.91859 24.2461 9.93912C26.52 8.08338 25.7908 7.85768 25.2771 9.90688C28.1869 8.07622 28.7185 7.73588 27.6768 9.8209C27.684 8.00815 28.4491 8.37356 28.5246 10.4228C29.8286 8.69957 30.4824 9.27635 28.3342 11.2646C31.6247 9.6561 30.4357 9.74925 31.6319 11.716C31.3984 10.1791 31.711 10.6377 30.4716 12.54C33.1838 11.1142 32.9 10.9064 32.5408 12.8051C34.2543 11.4294 35.8098 11.4402 33.8196 13.3067C36.0684 12.0062 36.1295 12.7657 34.2615 14.5247C36.6396 13.3712 35.8852 13.5503 34.5381 15.252C37.2575 14.1951 36.4313 14.7074 37.1138 16.316C38.0586 15.3917 37.2288 15.7929 35.7415 17.3119C39.65 16.5094 38.522 16.7101 37.3293 18.1574C38.3029 17.4588 39.1758 17.5949 39.3554 18.9706C39.7111 18.3723 41.2306 18.7807 38.7052 20.0561C42.1467 19.5832 40.8822 20.16 40.4223 21.3136C40.5553 20.984 42.4197 21.421 40.4008 22.4636C41.1444 22.2629 42.6388 22.7072 38.7016 23.635C42.4376 23.567 42.8579 23.9861 39.2943 24.7993C42.9837 24.8602 43.4435 25.2006 39.535 25.9028C42.161 26.0819 43.7093 26.5189 39.6392 27.0957C43.5692 27.4038 44.1763 27.8552 41.1767 28.3066L41.1731 28.2923Z" fill="#F6CE5C"/>
<path d="M165.608 28.2923C166.879 28.7329 167.903 29.1628 165.317 29.4817C166.818 30.0477 168.305 30.5528 165.629 30.7391C167.134 31.4341 167.238 31.7387 165.421 31.8067C165.748 32.6092 167.289 33.2003 165.101 33.1251C166.103 34.0601 166.739 34.293 163.747 34.1067C165.769 35.1349 167.106 35.7188 165.026 35.3856C166.337 36.5392 165.133 36.8437 162.525 36.3959C163.635 37.6462 163.844 37.8612 163.556 37.3059C164.814 38.6386 164.921 39.0219 161.954 38.3448C163.445 39.7706 162.852 40.4119 161.153 39.5879C163.122 41.1284 163.686 41.587 162.062 40.634C162.432 42.2676 161.728 42.651 160.984 41.5834C161.555 43.2994 161.976 43.5251 159.159 42.3536C160.603 44.1305 158.61 44.0016 157.277 42.7656C160.032 44.564 158.394 45.4023 157.931 44.0159C158.067 45.9254 157.985 45.9719 156.594 44.5103C155.854 46.4484 156.946 46.2621 155.143 44.7503C155.635 46.6884 154.4 47.0216 154.619 45.4167C154.647 47.4014 153.451 48.1465 152.32 46.409C153.667 48.4725 153.986 48.5549 151.281 46.7565C152.197 48.8308 152.19 48.4367 151.734 46.624C150.969 48.6552 151.691 49.2786 150.753 47.3584C148.512 49.4398 148.07 48.9418 148.853 47.0288C147.154 49.0493 148.727 49.6154 146.252 47.6127C146.489 49.6691 146.105 48.9812 146.443 47.0145C145.839 48.9812 146.267 49.7407 143.518 47.6808C144.474 49.687 143.82 49.6225 144.208 47.5447C142.48 49.5115 143.49 48.6409 142.43 46.6347C141.442 48.4761 141.938 48.9168 141.661 46.8604C140.235 48.6982 139.797 48.6767 141.219 46.6168C140.185 48.4045 138.015 47.6915 138.32 45.7033C136.79 47.3655 138.04 47.2867 139.172 45.3128C135.982 46.9106 135.928 47.5124 135.845 45.4955C135.529 47.0861 134.642 46.7673 136.204 44.8005C134.864 46.2944 134.516 45.542 134.541 43.6684C132.558 45.019 132.716 45.2483 133.78 43.3818C133.014 44.6822 131.542 44.2989 133.291 42.5077C131.366 43.6935 131.064 42.8408 133.119 41.1678C130.985 42.196 131.067 41.9345 131.125 40.3295C128.779 41.2502 129.541 41.243 129.846 39.6918C128.754 40.5265 128.646 40.2543 128.959 38.7819C127.385 39.5055 126.408 38.9144 129.577 37.5566C127.885 38.137 127.586 37.7788 129.016 36.5177C125.571 36.9763 125.007 36.6718 127.816 35.5039C126.232 35.8478 125.596 35.2961 128.459 34.2536C125.395 34.4542 125.366 33.9956 127.101 33.0678C126.487 33.1358 124.174 32.7382 126.394 31.9214C126.006 31.864 124.522 31.4449 126.505 30.7499C125.406 30.5672 125.237 30.0406 127.242 29.4781C125.442 29.1593 125.399 28.7401 128.14 28.2995C124.195 27.8481 126.196 27.4182 128.273 27.1101C125.018 26.5333 123.452 26.0138 126.803 25.8419C124.939 25.1361 124.048 24.742 127.849 24.6955C125.047 23.8751 124.651 23.5598 127.5 23.6315C124.727 22.7036 125.654 22.1447 127.238 22.3561C124.641 21.3028 126.2 20.726 128.05 21.0807C126.976 19.9021 125.442 19.5116 128.391 19.9916C127.579 18.7091 126.39 18.4906 127.985 19.0781C127.051 17.7132 127.012 17.4624 130.694 18.161C128.621 16.7136 128.542 16.0939 130.331 16.9393C127.669 15.3809 130.485 15.295 131.628 16.23C130.532 14.6143 131.746 14.4889 131.613 15.5171C130.029 13.844 130.622 12.8266 131.581 14.0303C132.181 12.2212 131.718 12.2677 133.553 13.5431C131.987 11.7017 132.946 11.6372 135.712 12.995C133.212 11.1178 133.665 10.6162 135.195 12.0886C135.885 10.1397 134.872 9.84597 136.786 11.4115C135.504 9.41607 135.651 9.56654 137.975 11.1822C137.645 9.18679 136.585 8.59926 139.125 10.3332C139.042 8.27325 138.069 8.06905 139.624 9.87463C140.767 7.7932 141.406 8.40222 142.182 10.2006C140.3 8.18011 142.419 8.06547 142.653 9.92121C141.733 7.90067 141.701 7.83261 142.947 9.73492C144.704 7.72155 145.081 7.61407 145.16 9.56296C145.437 7.56034 146.281 7.0552 145.261 9.0829C147.254 7.0552 147.958 6.95131 147.068 9.01483C148.217 7.00863 149.302 6.97639 148.188 9.0614C149.417 7.08744 150.232 7.91859 148.681 9.93912C150.954 8.08338 150.225 7.85768 149.712 9.90688C152.621 8.07622 153.153 7.73588 152.111 9.8209C152.118 8.00815 152.884 8.37356 152.959 10.4228C154.263 8.69957 154.917 9.27635 152.769 11.2646C156.059 9.6561 154.87 9.74925 156.066 11.716C155.833 10.1791 156.145 10.6377 154.906 12.54C157.618 11.1142 157.334 10.9064 156.975 12.8051C158.689 11.4294 160.244 11.4402 158.254 13.3067C160.503 12.0062 160.564 12.7657 158.696 14.5247C161.074 13.3712 160.32 13.5503 158.973 15.252C161.692 14.1951 160.866 14.7074 161.548 16.316C162.493 15.3917 161.663 15.7929 160.176 17.3119C164.084 16.5094 162.956 16.7101 161.764 18.1574C162.737 17.4588 163.61 17.5949 163.79 18.9706C164.146 18.3723 165.665 18.7807 163.14 20.0561C166.581 19.5832 165.317 20.16 164.857 21.3136C164.99 20.984 166.854 21.421 164.835 22.4636C165.579 22.2629 167.073 22.7072 163.136 23.635C166.872 23.567 167.292 23.9861 163.729 24.7993C167.418 24.8602 167.878 25.2006 163.969 25.9028C166.595 26.0819 168.144 26.5189 164.074 27.0957C168.004 27.4038 168.611 27.8552 165.611 28.3066L165.608 28.2923Z" fill="#F6CE5C"/>
<path d="M87.8626 59.3848C87.8626 63.0605 86.4292 66.0376 84.6582 66.0376C82.8872 66.0376 81.4539 63.0605 81.4539 59.3848C81.4539 55.7092 82.8872 57.2318 84.6582 57.2318C86.4292 57.2318 87.8626 55.7092 87.8626 59.3848Z" fill="#F39D72"/>
<mask id="mask1_118_356" style="mask-type:luminance" maskUnits="userSpaceOnUse" x="81" y="56" width="7" height="11">
<path d="M87.8626 59.3848C87.8626 63.0605 86.4292 66.0376 84.6582 66.0376C82.8872 66.0376 81.4539 63.0605 81.4539 59.3848C81.4539 55.7092 82.8872 57.2318 84.6582 57.2318C86.4292 57.2318 87.8626 55.7092 87.8626 59.3848Z" fill="white"/>
</mask>
<g mask="url(#mask1_118_356)">
<path d="M84.6582 58.1633C86.3763 58.1633 87.7692 57.3613 87.7692 56.3721C87.7692 55.3828 86.3763 54.5808 84.6582 54.5808C82.9401 54.5808 81.5472 55.3828 81.5472 56.3721C81.5472 57.3613 82.9401 58.1633 84.6582 58.1633Z" fill="white"/>
</g>
</svg>
