<svg width="83" height="89" viewBox="0 0 83 89" fill="none" xmlns="http://www.w3.org/2000/svg">
<path d="M80.9622 49.0824C80.9622 59.2262 76.7262 68.4299 69.8455 75.1821H12.9321C6.05539 68.4299 1.81934 59.2262 1.81934 49.0824C1.81934 30.139 16.5987 14.4745 35.809 11.8987C35.8792 10.0922 32.8095 7.79224 32.8095 7.79224C32.8095 7.79224 35.0445 8.54205 36.5736 9.73475C37.303 5.00278 47.1948 1.63446 47.503 1.53345C47.2807 1.7005 41.9291 5.76036 41.1879 9.34625C43.8833 7.11236 47.9047 5.7254 47.9047 5.7254C47.9047 5.7254 44.1602 8.64695 42.9705 11.5568C64.0922 12.3455 80.9622 28.8414 80.9622 49.0824Z" fill="#BEA483"/>
<path d="M41.379 88.0998C30.4145 88.0998 19.9219 83.799 12.5108 76.2893H12.4835L12.1598 75.9746C4.77985 68.7368 0.711548 59.1873 0.711548 49.094C0.711548 39.7117 4.29227 30.6634 10.7945 23.616C16.938 16.957 25.2774 12.5125 34.3853 11.0051C33.8899 10.2126 32.9148 9.26464 32.1386 8.68577L31.7095 7.3299L33.1566 6.76268C33.2307 6.78599 34.5998 7.24831 35.9767 8.03697C38.2547 3.46428 46.7579 0.628206 47.1558 0.5L48.3923 1.01282L48.1739 2.41921C47.0739 3.26226 45.5097 4.63368 44.2616 6.11388C45.9973 5.23586 47.4327 4.73469 47.5341 4.69973L48.9969 5.27859L48.5795 6.60728C48.5522 6.63059 46.2041 8.47986 44.7726 10.5778C54.6137 11.347 63.7489 15.4574 70.6568 22.2601C78.0094 29.5018 82.0582 39.0318 82.0582 49.1018C82.0582 59.1718 77.9938 68.7406 70.6139 75.9824L70.2902 76.3009H70.2317C62.8244 83.8107 52.3319 88.1114 41.3673 88.1114L41.379 88.0998Z" fill="white"/>
<path d="M80.9622 49.094C80.9622 59.2339 76.7262 68.4414 69.8494 75.1898H69.7753C62.8089 82.4353 52.6674 87.0003 41.3791 87.0003C30.0908 87.0003 19.9493 82.4353 12.9789 75.1898H12.936C6.05537 68.4414 1.81934 59.2339 1.81934 49.094C1.81934 30.1467 16.6026 14.4822 35.8129 11.9064C35.8792 10.0999 32.8095 7.80381 32.8095 7.80381C32.8095 7.80381 35.0445 8.54974 36.5736 9.74245C37.3069 5.01436 47.1987 1.64215 47.5069 1.54114C47.2845 1.71208 41.9329 5.77194 41.1918 9.35783C43.8832 7.12393 47.9047 5.73309 47.9047 5.73309C47.9047 5.73309 44.1602 8.65852 42.9744 11.5684C64.0922 12.3571 80.9622 28.8529 80.9622 49.094Z" fill="#BEA483"/>
<mask id="mask0_77_926" style="mask-type:luminance" maskUnits="userSpaceOnUse" x="1" y="11" width="80" height="76">
<path d="M41.3907 86.8332C63.2217 86.8332 80.9192 69.9872 80.9192 49.2066C80.9192 28.4261 63.2217 11.5801 41.3907 11.5801C19.5597 11.5801 1.86218 28.4261 1.86218 49.2066C1.86218 69.9872 19.5597 86.8332 41.3907 86.8332Z" fill="white"/>
</mask>
<g mask="url(#mask0_77_926)">
<path d="M75.669 83.0415C74.5769 79.8557 72.4861 77.3071 69.8454 75.2675C76.7261 68.5153 80.9582 59.3116 80.9582 49.1678C80.9582 28.9268 64.0882 12.4309 42.9704 11.6423C44.1562 8.73237 47.9047 5.81083 47.9047 5.81083C47.9047 5.81083 43.8832 7.20167 41.1879 9.43168C41.9446 5.76809 47.5107 1.61499 47.5107 1.61499C47.5107 1.61499 37.3146 5.01828 36.5735 9.82018C35.0444 8.62748 32.8055 7.88155 32.8055 7.88155C32.8055 7.88155 35.8753 10.1776 35.8089 11.9842C16.5986 14.5599 1.81925 30.2244 1.81925 49.1678C1.81925 59.3116 6.0553 68.5153 12.932 75.2675C10.2952 77.3071 8.2006 79.8557 7.10844 83.0415C1.78804 98.5389 -9.78499 131.985 7.10844 144.786H75.6651C92.5585 131.985 80.9816 98.5427 75.6651 83.0415H75.669Z" fill="#BEA483"/>
<path d="M76.6793 49.9953C76.5311 45.1157 75.3297 41.4793 73.2741 38.787C66.8732 27.6835 53.0145 21.0052 44.6828 27.3261C42.7052 28.8257 40.0099 28.8646 38.0323 27.365C37.927 27.2873 37.8217 27.2134 37.7203 27.1396C37.654 27.093 37.5876 27.0425 37.5213 26.9959C37.3458 26.8755 37.1664 26.7589 36.987 26.6501C36.9675 26.6385 36.9519 26.6268 36.9362 26.6152C36.7373 26.4947 36.5384 26.3821 36.3356 26.2733C36.2693 26.2383 36.2029 26.2072 36.1366 26.1761C35.9962 26.1062 35.8597 26.0363 35.7193 25.9702C35.6374 25.9314 35.5554 25.9003 35.4735 25.8615C35.3487 25.8071 35.22 25.7527 35.0913 25.7022C35.0016 25.6672 34.9158 25.6361 34.826 25.6012C34.7012 25.5545 34.5764 25.5118 34.4516 25.4691C34.3619 25.438 34.2682 25.4108 34.1785 25.3797C34.0537 25.3409 33.9289 25.3059 33.8002 25.2709C33.7066 25.2437 33.6169 25.2204 33.5232 25.1971C33.3945 25.166 33.2658 25.135 33.141 25.1078C33.0474 25.0883 32.9537 25.065 32.8601 25.0495C32.7275 25.0223 32.5949 25.0029 32.4623 24.9796C32.3726 24.964 32.279 24.9485 32.1892 24.9368C32.0488 24.9174 31.9045 24.9019 31.7602 24.8824C31.6783 24.8747 31.5963 24.863 31.5144 24.8552C31.3389 24.8397 31.1634 24.828 30.9879 24.8164C30.9372 24.8164 30.8825 24.8086 30.8318 24.8047C30.6056 24.7931 30.3755 24.7892 30.1453 24.7892C30.0829 24.7892 30.0205 24.7892 29.962 24.7892C29.7943 24.7892 29.6227 24.7931 29.4549 24.8008C29.3691 24.8047 29.2833 24.8125 29.1975 24.8164C29.0532 24.8242 28.9049 24.8358 28.7567 24.8475C28.6631 24.8552 28.5656 24.8669 28.472 24.8785C28.3355 24.8941 28.195 24.9096 28.0585 24.929C27.961 24.9407 27.8596 24.9562 27.7621 24.9718C27.6255 24.9912 27.489 25.0145 27.3525 25.0378C27.2511 25.0534 27.1536 25.0728 27.0522 25.0922C26.9156 25.1194 26.7791 25.1466 26.6426 25.1777C26.5412 25.201 26.4437 25.2204 26.3423 25.2437C26.2019 25.2748 26.0653 25.3098 25.9249 25.3447C25.8274 25.3681 25.7299 25.3953 25.6324 25.4224C25.488 25.4613 25.3437 25.504 25.1994 25.5468C25.1097 25.574 25.02 25.6012 24.9264 25.6284C24.7625 25.6789 24.5948 25.7371 24.431 25.7915C24.3608 25.8148 24.2944 25.8381 24.2242 25.8615C23.9902 25.943 23.7562 26.0324 23.5221 26.1218C23.4831 26.1373 23.4402 26.1567 23.4012 26.1723C23.2101 26.25 23.0151 26.3277 22.8239 26.4092C22.742 26.4442 22.6601 26.4831 22.5782 26.518C22.4261 26.5841 22.2778 26.6501 22.1296 26.7239C22.036 26.7667 21.9463 26.8133 21.8527 26.856C21.7123 26.9221 21.5719 26.992 21.4353 27.0619C21.3417 27.1086 21.2442 27.1591 21.1506 27.2096C21.0141 27.2795 20.8814 27.3533 20.7488 27.4271C20.6513 27.4815 20.5538 27.5359 20.4602 27.5903C20.3276 27.6641 20.1988 27.7418 20.0662 27.8195C19.9687 27.8778 19.8751 27.9322 19.7776 27.9905C19.645 28.072 19.5162 28.1536 19.3836 28.2352C19.29 28.2935 19.1964 28.3518 19.1028 28.4139C18.9662 28.4994 18.8336 28.5926 18.701 28.682C18.6152 28.7403 18.5255 28.7985 18.4397 28.8568C18.2954 28.9578 18.151 29.0588 18.0067 29.1637C17.9326 29.2181 17.8585 29.2686 17.7883 29.3191C17.5815 29.4707 17.3709 29.6261 17.1681 29.7853C17.1603 29.7931 17.1525 29.797 17.1447 29.8009C16.9302 29.9679 16.7195 30.135 16.5089 30.3098C16.4426 30.3642 16.3763 30.4225 16.31 30.4769C16.1656 30.5973 16.0252 30.7178 15.8848 30.8382C15.8068 30.9081 15.7249 30.978 15.6469 31.048C15.522 31.1606 15.3972 31.2694 15.2724 31.386C15.1905 31.4637 15.1047 31.5414 15.0228 31.6191C14.9058 31.7317 14.7848 31.8405 14.6678 31.9571C14.5859 32.0387 14.5001 32.1202 14.4182 32.2018C14.3051 32.3145 14.192 32.431 14.0788 32.5476C13.9969 32.6331 13.915 32.7147 13.8331 32.8001C13.72 32.9167 13.6108 33.0371 13.5015 33.1576C13.4235 33.243 13.3455 33.3285 13.2636 33.414C13.1505 33.5383 13.0413 33.6626 12.9321 33.7869C12.858 33.8724 12.7838 33.9579 12.7097 34.0433C12.5927 34.1793 12.4796 34.3153 12.3665 34.4552C12.3041 34.5329 12.2378 34.6106 12.1714 34.6883C12.0349 34.8592 11.8984 35.034 11.7619 35.2089C11.7268 35.2555 11.6878 35.3021 11.6527 35.3487C11.4849 35.5702 11.3172 35.7994 11.1534 36.0247C11.1105 36.0869 11.0676 36.149 11.0247 36.2112C10.9077 36.3782 10.7867 36.5492 10.6736 36.7162C10.6151 36.8056 10.5566 36.8911 10.4981 36.9804C10.4006 37.1281 10.3031 37.2757 10.2094 37.4233C10.147 37.5204 10.0885 37.6215 10.0261 37.7186C9.94031 37.8623 9.85061 38.0022 9.76479 38.1459C9.70238 38.2508 9.64387 38.3518 9.58536 38.4567C9.50345 38.6005 9.42154 38.7403 9.34352 38.8841C9.28502 38.989 9.22651 39.0939 9.1719 39.2027C9.09389 39.3464 9.01976 39.4902 8.94175 39.6378C8.88714 39.7427 8.83254 39.8515 8.77793 39.9602C8.70382 40.1079 8.62971 40.2594 8.5595 40.4109C8.5088 40.5158 8.45809 40.6207 8.41128 40.7256C8.33717 40.8849 8.26696 41.0481 8.19675 41.2073C8.15384 41.3045 8.11093 41.4016 8.06803 41.5026C7.99001 41.6891 7.9159 41.8756 7.84178 42.0621C7.81058 42.1398 7.77938 42.2136 7.75208 42.2874C7.65066 42.5516 7.55315 42.8158 7.45954 43.0838C7.44003 43.1343 7.42443 43.1848 7.40883 43.2392C7.33471 43.4568 7.26061 43.6743 7.1943 43.8919C7.16309 43.989 7.13578 44.0862 7.10847 44.1833C7.05777 44.3581 7.00318 44.5329 6.95637 44.7078C6.92516 44.8165 6.89785 44.9292 6.87054 45.038C6.82764 45.2012 6.78473 45.3682 6.74572 45.5314C6.71842 45.6479 6.69113 45.7645 6.66382 45.881C6.62872 46.0442 6.59361 46.2035 6.5585 46.3667C6.5351 46.4832 6.5117 46.6037 6.48829 46.7241C6.45709 46.8873 6.42977 47.0504 6.40247 47.2136C6.38297 47.334 6.36348 47.4506 6.34397 47.571C6.32057 47.7381 6.29717 47.9013 6.27377 48.0683C6.25816 48.1849 6.24254 48.3053 6.23084 48.4219C6.21134 48.5967 6.19576 48.7676 6.18016 48.9424C6.16845 49.0551 6.15675 49.1639 6.14894 49.2766C6.13334 49.4669 6.12553 49.6612 6.11383 49.8516C6.10993 49.9487 6.10214 50.0419 6.09824 50.139C6.08653 50.4265 6.08264 50.714 6.08264 51.0054C6.08264 70.3995 21.9229 86.1805 41.3985 86.1805C60.8741 86.1805 76.7144 70.4034 76.7144 51.0054C76.7144 50.6635 76.7027 50.3216 76.6871 49.9836L76.6793 49.9953Z" fill="#E3CCB5"/>
<path d="M37.9153 48.6277C37.9153 42.1164 30.3599 36.8367 21.0453 36.8367C15.9862 36.8367 11.4538 38.3946 8.36059 40.8577C8.30599 40.9781 8.25139 41.0947 8.20068 41.2151C8.15777 41.3122 8.11486 41.4094 8.07196 41.5104C7.99394 41.6968 7.91983 41.8833 7.84571 42.0698C7.81451 42.1475 7.78331 42.2213 7.75601 42.2951C7.65459 42.5593 7.55708 42.8235 7.46347 43.0916C7.44396 43.1421 7.42836 43.1926 7.41276 43.247C7.33864 43.4645 7.26454 43.6821 7.19823 43.8997C7.16702 43.9968 7.13971 44.0939 7.1124 44.191C7.0617 44.3659 7.00711 44.5407 6.9603 44.7155C6.92909 44.8243 6.90178 44.937 6.87447 45.0457C6.83157 45.2089 6.78866 45.376 6.74965 45.5391C6.72235 45.6557 6.69506 45.7723 6.66775 45.8888C6.63265 46.052 6.59754 46.2113 6.56243 46.3744C6.53903 46.491 6.51563 46.6114 6.49222 46.7319C6.46102 46.895 6.4337 47.0582 6.4064 47.2214C6.3869 47.3418 6.36741 47.4584 6.3479 47.5788C6.3245 47.7458 6.3011 47.909 6.2777 48.0761C6.26209 48.1926 6.24647 48.3131 6.23477 48.4296C6.21527 48.6044 6.19966 48.7754 6.18406 48.9502C6.17236 49.0629 6.16068 49.1717 6.15287 49.2843C6.13727 49.4747 6.12946 49.6689 6.11776 49.8593C6.11386 49.9564 6.10607 50.0497 6.10217 50.1468C6.09046 50.4343 6.08655 50.7218 6.08655 51.0132C6.08655 52.1126 6.14507 53.1966 6.24258 54.2688C9.10561 57.9285 14.6639 56.7125 21.057 56.7125C30.3755 56.7125 37.927 55.1313 37.927 48.6239L37.9153 48.6277Z" fill="#9A856A"/>
<path d="M76.6793 49.9953C76.5623 46.1879 75.8017 43.1382 74.4989 40.7023C71.4135 38.3285 66.9668 36.8367 62.0209 36.8367C52.7024 36.8367 45.1509 42.1164 45.1509 48.6277C45.1509 55.1391 52.7063 56.7164 62.0209 56.7164C68.1916 56.7164 73.5783 58.0995 76.5194 54.6457C76.6442 53.453 76.7066 52.2408 76.7066 51.017C76.7066 50.6752 76.6949 50.3333 76.6793 49.9953Z" fill="#9A856A"/>
<path d="M39.5185 58.0335L37.2639 55.4577C36.8232 54.9565 37.182 54.1718 37.8529 54.1718H44.9325C45.6034 54.1718 45.9583 54.9565 45.5215 55.4577L43.2669 58.0335C42.2762 59.164 40.5131 59.164 39.5263 58.0335H39.5185Z" fill="#574938"/>
<path d="M47.2026 62.8859C45.775 65.0421 42.5726 65.3567 41.3907 65.3567C40.3298 65.3567 37.026 65.0537 35.5789 62.8859" stroke="#231815" stroke-width="2" stroke-linecap="round" stroke-linejoin="round"/>
<path d="M26.467 52.9363C28.9358 52.9363 30.9371 51.3361 30.9371 49.3621C30.9371 47.3881 28.9358 45.7878 26.467 45.7878C23.9983 45.7878 21.9969 47.3881 21.9969 49.3621C21.9969 51.3361 23.9983 52.9363 26.467 52.9363Z" fill="white"/>
<path d="M27.0833 50.9277C28.6408 50.9277 29.9034 49.8354 29.9034 48.4879C29.9034 47.1404 28.6408 46.0481 27.0833 46.0481C25.5258 46.0481 24.2632 47.1404 24.2632 48.4879C24.2632 49.8354 25.5258 50.9277 27.0833 50.9277Z" fill="#231815"/>
<path d="M55.8189 52.9363C58.2877 52.9363 60.289 51.3361 60.289 49.3621C60.289 47.3881 58.2877 45.7878 55.8189 45.7878C53.3502 45.7878 51.3489 47.3881 51.3489 49.3621C51.3489 51.3361 53.3502 52.9363 55.8189 52.9363Z" fill="white"/>
<path d="M55.2572 50.9277C56.8148 50.9277 58.0774 49.8354 58.0774 48.4879C58.0774 47.1404 56.8148 46.0481 55.2572 46.0481C53.6997 46.0481 52.4371 47.1404 52.4371 48.4879C52.4371 49.8354 53.6997 50.9277 55.2572 50.9277Z" fill="#231815"/>
</g>
<path d="M40.9305 69.6848C47.2015 69.6848 52.2851 67.5314 52.2851 64.8751C52.2851 62.2188 47.2015 60.0654 40.9305 60.0654C34.6595 60.0654 29.5759 62.2188 29.5759 64.8751C29.5759 67.5314 34.6595 69.6848 40.9305 69.6848Z" fill="#E3CCB5"/>
<path d="M27.1964 54.1446C30.4795 54.1446 33.1409 51.4937 33.1409 48.2238C33.1409 44.9538 30.4795 42.303 27.1964 42.303C23.9134 42.303 21.252 44.9538 21.252 48.2238C21.252 51.4937 23.9134 54.1446 27.1964 54.1446Z" fill="#9A856A"/>
<path d="M57.4533 54.9954C61.5033 54.9954 64.7864 52.7464 64.7864 49.9721C64.7864 47.1978 61.5033 44.9487 57.4533 44.9487C53.4034 44.9487 50.1202 47.1978 50.1202 49.9721C50.1202 52.7464 53.4034 54.9954 57.4533 54.9954Z" fill="#9A856A"/>
<path d="M59.6688 49.8127L52.6322 49.5019L58.9277 46.188C59.349 45.9666 59.5089 45.446 59.2866 45.0264L59.2085 44.8826C58.9862 44.463 58.4635 44.3038 58.0423 44.5252L50.3854 48.5579C49.9642 48.7793 49.8042 49.2999 50.0266 49.7195L50.1046 49.8632C50.3035 50.2401 50.7482 50.4071 51.1421 50.2751L59.4816 50.6441C60.0004 50.6674 60.4645 50.5004 60.5153 50.2712C60.566 50.042 60.1876 49.8399 59.6688 49.8166V49.8127Z" fill="#231815"/>
<path d="M22.5588 49.8127L29.5954 49.5019L23.2999 46.188C22.8786 45.9666 22.7187 45.446 22.941 45.0264L23.019 44.8826C23.2414 44.463 23.764 44.3038 24.1853 44.5252L31.8421 48.5579C32.2634 48.7793 32.4233 49.2999 32.201 49.7195L32.123 49.8632C31.924 50.2401 31.4794 50.4071 31.0854 50.2751L22.746 50.6441C22.2272 50.6674 21.763 50.5004 21.7123 50.2712C21.6616 50.042 22.04 49.8399 22.5588 49.8166V49.8127Z" fill="#231815"/>
<path d="M47.2026 62.2604C45.775 64.4166 42.5726 64.7313 41.3907 64.7313C40.3298 64.7313 37.026 64.4282 35.5789 62.2604" stroke="#231815" stroke-width="2" stroke-linecap="round" stroke-linejoin="round"/>
</svg>
