<svg width="185" height="168" viewBox="0 0 185 168" fill="none" xmlns="http://www.w3.org/2000/svg">
<path d="M153.824 167.5C151.584 167.5 149.469 167.037 147.534 166.129L125.119 163.838L125.132 163.702H59.8712L59.8843 163.838L37.4695 166.129C35.534 167.042 33.4198 167.5 31.1792 167.5C21.9465 167.5 11.8507 159.713 6.05735 148.124C2.49156 140.991 0.978934 133.348 1.79846 126.6C2.63977 119.664 5.83504 114.474 10.7914 111.99C12.8097 110.978 15.0285 110.467 17.3912 110.467C26.6239 110.467 36.7197 118.258 42.5174 129.852C42.8051 130.428 43.0841 131.017 43.3543 131.615C44.5923 117.368 49.7187 102.361 52.9445 92.9067L53.0142 92.6972C54.0909 89.5369 56.0569 86.704 58.8642 84.264C51.227 76.2543 47.0378 65.9267 47.0378 55.0361C47.0378 44.1455 51.0395 34.3286 58.3062 26.4106C65.1719 18.929 74.4874 13.9355 84.6704 12.2462C84.1168 11.3558 83.027 10.2863 82.1596 9.63595L81.4359 8.08638L83.2973 7.47528C83.3801 7.50147 84.9102 8.02527 86.4533 8.91136C89.0078 3.76942 98.5064 0.58298 98.951 0.43457L100.49 0.932178L100.093 2.59087C98.8639 3.53807 97.1158 5.07891 95.7165 6.74633C97.6607 5.75985 99.2693 5.1924 99.3826 5.15311L100.804 5.69001L100.551 7.29632C100.52 7.32251 97.8918 9.40024 96.292 11.7573C107.29 12.6216 117.504 17.2397 125.224 24.8828C133.441 33.0191 137.97 43.7264 137.97 55.0405C137.97 55.7694 137.952 56.4984 137.913 57.2273L158.009 26.2883C160.463 22.5039 164.622 20.2472 169.134 20.2472C170.829 20.2472 172.521 20.579 174.086 21.2162L174.831 20.0333C175.088 19.6187 175.546 19.3655 176.043 19.3655C176.309 19.3655 176.57 19.4397 176.797 19.5794L176.854 19.6143C177.224 19.8718 177.451 20.2865 177.473 20.7317L177.913 20.0333C178.17 19.6187 178.623 19.3655 179.125 19.3655C179.391 19.3655 179.652 19.4397 179.879 19.5794C180.284 19.8107 180.555 20.2865 180.555 20.7972C180.555 21.0809 180.476 21.3516 180.323 21.5785L180.136 21.8797C180.358 21.8972 180.572 21.967 180.759 22.0805C181.187 22.3337 181.452 22.8051 181.452 23.3071C181.452 23.5908 181.374 23.8571 181.221 24.0884L180.036 25.9741C183.087 30.3827 183.201 36.2187 180.241 40.7714L180.193 40.8412L134.862 101.318C137.469 109.428 140.694 120.633 141.649 131.602C141.911 131.013 142.19 130.428 142.482 129.848C148.275 118.254 158.375 110.467 167.608 110.467C169.97 110.467 172.194 110.978 174.208 111.99C179.164 114.474 182.359 119.664 183.201 126.6C184.02 133.348 182.507 140.996 178.942 148.124C173.148 159.713 163.052 167.5 153.824 167.5ZM82.2031 93.9805C82.456 94.0503 82.7132 94.1201 82.9704 94.1856L83.0227 94.1987L83.0706 94.2162L83.136 94.2336C83.4281 94.3078 83.7114 94.3777 83.9948 94.4388C84.1778 94.4781 84.3391 94.5173 84.4961 94.5479C84.701 94.5916 84.8797 94.6352 85.0584 94.6658C85.6338 94.7836 86.1831 94.8796 86.7716 94.9669C87.0157 95.0062 87.2554 95.0368 87.4908 95.0673C88.258 95.1721 88.9686 95.2419 89.6835 95.2943C90.006 95.3205 90.3156 95.338 90.6207 95.3554C91.2702 95.386 91.9066 95.4035 92.5082 95.4035C104.614 95.4035 115.751 89.8294 123.062 80.1086C124.112 78.7161 125.084 77.2189 125.952 75.6563C128.463 71.1342 130.006 66.2279 130.538 61.0772C130.572 60.7499 130.599 60.4269 130.625 60.0951C130.642 59.8856 130.66 59.6717 130.664 59.4578C130.716 58.7027 130.738 57.9519 130.738 57.1269C130.738 56.7603 130.729 56.398 130.712 56.0313C130.703 55.7476 130.694 55.5075 130.677 55.2675C130.668 55.0536 130.655 54.8702 130.642 54.6913C130.633 54.5647 130.629 54.4512 130.616 54.3377L130.585 54.0016C130.564 53.7353 130.538 53.4953 130.511 53.2596C130.503 53.2159 130.498 53.1723 130.498 53.1373C130.468 52.8973 130.437 52.6616 130.402 52.4258C130.398 52.3909 130.376 52.2556 130.376 52.2556C130.341 52.0155 130.298 51.7798 130.259 51.5485C130.259 51.531 130.25 51.5092 130.245 51.4917L130.228 51.4306V51.4001C130.193 51.1993 130.15 50.9985 130.102 50.8021L130.084 50.7279C130.054 50.5707 130.019 50.4223 129.98 50.2739L129.966 50.2172C129.94 50.1037 129.914 49.9946 129.884 49.8854C129.827 49.6759 129.775 49.4882 129.718 49.3049L129.701 49.2481C129.653 49.0692 129.592 48.8902 129.531 48.7156C129.474 48.5497 129.43 48.4013 129.369 48.2573L129.347 48.2006L129.33 48.1394C129.321 48.1089 129.304 48.074 129.291 48.0434L129.265 47.9692C129.23 47.8644 129.191 47.764 129.147 47.6637C129.06 47.4498 128.981 47.2708 128.907 47.0962C128.837 46.9347 128.768 46.7819 128.694 46.6379L128.663 46.5768C128.611 46.4589 128.55 46.3454 128.489 46.2319L128.454 46.1796L128.415 46.0879C128.044 45.3895 127.626 44.7348 127.168 44.1368L127.12 44.0713L127.081 44.0014C122.098 35.3064 112.678 28.999 104.688 28.999C101.723 28.999 99.121 29.8371 96.9502 31.4958C95.6294 32.5041 94.0688 33.0322 92.4385 33.0322C90.8081 33.0322 89.3042 32.5128 88.0226 31.5307C87.9747 31.4958 87.9311 31.4652 87.8875 31.4347C87.8221 31.3866 87.7567 31.343 87.6913 31.295L87.4865 31.1509C87.3208 31.0374 87.1421 30.9196 86.959 30.8105L86.8849 30.7625C86.6931 30.6446 86.4926 30.5311 86.2833 30.4176C86.2354 30.3914 86.1743 30.3652 86.1177 30.3391L86.0784 30.3216C85.9389 30.2474 85.7951 30.1775 85.6512 30.1077C85.5728 30.0684 85.4943 30.0379 85.4159 30.0029C85.2807 29.9418 85.1499 29.8895 85.0192 29.8371C84.9625 29.8153 84.7271 29.728 84.7271 29.728C84.6181 29.6887 84.4961 29.645 84.374 29.6014C84.374 29.6014 84.1081 29.5141 84.0471 29.4922C83.9773 29.4704 83.8683 29.4399 83.7594 29.4093L83.694 29.3918C83.5937 29.3613 83.5065 29.3395 83.4194 29.3176C83.2973 29.2871 83.1622 29.2565 83.0314 29.226L82.9268 29.2042C82.8788 29.1911 82.8265 29.1823 82.7786 29.1736L82.7306 29.1649C82.6042 29.1387 82.4821 29.1169 82.3557 29.0994L82.0288 29.0427C81.9198 29.0296 81.7672 29.0121 81.619 28.9946C81.5057 28.9772 81.4316 28.9684 81.3618 28.9597C81.1918 28.9466 81.0131 28.9335 80.8344 28.9248L80.6251 28.9073C80.4202 28.8986 80.1849 28.8942 79.9495 28.8942L79.5659 28.903C79.4569 28.903 79.3523 28.903 79.2433 28.9117L78.9512 28.9335C78.803 28.9423 78.6635 28.9466 78.5284 28.9641C78.4107 28.9728 78.3322 28.9815 78.2494 28.9946L78.1796 29.0034C78.0489 29.0165 77.9181 29.0296 77.7786 29.047C77.6653 29.0601 77.565 29.0776 77.4735 29.0907C77.3122 29.1125 77.1727 29.1387 77.0375 29.1605L76.7193 29.2173C76.5668 29.2478 76.436 29.274 76.3052 29.3045C76.1788 29.3307 76.0785 29.3526 75.987 29.3744C75.8431 29.4049 75.7167 29.4399 75.5903 29.4704L75.2372 29.5621C75.0759 29.6057 74.9234 29.6494 74.7708 29.6974L74.4787 29.7847C74.3654 29.8196 74.2608 29.8545 74.1518 29.8895L73.7202 30.0335C73.4848 30.1164 73.2407 30.2125 72.9966 30.3041C72.9356 30.3303 72.831 30.3696 72.831 30.3696C72.6348 30.4482 72.4386 30.5311 72.2381 30.614C72.1727 30.6446 72.0943 30.6795 72.0158 30.7144L71.8632 30.7843C71.7455 30.8367 71.6278 30.889 71.5101 30.9458C71.5101 30.9458 71.2617 31.068 71.205 31.0942L70.756 31.3168L70.4727 31.4696C70.307 31.5569 70.1675 31.6311 70.0237 31.7097C69.9539 31.7533 69.3523 32.0938 69.2739 32.1374L68.9818 32.3164C68.8772 32.3775 68.7813 32.4386 68.681 32.4997L68.5546 32.5783C68.5546 32.5783 68.3105 32.7354 68.2495 32.7747C68.1536 32.8358 68.0577 32.9013 67.9574 32.9668L67.5477 33.2418L66.9897 33.639C66.9504 33.6652 66.9156 33.6914 66.8807 33.7219L66.8458 33.7481C66.6409 33.8965 66.4404 34.0493 66.2399 34.2021L66.1614 34.2675C65.9348 34.4421 65.7081 34.6255 65.4858 34.8132L65.2635 35.0009C65.1196 35.1231 64.9714 35.2497 64.8232 35.3806L64.7796 35.4199C64.7316 35.4592 64.6837 35.5028 64.6357 35.5465L64.5268 35.6425C64.4047 35.7473 64.2914 35.852 64.178 35.9611C64.0647 36.0659 63.9862 36.1401 63.9034 36.2187L63.8642 36.2536C63.7421 36.3627 63.6244 36.4762 63.5067 36.5897L63.2364 36.8603C63.0926 37.0044 62.9793 37.1179 62.8703 37.2314L62.7875 37.3143C62.7308 37.371 62.6785 37.4278 62.6218 37.4889L62.1685 37.9778L61.9897 38.1786C61.9113 38.2659 61.8328 38.3532 61.7587 38.4405L61.3925 38.8639L60.9348 39.4138C60.9043 39.4531 60.8694 39.488 60.8433 39.5273C60.6776 39.7369 60.5251 39.9333 60.3768 40.1253C60.3332 40.1821 60.294 40.2345 60.2548 40.2825C60.0761 40.5225 59.9017 40.7583 59.7273 41.0027C59.6794 41.0725 59.6358 41.1336 59.5922 41.1904L59.4353 41.4217C59.3612 41.5265 59.287 41.6356 59.2173 41.7447C59.1476 41.8495 59.0865 41.9412 59.0255 42.0328L58.8947 42.238C58.8381 42.3253 58.7814 42.4126 58.7247 42.5042C58.655 42.6177 58.5939 42.7094 58.5373 42.8054L58.5068 42.8534C58.4152 43.0019 58.3237 43.1503 58.2365 43.2987C58.2365 43.2987 58.097 43.5387 58.0534 43.6173C57.9575 43.7832 57.8703 43.936 57.7919 44.0844L57.6044 44.4248C57.5521 44.5252 57.3559 44.9006 57.3559 44.9006L57.1772 45.2498C57.1031 45.4026 57.0246 45.5597 56.9505 45.7169C56.8852 45.8522 56.8372 45.9526 56.7936 46.053L56.7675 46.1097L56.75 46.1621L56.7239 46.2188C56.6716 46.3367 56.6149 46.4589 56.5626 46.5811L56.5408 46.6335C56.5059 46.7034 56.4754 46.7776 56.4449 46.8474L56.4056 46.9347C56.3315 47.1137 56.2531 47.3145 56.1703 47.5196L56.0569 47.799C55.9654 48.039 55.8651 48.3184 55.7649 48.5934C55.7518 48.6327 55.7038 48.7855 55.7038 48.7855C55.6254 49.0168 55.5469 49.2481 55.4771 49.4795L55.3725 49.8243L55.2112 50.3787C55.1894 50.4572 55.1676 50.5489 55.1459 50.6362L54.9802 51.2735L54.7884 52.1596L54.7143 52.5437C54.6838 52.7052 54.6576 52.8798 54.6271 53.0544L54.5617 53.456C54.5399 53.6044 54.5181 53.779 54.4963 53.958L54.444 54.3726C54.4266 54.5341 54.4092 54.7218 54.3917 54.9052V54.9575C54.3743 55.0579 54.3656 55.154 54.3568 55.2587C54.3438 55.4115 54.3394 55.5468 54.3307 55.6821L54.3002 56.1972C54.2915 56.4896 54.2827 56.7996 54.2827 57.1182C54.2827 57.415 54.2827 57.7118 54.2958 58.0043C54.2958 58.1964 54.3045 58.3797 54.3132 58.5586V58.5717L54.3263 58.8336C54.3263 58.9515 54.3307 59.065 54.3438 59.1785V59.2352L54.3481 59.2963C54.3481 59.2963 54.3481 59.2963 54.3481 59.2876V59.34L54.3525 59.3618C54.3568 59.4142 54.3612 59.4622 54.3612 59.5146V59.5975C54.3699 59.6586 54.3743 59.7197 54.3786 59.7808V59.842C54.3961 60.0471 54.4135 60.261 54.431 60.4661C54.4353 60.536 54.4397 60.5709 54.444 60.6015L54.4527 60.6582V60.715C54.4571 60.7761 54.4658 60.8372 54.4745 60.8983L54.4833 60.955V61.0118C54.4833 61.051 54.492 61.0947 54.4963 61.134L54.5094 61.2475C54.5399 61.5399 54.5748 61.8411 54.6184 62.1467C54.7056 62.8232 54.8015 63.4169 54.9061 63.9712C55.0151 64.6041 55.1415 65.2065 55.2766 65.7696C55.3246 65.9747 55.3682 66.1581 55.4118 66.3414L55.4379 66.4549C55.5469 66.8914 55.6646 67.3279 55.791 67.7688C55.852 67.9783 55.9218 68.1965 55.9872 68.4148C56.1136 68.8338 56.2487 69.2485 56.3926 69.6632C56.5364 70.0691 56.6846 70.4794 56.8372 70.881C56.9593 71.1996 57.0813 71.5052 57.2121 71.8064C57.4562 72.4 57.696 72.9325 57.9401 73.4432C58.328 74.2682 58.7422 75.067 59.1737 75.8309C59.3001 76.0622 59.4265 76.2761 59.553 76.49L59.6227 76.6078C59.7666 76.8566 59.9191 77.1098 60.0761 77.3499C60.2417 77.6292 60.3986 77.8693 60.5556 78.1007C60.804 78.4804 61.0525 78.8471 61.3097 79.205C61.5712 79.5804 61.8372 79.934 62.1031 80.2875C62.2731 80.5145 62.4518 80.7415 62.6305 80.9597C62.8223 81.2042 63.0098 81.4311 63.2059 81.6625C63.3977 81.8982 63.5808 82.1121 63.7726 82.3216L63.8162 82.3696C63.9819 82.5704 64.1649 82.7756 64.3655 82.9851L64.4091 83.0331C64.5355 83.1771 64.6706 83.3212 64.8101 83.4609L64.845 83.4958C65.0717 83.7446 65.3288 84.0021 65.6035 84.2684C65.8258 84.4954 66.035 84.6962 66.2443 84.8926C66.4666 85.1108 66.6758 85.2985 66.8894 85.4862C67.1248 85.7045 67.3384 85.8922 67.5564 86.0755C67.7438 86.2413 67.9138 86.3854 68.0882 86.5294C68.1667 86.5949 68.232 86.6517 68.3018 86.704L68.3454 86.739C68.5328 86.9005 68.729 87.0532 68.9208 87.2016C69.1475 87.385 69.3567 87.5465 69.5659 87.7036L69.6836 87.7909C69.8972 87.9524 70.1196 88.1139 70.3375 88.2667C70.5904 88.4544 70.8214 88.6115 71.0524 88.7687L71.1134 88.8123C71.2747 88.9258 71.4317 89.0306 71.593 89.1353C71.7368 89.2314 71.8676 89.3143 71.9896 89.3929C72.1378 89.4889 72.2817 89.5762 72.4212 89.6635C72.5127 89.7246 72.5868 89.7683 72.6566 89.8075L72.7045 89.8337C72.8789 89.9429 73.0576 90.0476 73.2407 90.1567C73.3105 90.2004 73.3541 90.2266 73.402 90.2484C73.633 90.3837 73.8466 90.5016 74.0559 90.6151L74.1649 90.6762C74.3828 90.7984 74.6051 90.9206 74.8274 91.0341L75.0018 91.1258C75.1762 91.2174 75.3723 91.3178 75.5772 91.4182C75.9826 91.6234 76.3096 91.7761 76.6191 91.9115L76.667 91.9333C76.8065 92.0031 76.9504 92.0686 77.0942 92.1297H77.1029C77.1029 92.1297 77.2729 92.2039 77.2904 92.2126L77.7263 92.3916L77.735 92.4091C77.8353 92.4527 77.9355 92.492 78.0402 92.5357C78.3017 92.6491 78.5502 92.7408 78.7986 92.8368C78.9469 92.8936 79.0733 92.946 79.204 92.9896L79.252 93.0071C79.4351 93.0769 79.6182 93.1424 79.8013 93.2079L79.919 93.2515C80.1238 93.3257 80.3636 93.4086 80.6077 93.4828C80.8605 93.5658 81.0959 93.6444 81.34 93.7142C81.6277 93.8059 81.8806 93.8801 82.1334 93.9499L82.2075 93.9717C82.2075 93.9717 82.1944 93.9717 82.1857 93.9674L82.2162 93.9761L82.2031 93.9805Z" fill="white"/>
<path d="M173.654 113.09C164.194 108.35 150.733 116.098 143.584 130.397C143.057 131.449 142.582 132.506 142.159 133.566C141.579 134.989 141.091 136.421 140.69 137.84C140.716 125.474 136.902 111.637 133.489 101.086L134.657 99.5282L179.203 40.0946C182.102 35.6336 181.67 29.9723 178.536 26.0307L180.184 23.4117C180.206 23.3811 180.214 23.3419 180.214 23.3069C180.214 23.2415 180.184 23.176 180.123 23.1411C180.031 23.0843 179.909 23.1105 179.853 23.2022L178.275 25.712C177.9 25.2712 177.486 24.8565 177.041 24.468L179.286 20.9018C179.308 20.8713 179.316 20.832 179.316 20.7971C179.316 20.7316 179.286 20.6661 179.225 20.6312C179.133 20.5745 179.011 20.6007 178.955 20.6923L176.74 24.2105C176.404 23.9355 176.051 23.678 175.677 23.4335C175.424 23.2677 175.162 23.1149 174.901 22.9708L176.204 20.9018C176.221 20.8713 176.235 20.8364 176.235 20.8014C176.235 20.7316 176.2 20.6705 176.143 20.6312C176.051 20.5745 175.929 20.6007 175.873 20.6923L174.552 22.7875C172.83 21.9058 170.969 21.4824 169.129 21.4824C165.197 21.4824 161.344 23.4117 159.042 26.9604L138.109 59.1871L136.078 62.3124C136.509 59.9509 136.732 57.5153 136.732 55.036C136.732 32.2944 117.878 13.7607 94.2735 12.8746C95.5987 9.60528 99.7879 6.31845 99.7879 6.31845C99.7879 6.31845 95.2936 7.88111 92.2814 10.391C93.1096 6.3621 99.0904 1.8007 99.3389 1.60864C98.9945 1.72213 87.9396 5.51093 87.1245 10.8275C85.4157 9.48743 82.9135 8.64498 82.9135 8.64498C82.9135 8.64498 86.3485 11.2247 86.2701 13.2588C64.8012 16.1484 48.2843 33.748 48.2843 55.036C48.2843 66.4285 53.0184 76.7735 60.7036 84.3599C57.7568 86.6515 55.4159 89.5105 54.1954 93.0942C50.5511 103.767 44.2826 122.017 44.3219 137.853C43.9208 136.43 43.4326 135.002 42.8528 133.575C42.4256 132.51 41.9505 131.449 41.423 130.397C34.274 116.098 20.8129 108.35 11.3535 113.09C1.89411 117.831 0.0196743 133.265 7.1687 147.565C14.2916 161.812 27.6829 169.551 37.1336 164.916L52.7263 163.322L58.5371 162.729L58.5109 162.462H126.496L126.47 162.729L132.285 163.322L147.874 164.916C157.329 169.551 170.716 161.812 177.839 147.565C184.988 133.265 183.113 117.831 173.654 113.09ZM131.897 59.4926C131.889 59.7196 131.871 59.9509 131.854 60.1779C131.828 60.5184 131.797 60.8545 131.762 61.1906C131.204 66.6075 129.552 71.7014 127.028 76.2454C126.139 77.8473 125.145 79.3838 124.047 80.8417C116.841 90.4228 105.385 96.6298 92.5081 96.6298C91.8542 96.6298 91.2003 96.6124 90.5508 96.5818C90.2326 96.5644 89.9143 96.5469 89.5961 96.5207C88.8376 96.4683 88.0879 96.3898 87.3424 96.2894C87.0896 96.2588 86.8368 96.2239 86.5883 96.1846C85.9998 96.0973 85.4201 95.9969 84.8403 95.8791C84.6441 95.8441 84.448 95.8005 84.2518 95.7568C84.0774 95.7219 83.9031 95.6826 83.7287 95.6433C83.4279 95.5779 83.1315 95.5037 82.8351 95.4295C82.7828 95.4164 82.7304 95.4033 82.6781 95.3858C82.4079 95.3203 82.1376 95.2461 81.8717 95.1719C81.8499 95.1676 81.8281 95.1588 81.8019 95.1501C81.5273 95.0759 81.257 94.9973 80.9868 94.91C80.7296 94.8358 80.4768 94.7529 80.2239 94.6699C79.9624 94.587 79.7052 94.4997 79.4524 94.4081C79.4306 94.3993 79.4044 94.3906 79.3826 94.3819C79.1821 94.312 78.9816 94.2378 78.781 94.1636C78.6328 94.1112 78.489 94.0545 78.3451 93.9977C78.0836 93.8974 77.822 93.797 77.5648 93.6878C77.3164 93.5874 77.0679 93.4827 76.8238 93.3736C76.8194 93.3736 76.8151 93.3736 76.8107 93.3648C76.5753 93.2688 76.3399 93.164 76.1089 93.0505C75.7427 92.889 75.3809 92.7144 75.0234 92.5355C74.8099 92.4307 74.605 92.326 74.3957 92.2168C74.3478 92.1906 74.2955 92.1645 74.2475 92.1383C74.0121 92.016 73.7767 91.8895 73.5457 91.7585C73.5195 91.7498 73.4934 91.7323 73.4672 91.7149C73.2405 91.5926 73.0139 91.4661 72.7915 91.3351C72.7305 91.3002 72.6695 91.2653 72.6128 91.2303C72.4167 91.1169 72.2249 91.0034 72.0374 90.8855C71.9459 90.8331 71.8543 90.7764 71.7672 90.7196C71.6189 90.628 71.4707 90.5363 71.3225 90.4403C71.1917 90.3574 71.0566 90.2701 70.9258 90.1828C70.7471 90.0693 70.5727 89.9514 70.3984 89.8292C70.3853 89.8205 70.3722 89.8117 70.3591 89.803C70.1107 89.6371 69.8622 89.4669 69.6224 89.2879C69.3914 89.1264 69.1604 88.9562 68.9337 88.786C68.8988 88.7598 68.8639 88.7336 68.8291 88.7074C68.6024 88.5415 68.3801 88.3669 68.1578 88.188C67.9485 88.0265 67.7393 87.8606 67.5344 87.686C67.4559 87.6249 67.3775 87.5594 67.299 87.4939C67.1116 87.3411 66.9285 87.184 66.7454 87.0225C66.5144 86.8261 66.2833 86.6253 66.061 86.4158C65.8343 86.215 65.6077 86.0098 65.3897 85.796C65.1674 85.5864 64.9451 85.3726 64.7358 85.1587C64.4568 84.888 64.1866 84.613 63.9294 84.3337C63.7681 84.1722 63.6112 84.0063 63.4673 83.8404C63.2537 83.6178 63.0488 83.3909 62.857 83.1595C62.6478 82.9325 62.4516 82.7012 62.2598 82.4655C62.0549 82.2254 61.8588 81.9853 61.667 81.7409C61.4795 81.5095 61.2964 81.2738 61.1177 81.0381C60.8387 80.6715 60.5641 80.3048 60.3026 79.9294C60.0366 79.5584 59.7794 79.1786 59.5266 78.7945C59.3566 78.5414 59.191 78.2838 59.034 78.0219C58.8684 77.7644 58.7071 77.4981 58.5545 77.2362C58.3976 76.97 58.2407 76.7081 58.0925 76.4374C57.6391 75.6343 57.2163 74.8137 56.8239 73.98C56.5537 73.4212 56.3052 72.8582 56.0698 72.2863C55.9347 71.9677 55.8039 71.6491 55.6818 71.3261C55.5205 70.9114 55.368 70.488 55.2198 70.0646C55.0716 69.6368 54.9321 69.209 54.8013 68.7813C54.7315 68.5587 54.6618 68.3317 54.5964 68.1091C54.4656 67.6551 54.3436 67.2011 54.2302 66.7472C54.1736 66.5158 54.1169 66.2889 54.0646 66.0575C53.9164 65.4421 53.79 64.8222 53.681 64.198C53.5633 63.5739 53.4674 62.9453 53.3846 62.3124C53.341 61.9937 53.3017 61.6751 53.2712 61.3564C53.2625 61.2604 53.2494 61.16 53.2451 61.064C53.232 60.968 53.2189 60.8676 53.2146 60.7715C53.2058 60.7104 53.2015 60.645 53.1971 60.5838C53.1753 60.3612 53.1579 60.1343 53.1448 59.9116C53.1317 59.7938 53.1274 59.6759 53.1186 59.5581C53.1186 59.5275 53.1186 59.497 53.1143 59.4664C53.1143 59.449 53.1099 59.4271 53.1099 59.4097C53.1056 59.3704 53.1056 59.3267 53.1056 59.2874C53.0925 59.1478 53.0881 59.0037 53.0838 58.864C53.0794 58.8553 53.0794 58.8422 53.0794 58.8335C53.0794 58.7942 53.0794 58.7549 53.0751 58.7156C53.0663 58.4887 53.0576 58.2617 53.0533 58.0347C53.0445 57.7292 53.0402 57.4236 53.0402 57.1137C53.0402 56.7863 53.0489 56.4633 53.0576 56.1403C53.062 56.0312 53.0707 55.9264 53.0751 55.8173C53.0881 55.6034 53.0969 55.3852 53.1143 55.1713C53.123 55.0447 53.1361 54.9225 53.1492 54.7959C53.1666 54.5995 53.184 54.403 53.2058 54.211C53.2233 54.0757 53.2407 53.9447 53.2581 53.8138C53.2799 53.6261 53.3061 53.4384 53.3322 53.2507C53.354 53.1197 53.3758 52.9844 53.3976 52.8491C53.4281 52.6658 53.4587 52.4824 53.4935 52.2991C53.5197 52.1682 53.5458 52.0329 53.572 51.9019C53.6112 51.7186 53.6505 51.5352 53.6897 51.3519C53.7202 51.221 53.7464 51.09 53.7769 50.9591C53.8248 50.7757 53.8728 50.588 53.9207 50.4047C53.9512 50.2825 53.9818 50.1559 54.0166 50.0337C54.0733 49.8373 54.13 49.6408 54.1866 49.4444C54.2215 49.3353 54.252 49.2262 54.2869 49.1171C54.361 48.8726 54.4438 48.6282 54.5267 48.3837C54.5441 48.327 54.5659 48.2702 54.5833 48.2091C54.6879 47.9123 54.7969 47.6111 54.9103 47.3143C54.9451 47.2314 54.98 47.1441 55.0149 47.0611C55.0977 46.8516 55.1805 46.6421 55.2677 46.4326C55.3157 46.3235 55.3636 46.21 55.4159 46.1009C55.4726 45.9655 55.5336 45.8302 55.5947 45.6993C55.6121 45.6513 55.6339 45.6076 55.6557 45.5596C55.708 45.4417 55.7647 45.3239 55.8213 45.206C55.8998 45.0358 55.9826 44.8656 56.0654 44.6997C56.1265 44.5775 56.1875 44.4596 56.2485 44.3374C56.3314 44.1759 56.4185 44.0144 56.5014 43.8485C56.5667 43.7307 56.6321 43.6128 56.6975 43.495C56.7847 43.3335 56.8762 43.172 56.9678 43.0148C57.0332 42.897 57.1029 42.7791 57.1683 42.6656C57.2642 42.5041 57.3601 42.3426 57.4604 42.1855C57.5258 42.072 57.5955 41.9629 57.6653 41.8537C57.7699 41.6835 57.8789 41.522 57.9835 41.3561C58.0489 41.2557 58.1143 41.1553 58.1796 41.0593C58.3061 40.8672 58.4412 40.6796 58.572 40.4875C58.6199 40.4177 58.6679 40.3478 58.7158 40.2823C58.8989 40.0248 59.0863 39.7716 59.2738 39.5185C59.3174 39.4661 59.3566 39.4137 59.3958 39.3613C59.5484 39.1649 59.701 38.9685 59.8536 38.7764C59.9233 38.6848 59.9974 38.6018 60.0715 38.5102C60.1979 38.3574 60.3243 38.2046 60.4508 38.0518C60.5336 37.9558 60.6164 37.8598 60.6992 37.7637C60.8213 37.6241 60.9433 37.48 61.0698 37.3403C61.1569 37.2443 61.2441 37.1483 61.3313 37.0523C61.4577 36.9169 61.5798 36.786 61.7062 36.6507C61.7934 36.5546 61.8849 36.463 61.9765 36.367C62.1029 36.236 62.2293 36.1094 62.3601 35.9785C62.4516 35.8868 62.5432 35.7951 62.6347 35.7035C62.7655 35.5769 62.8963 35.4503 63.0314 35.3281C63.1229 35.2408 63.2145 35.1535 63.3104 35.0662C63.4455 34.9352 63.585 34.813 63.7289 34.6864C63.816 34.6079 63.9032 34.5249 63.9948 34.4507C64.1517 34.311 64.3086 34.1757 64.4699 34.0404C64.544 33.9793 64.6138 33.9182 64.6879 33.8571C64.9233 33.6607 65.163 33.4686 65.3984 33.2853C65.4071 33.2766 65.4158 33.2722 65.4246 33.2635C65.6556 33.0845 65.8866 32.9099 66.122 32.7397C66.2005 32.6785 66.2833 32.6218 66.3661 32.5607C66.5274 32.4472 66.6887 32.3293 66.85 32.2159C66.9503 32.1504 67.0462 32.0849 67.1464 32.0194C67.2946 31.919 67.4429 31.8143 67.5954 31.7183C67.7001 31.6528 67.8003 31.5829 67.9049 31.5175C68.0531 31.4258 68.197 31.3341 68.3452 31.2468C68.4542 31.1814 68.5588 31.1159 68.6678 31.0504C68.816 30.9675 68.9598 30.8802 69.1081 30.7972C69.217 30.7361 69.326 30.675 69.4306 30.6139C69.5832 30.531 69.7314 30.4524 69.884 30.3738C69.9886 30.3171 70.0976 30.2603 70.2022 30.2036C70.3591 30.125 70.5117 30.0508 70.6686 29.9723C70.7733 29.9242 70.8735 29.8719 70.9781 29.8239C71.1438 29.7453 71.3138 29.6711 71.4794 29.5969C71.571 29.5532 71.6625 29.5096 71.7541 29.4703C71.972 29.3786 72.1856 29.2913 72.3992 29.204C72.4472 29.1866 72.4908 29.1647 72.5387 29.1473C72.7959 29.0469 73.0575 28.9465 73.319 28.8548C73.3975 28.8286 73.4759 28.8025 73.55 28.7763C73.7375 28.7151 73.9206 28.6497 74.108 28.5929L74.4088 28.5013C74.5701 28.4533 74.7314 28.4052 74.8927 28.3616C75.0016 28.331 75.1106 28.3048 75.2196 28.2743C75.3765 28.235 75.5291 28.1957 75.686 28.1608C75.795 28.1346 75.9084 28.1084 76.0173 28.0866C76.1699 28.0517 76.3225 28.0211 76.475 27.9906C76.5884 27.9687 76.6974 27.9513 76.8107 27.9295C76.9633 27.9033 77.1158 27.8771 77.2684 27.8552C77.3774 27.8378 77.4907 27.8203 77.5997 27.8072C77.7566 27.7854 77.9092 27.768 78.0618 27.7549C78.1708 27.7418 78.2754 27.7287 78.3844 27.7199C78.5456 27.7025 78.7113 27.6937 78.8726 27.685C78.9685 27.6763 79.0644 27.6719 79.1603 27.6632C79.3521 27.6545 79.5439 27.6545 79.7313 27.6501C79.8011 27.6501 79.8665 27.6457 79.9362 27.6457C80.1934 27.6457 80.4506 27.6501 80.7034 27.6632C80.7645 27.6676 80.8211 27.6719 80.8778 27.6763C81.074 27.685 81.2701 27.6981 81.4663 27.7156C81.5578 27.7243 81.6494 27.7374 81.7409 27.7505C81.9022 27.768 82.0635 27.7854 82.2204 27.8072C82.325 27.8247 82.4253 27.8422 82.5256 27.8596C82.6738 27.8814 82.822 27.9076 82.9702 27.9382C83.0748 27.9556 83.1794 27.9818 83.2797 28.0037C83.4236 28.0342 83.5674 28.0691 83.7113 28.1041C83.8159 28.1302 83.9161 28.1564 84.0208 28.187C84.1603 28.2263 84.3041 28.2656 84.4436 28.3092C84.5439 28.3441 84.6485 28.3747 84.7487 28.4096C84.8882 28.4576 85.0277 28.5056 85.1672 28.558C85.2675 28.5973 85.3677 28.6322 85.4636 28.6715C85.6075 28.7282 85.7513 28.7894 85.8908 28.8505C85.9824 28.8897 86.0739 28.929 86.1655 28.9727C86.3224 29.0469 86.4793 29.1255 86.6319 29.204C86.706 29.2389 86.7801 29.2739 86.8542 29.3132C87.0809 29.4354 87.3032 29.562 87.5255 29.6973C87.5473 29.7104 87.5648 29.7235 87.5866 29.7366C87.7871 29.8588 87.9876 29.9897 88.1838 30.125C88.2579 30.1774 88.332 30.2298 88.4061 30.2822C88.5194 30.3695 88.6415 30.448 88.7548 30.5353C90.9649 32.2246 93.9771 32.1809 96.1872 30.4961C105.494 23.3942 120.986 30.8933 128.14 43.3727C128.646 44.0362 129.103 44.7564 129.509 45.5247C129.517 45.5378 129.522 45.5552 129.53 45.5683C129.618 45.7255 129.7 45.887 129.775 46.0485C129.866 46.2231 129.949 46.402 130.027 46.5854C130.106 46.7643 130.184 46.952 130.263 47.1397C130.324 47.275 130.376 47.4147 130.424 47.5544C130.455 47.6286 130.485 47.7028 130.507 47.777C130.577 47.9472 130.633 48.1218 130.69 48.2964C130.76 48.4972 130.825 48.698 130.882 48.9032C130.947 49.104 131.004 49.3135 131.06 49.523C131.1 49.6583 131.135 49.7936 131.165 49.9333C131.213 50.1123 131.257 50.2956 131.292 50.4833C131.348 50.7103 131.396 50.9416 131.435 51.173C131.444 51.2035 131.448 51.2341 131.457 51.2646C131.505 51.5222 131.553 51.7884 131.592 52.059C131.601 52.1071 131.605 52.1507 131.614 52.1944C131.658 52.465 131.693 52.7356 131.727 53.015C131.727 53.0281 131.727 53.0412 131.732 53.0586C131.762 53.3205 131.793 53.5868 131.815 53.8574C131.823 53.9578 131.832 54.0626 131.841 54.1673C131.858 54.307 131.867 54.4467 131.876 54.5907C131.889 54.7828 131.902 54.9748 131.911 55.1713C131.928 55.4332 131.937 55.6951 131.945 55.9613C131.963 56.3455 131.972 56.7296 131.972 57.1137C131.972 57.9125 131.95 58.7069 131.897 59.4926Z" fill="#BEA483"/>
<path d="M131.946 55.9616C131.963 56.3457 131.972 56.7298 131.972 57.114C131.972 57.9128 131.95 58.7072 131.898 59.4929C131.889 59.7199 131.872 59.9512 131.854 60.1782C131.828 60.5186 131.798 60.8548 131.763 61.1909C131.205 66.6078 129.553 71.7017 127.029 76.2457C126.14 77.8476 125.146 79.3841 124.047 80.842C116.841 90.4231 105.386 96.6301 92.5086 96.6301C91.8548 96.6301 91.2009 96.6127 90.5514 96.5821C90.2332 96.5646 89.9149 96.5472 89.5967 96.521C88.8382 96.4686 88.0884 96.39 87.343 96.2896C87.0902 96.2591 86.8374 96.2242 86.5889 96.1849C86.0004 96.0976 85.4206 95.9972 84.8409 95.8793C84.6447 95.8444 84.4485 95.8008 84.2524 95.7571C84.078 95.7222 83.9036 95.6829 83.7293 95.6436C83.4285 95.5781 83.1321 95.504 82.8357 95.4297C82.7833 95.4166 82.731 95.4035 82.6787 95.3861C82.4085 95.3206 82.1382 95.2464 81.8723 95.1722C81.8505 95.1678 81.8287 95.1591 81.8025 95.1504C81.5279 95.0762 81.2576 94.9976 80.9874 94.9103C80.7302 94.8361 80.4773 94.7532 80.2245 94.6702C79.963 94.5873 79.7058 94.5 79.4529 94.4083C79.4311 94.3996 79.405 94.3909 79.3832 94.3821C79.1827 94.3123 78.9822 94.2381 78.7816 94.1639C78.6334 94.1115 78.4896 94.0548 78.3457 93.998C78.0842 93.8976 77.8226 93.7972 77.5654 93.6881C77.3169 93.5877 77.0685 93.483 76.8244 93.3738C76.82 93.3738 76.8156 93.3738 76.8113 93.3651C76.5759 93.2647 76.3405 93.16 76.1095 93.0508C75.7433 92.8893 75.3815 92.7147 75.024 92.5358C74.8104 92.431 74.6056 92.3262 74.3963 92.2171C74.3484 92.1909 74.296 92.1647 74.2481 92.1385C74.0127 92.0163 73.7773 91.8897 73.5463 91.7588C73.5201 91.7501 73.494 91.7326 73.4678 91.7151C73.2411 91.5929 73.0145 91.4663 72.7921 91.3354C72.7311 91.3005 72.6701 91.2656 72.6134 91.2306C72.4172 91.1171 72.2255 91.0037 72.038 90.8858C71.9465 90.8334 71.8549 90.7767 71.7677 90.7199C71.6195 90.6283 71.4713 90.5366 71.3231 90.4406C71.1923 90.3576 71.0572 90.2703 70.9264 90.183C70.7477 90.0695 70.5733 89.9517 70.399 89.8295C70.3859 89.8207 70.3728 89.812 70.3597 89.8033C70.1113 89.6374 69.8628 89.4672 69.623 89.2882C69.392 89.1267 69.161 88.9565 68.9343 88.7862C68.8994 88.7601 68.8645 88.7339 68.8297 88.7077C68.603 88.5374 68.3807 88.3628 68.1584 88.1882C67.9491 88.0267 67.7399 87.8565 67.535 87.6863C67.4565 87.6252 67.3781 87.5597 67.2996 87.4942C67.1122 87.3414 66.9291 87.1843 66.746 87.0228C66.5149 86.8264 66.2883 86.6212 66.0616 86.4161C65.8349 86.2153 65.6082 86.0101 65.3903 85.7962C65.168 85.5867 64.9456 85.3728 64.7364 85.159C64.4574 84.8883 64.1872 84.6133 63.93 84.334C63.773 84.1725 63.6205 84.0066 63.4679 83.8407C63.2586 83.6181 63.0581 83.3911 62.8576 83.1598C62.6571 82.9328 62.4566 82.7015 62.2604 82.4658C62.0555 82.2257 61.8594 81.9856 61.6676 81.7412C61.4801 81.5098 61.297 81.2741 61.1183 81.0384C60.8437 80.6718 60.569 80.3051 60.3031 79.9297C60.0372 79.5587 59.78 79.1789 59.5272 78.7948C59.3616 78.5373 59.1959 78.2797 59.0346 78.0222C58.869 77.7647 58.7077 77.4984 58.5551 77.2365C58.3982 76.9702 58.2413 76.7083 58.093 76.4377C57.644 75.6346 57.2212 74.814 56.8245 73.9802C56.5586 73.4215 56.3101 72.8584 56.0704 72.2866C55.9353 71.968 55.8045 71.6493 55.6824 71.3263C55.5211 70.9117 55.3686 70.4883 55.2204 70.0649C55.0765 69.6371 54.9326 69.2093 54.8019 68.7816C54.7321 68.5589 54.6624 68.332 54.597 68.1093C54.4662 67.6554 54.3442 67.2014 54.2308 66.7475C54.1742 66.5161 54.1175 66.2891 54.0652 66.0578C53.9257 65.4423 53.7949 64.8225 53.6816 64.1983C53.5682 63.5741 53.4723 62.9456 53.3851 62.3127C53.3459 61.994 53.3067 61.6754 53.2718 61.3567C53.2631 61.2607 53.25 61.1603 53.2457 61.0643C53.2326 60.9682 53.2239 60.8722 53.2195 60.7762C53.2151 60.7369 53.2108 60.6976 53.2064 60.654C53.2021 60.6321 53.2021 60.6059 53.1977 60.5841C53.1933 60.523 53.189 60.4619 53.1846 60.3964C53.1715 60.2349 53.1541 60.0734 53.1454 59.9119C53.141 59.8814 53.1367 59.8464 53.141 59.8159C53.128 59.6849 53.1236 59.5583 53.1149 59.4274C53.1105 59.423 53.1105 59.4143 53.1105 59.4099C53.1062 59.3707 53.1062 59.327 53.1062 59.2877C53.0931 59.148 53.0887 59.004 53.0844 58.8643C53.08 58.8556 53.08 58.8425 53.08 58.8338C53.08 58.7945 53.08 58.7552 53.0756 58.7159C53.0669 58.4889 53.0582 58.262 53.0538 58.035C53.0451 57.7294 53.0408 57.4239 53.0408 57.114C53.0408 56.7866 53.0495 56.4636 53.0582 56.1406C53.0626 56.0314 53.0713 55.9267 53.0756 55.8176C53.0887 55.6037 53.0974 55.3854 53.1149 55.1715C53.1236 55.045 53.1367 54.9227 53.1498 54.7962C53.1672 54.5997 53.1846 54.4033 53.2064 54.2113C53.2239 54.0759 53.2413 53.945 53.2587 53.814C53.2805 53.6263 53.3067 53.4387 53.3328 53.251C53.3546 53.12 53.3764 52.9847 53.3982 52.8494C53.4287 52.6661 53.4593 52.4827 53.4941 52.2994C53.5203 52.1684 53.5464 52.0331 53.5726 51.9022C53.6118 51.7189 53.6511 51.5355 53.6903 51.3522C53.7208 51.2212 53.747 51.0903 53.7775 50.9593C53.8254 50.776 53.8734 50.5883 53.9213 50.405C53.9518 50.2828 53.9823 50.1562 54.0172 50.034C54.0739 49.8375 54.1306 49.6411 54.1872 49.4447C54.2221 49.3356 54.2526 49.2264 54.2875 49.1173C54.3616 48.8729 54.4444 48.6284 54.5272 48.384C54.5447 48.3273 54.5665 48.2705 54.5839 48.2094C54.6885 47.9126 54.7975 47.6114 54.9109 47.3146C54.9457 47.2317 54.9806 47.1444 55.0155 47.0614C55.0983 46.8519 55.1811 46.6424 55.2683 46.4329C55.3163 46.3237 55.3642 46.2102 55.4165 46.1011C55.4732 45.9658 55.5342 45.8305 55.5952 45.6995C55.6127 45.6515 55.6345 45.6079 55.6563 45.5599C55.7086 45.442 55.7653 45.3242 55.8219 45.2063C55.9004 45.0361 55.9832 44.8658 56.066 44.7C56.1271 44.5777 56.1881 44.4599 56.2491 44.3377C56.3319 44.1762 56.4191 44.0147 56.5019 43.8488C56.5673 43.7309 56.6327 43.6131 56.6981 43.4952C56.7853 43.3337 56.8768 43.1722 56.9684 43.0151C57.0338 42.8972 57.1035 42.7794 57.1689 42.6659C57.2648 42.5044 57.3607 42.3429 57.461 42.1857C57.5264 42.0722 57.5961 41.9631 57.6658 41.854C57.7705 41.6838 57.8794 41.5223 57.9841 41.3564C58.0494 41.256 58.1148 41.1556 58.1802 41.0596C58.3066 40.8675 58.4418 40.6798 58.5726 40.4878C58.6205 40.4179 58.6685 40.3481 58.7164 40.2826C58.8995 40.0251 59.0869 39.7719 59.2744 39.5187C59.318 39.4664 59.3572 39.414 59.3964 39.3616C59.549 39.1652 59.7016 38.9687 59.8541 38.7767C59.9239 38.685 59.998 38.6021 60.0721 38.5104C60.1985 38.3577 60.3249 38.2049 60.4513 38.0521C60.5342 37.9561 60.617 37.86 60.6998 37.764C60.8219 37.6243 60.9439 37.4803 61.0703 37.3406C61.1575 37.2446 61.2447 37.1486 61.3319 37.0525C61.4583 36.9172 61.5804 36.7863 61.7068 36.6509C61.794 36.5549 61.8855 36.4633 61.9771 36.3672C62.1035 36.2363 62.2299 36.1097 62.3607 35.9787C62.4522 35.8871 62.5437 35.7954 62.6353 35.7037C62.7661 35.5772 62.8968 35.4506 63.032 35.3284C63.1235 35.2411 63.2151 35.1538 63.311 35.0665C63.4461 34.9355 63.5856 34.8133 63.7294 34.6867C63.8166 34.6081 63.9038 34.5252 63.9954 34.451C64.1523 34.3113 64.3092 34.176 64.4705 34.0407C64.5446 33.9796 64.6144 33.9185 64.6885 33.8574C64.9239 33.6609 65.1636 33.4689 65.399 33.2855C65.4077 33.2768 65.4164 33.2725 65.4252 33.2637C65.6562 33.0848 65.8872 32.9102 66.1226 32.7399C66.2011 32.6788 66.2839 32.6221 66.3667 32.561C66.528 32.4475 66.6893 32.3296 66.8506 32.2161C66.9509 32.1507 67.0468 32.0852 67.147 32.0197C67.2952 31.9193 67.4434 31.8145 67.596 31.7185C67.7006 31.653 67.8009 31.5832 67.9055 31.5177C68.0537 31.4261 68.1976 31.3344 68.3458 31.2471C68.4548 31.1816 68.5594 31.1162 68.6684 31.0507C68.8166 30.9677 68.9604 30.8804 69.1086 30.7975C69.2176 30.7364 69.3266 30.6753 69.4312 30.6142C69.5838 30.5312 69.732 30.4527 69.8846 30.3741C69.9892 30.3174 70.0982 30.2606 70.2028 30.2039C70.3597 30.1253 70.5123 30.0511 70.6692 29.9725C70.7738 29.9245 70.8741 29.8721 70.9787 29.8241C71.1444 29.7456 71.3144 29.6713 71.48 29.5971C71.5716 29.5535 71.6631 29.5098 71.7547 29.4706C71.9726 29.3789 72.1862 29.2916 72.3998 29.2043C72.4478 29.1868 72.4914 29.165 72.5393 29.1475C72.7965 29.0472 73.0581 28.9468 73.3196 28.8551C73.3981 28.8289 73.4765 28.8027 73.5506 28.7765C73.7381 28.7154 73.9212 28.6499 74.1086 28.5932L74.4094 28.5015C74.5707 28.4535 74.732 28.4055 74.8933 28.3619C75.0022 28.3313 75.1112 28.3051 75.2202 28.2746C75.3771 28.2353 75.5297 28.196 75.6866 28.1611C75.7956 28.1349 75.9089 28.1087 76.0179 28.0869C76.1705 28.0519 76.3231 28.0214 76.4756 27.9908C76.589 27.969 76.698 27.9515 76.8113 27.9297C76.9639 27.9035 77.1164 27.8773 77.269 27.8555C77.378 27.8381 77.4913 27.8206 77.6003 27.8075C77.7572 27.7857 77.9098 27.7682 78.0624 27.7551C78.1713 27.742 78.276 27.7289 78.3849 27.7202C78.5462 27.7027 78.7119 27.694 78.8732 27.6853C78.9691 27.6766 79.065 27.6722 79.1609 27.6635C79.3527 27.6547 79.5445 27.6547 79.7319 27.6504C79.8017 27.6504 79.8671 27.646 79.9368 27.646C80.194 27.646 80.4512 27.6504 80.704 27.6635C80.7651 27.6678 80.8217 27.6722 80.8784 27.6766C81.0746 27.6853 81.2707 27.6984 81.4669 27.7158C81.5584 27.7246 81.65 27.7377 81.7415 27.7508C81.9028 27.7682 82.0641 27.7857 82.221 27.8075C82.3256 27.825 82.4259 27.8424 82.5262 27.8599C82.6744 27.8817 82.8226 27.9079 82.9708 27.9384C83.0754 27.9559 83.18 27.9821 83.2803 28.0039C83.4241 28.0345 83.568 28.0694 83.7118 28.1043C83.8165 28.1305 83.9167 28.1567 84.0213 28.1873C84.1608 28.2265 84.3047 28.2658 84.4442 28.3095C84.5444 28.3444 84.6491 28.3749 84.7493 28.4099C84.8888 28.4579 85.0283 28.5059 85.1678 28.5583C85.2681 28.5976 85.3683 28.6325 85.4642 28.6718C85.6081 28.7285 85.7519 28.7896 85.8914 28.8507C85.983 28.89 86.0745 28.9293 86.1661 28.9729C86.323 29.0472 86.4799 29.1257 86.6325 29.2043C86.7066 29.2392 86.7807 29.2741 86.8548 29.3134C87.0815 29.4356 87.3038 29.5622 87.5261 29.6975C87.5479 29.7106 87.5653 29.7237 87.5871 29.7368C87.7877 29.859 87.9882 29.99 88.1843 30.1253C88.2584 30.1777 88.3326 30.2301 88.4067 30.2824C88.52 30.3697 88.6421 30.4483 88.7554 30.5356C90.9655 32.2249 93.9777 32.1812 96.1878 30.4963C105.495 23.3945 120.987 30.8935 128.14 43.373C128.646 44.0365 129.104 44.7567 129.509 45.5249C129.518 45.538 129.522 45.5555 129.531 45.5686C129.618 45.7257 129.701 45.8872 129.775 46.0487C129.862 46.2233 129.945 46.4023 130.028 46.5856C130.106 46.7646 130.185 46.9523 130.263 47.14C130.32 47.2753 130.372 47.415 130.425 47.5547C130.455 47.6289 130.486 47.7031 130.507 47.7773C130.573 47.9475 130.634 48.1221 130.691 48.2967C130.76 48.4975 130.826 48.6983 130.882 48.9034C130.948 49.1042 131.004 49.3137 131.061 49.5233C131.1 49.6586 131.135 49.7939 131.166 49.9336C131.214 50.1125 131.257 50.2959 131.292 50.4836C131.349 50.7105 131.397 50.9419 131.436 51.1732C131.445 51.2038 131.449 51.2343 131.458 51.2649C131.506 51.5224 131.554 51.7887 131.593 52.0593C131.602 52.1073 131.606 52.151 131.615 52.1946C131.658 52.4653 131.693 52.7359 131.728 53.0152C131.728 53.0283 131.728 53.0414 131.732 53.0589C131.763 53.3208 131.793 53.5871 131.815 53.8577C131.824 53.9581 131.833 54.0628 131.841 54.1676C131.854 54.3073 131.868 54.447 131.876 54.591C131.889 54.7831 131.902 54.9751 131.911 55.1715C131.929 55.4334 131.937 55.6953 131.946 55.9616Z" fill="white"/>
<path d="M131.972 57.114C131.972 57.9128 131.95 58.7072 131.898 59.4929C131.889 59.7199 131.872 59.9512 131.854 60.1782C131.828 60.5186 131.798 60.8548 131.763 61.1909C131.205 66.6078 129.553 71.7017 127.029 76.2457C126.14 77.8476 125.146 79.3841 124.047 80.842C116.841 90.4231 105.386 96.6301 92.5086 96.6301C91.8548 96.6301 91.2009 96.6127 90.5514 96.5821C90.2332 96.5646 89.9149 96.5472 89.5967 96.521C88.8382 96.4686 88.0884 96.39 87.343 96.2896C87.0902 96.2591 86.8374 96.2242 86.5889 96.1849C86.0004 96.0976 85.4206 95.9972 84.8409 95.8793C84.6447 95.8444 84.4485 95.8008 84.2524 95.7571C84.078 95.7222 83.9036 95.6829 83.7293 95.6436C83.4285 95.5781 83.1321 95.504 82.8357 95.4297C82.7833 95.4166 82.731 95.4035 82.6787 95.3861C82.4085 95.3206 82.1382 95.2464 81.8723 95.1722C81.8505 95.1678 81.8287 95.1591 81.8025 95.1504C81.5279 95.0762 81.2576 94.9976 80.9874 94.9103C80.7302 94.8361 80.4773 94.7532 80.2245 94.6702C79.963 94.5873 79.7058 94.5 79.4529 94.4083C79.4311 94.3996 79.405 94.3909 79.3832 94.3821C79.1827 94.3123 78.9822 94.2381 78.7816 94.1639C78.6334 94.1115 78.4896 94.0548 78.3457 93.998C78.0842 93.8976 77.8226 93.7972 77.5654 93.6881C77.3169 93.5877 77.0685 93.483 76.8244 93.3738C76.82 93.3738 76.8156 93.3738 76.8113 93.3651C76.5759 93.2647 76.3405 93.16 76.1095 93.0508C75.7433 92.8893 75.3815 92.7147 75.024 92.5358C74.8104 92.431 74.6056 92.3262 74.3963 92.2171C74.3484 92.1909 74.296 92.1647 74.2481 92.1385C74.0127 92.0163 73.7773 91.8897 73.5463 91.7588C73.5201 91.7501 73.494 91.7326 73.4678 91.7151C73.2411 91.5929 73.0145 91.4663 72.7921 91.3354C72.7311 91.3005 72.6701 91.2656 72.6134 91.2306C72.4172 91.1171 72.2255 91.0037 72.038 90.8858C71.9465 90.8334 71.8549 90.7767 71.7677 90.7199C71.6195 90.6283 71.4713 90.5366 71.3231 90.4406C71.1923 90.3576 71.0572 90.2703 70.9264 90.183C70.7477 90.0695 70.5733 89.9517 70.399 89.8295C70.3859 89.8207 70.3728 89.812 70.3597 89.8033C70.1113 89.6374 69.8628 89.4672 69.623 89.2882C69.392 89.1267 69.161 88.9565 68.9343 88.7862C68.8994 88.7601 68.8645 88.7339 68.8297 88.7077C68.603 88.5374 68.3807 88.3628 68.1584 88.1882C67.9491 88.0267 67.7399 87.8565 67.535 87.6863C67.4565 87.6252 67.3781 87.5597 67.2996 87.4942C67.1122 87.3414 66.9291 87.1843 66.746 87.0228C66.5149 86.8264 66.2883 86.6212 66.0616 86.4161C65.8349 86.2153 65.6082 86.0101 65.3903 85.7962C65.168 85.5867 64.9456 85.3728 64.7364 85.159C64.4574 84.8883 64.1872 84.6133 63.93 84.334C63.773 84.1725 63.6205 84.0066 63.4679 83.8407C63.2586 83.6181 63.0581 83.3911 62.8576 83.1598C62.6571 82.9328 62.4566 82.7015 62.2604 82.4658C62.0555 82.2257 61.8594 81.9856 61.6676 81.7412C61.4801 81.5098 61.297 81.2741 61.1183 81.0384C60.8437 80.6718 60.569 80.3051 60.3031 79.9297C60.0372 79.5587 59.78 79.1789 59.5272 78.7948C59.3616 78.5373 59.1959 78.2797 59.0346 78.0222C58.869 77.7647 58.7077 77.4984 58.5551 77.2365C58.3982 76.9702 58.2413 76.7083 58.093 76.4377C57.644 75.6346 57.2212 74.814 56.8245 73.9802C56.5586 73.4215 56.3101 72.8584 56.0704 72.2866C55.9353 71.968 55.8045 71.6493 55.6824 71.3263C55.5211 70.9117 55.3686 70.4883 55.2204 70.0649C55.0765 69.6371 54.9326 69.2093 54.8019 68.7816C54.7321 68.5589 54.6624 68.332 54.597 68.1093C54.4662 67.6554 54.3442 67.2014 54.2308 66.7475C54.1742 66.5161 54.1175 66.2891 54.0652 66.0578C53.9257 65.4423 53.7949 64.8225 53.6816 64.1983C53.5682 63.5741 53.4723 62.9456 53.3851 62.3127C53.3459 61.994 53.3067 61.6754 53.2718 61.3567C53.2631 61.2607 53.25 61.1603 53.2457 61.0643C53.2326 60.9682 53.2239 60.8722 53.2195 60.7762C53.2151 60.7369 53.2108 60.6976 53.2064 60.654C53.2021 60.6321 53.2021 60.6059 53.1977 60.5841C53.1933 60.523 53.189 60.4619 53.1846 60.3964C53.1715 60.2349 53.1541 60.0734 53.1454 59.9119C53.141 59.8814 53.1367 59.8464 53.141 59.8159C53.128 59.6849 53.1236 59.5583 53.1149 59.4274C53.1105 59.423 53.1105 59.4143 53.1105 59.4099C53.1062 59.3707 53.1062 59.327 53.1062 59.2877C53.0931 59.148 53.0887 59.004 53.0844 58.8643C53.08 58.8556 53.08 58.8425 53.08 58.8338C53.08 58.7945 53.08 58.7552 53.0756 58.7159C53.0669 58.4889 53.0582 58.262 53.0538 58.035C53.0451 57.7294 53.0408 57.4239 53.0408 57.114C53.0408 56.7866 53.0495 56.4636 53.0582 56.1406C53.0626 56.0314 53.0713 55.9267 53.0756 55.8176C53.0887 55.6037 53.0974 55.3854 53.1149 55.1715C53.1236 55.045 53.1367 54.9227 53.1498 54.7962C53.1672 54.5997 53.1846 54.4033 53.2064 54.2113C53.2239 54.0759 53.2413 53.945 53.2587 53.814C53.2805 53.6263 53.3067 53.4387 53.3328 53.251C53.3546 53.12 53.3764 52.9847 53.3982 52.8494C53.4287 52.6661 53.4593 52.4827 53.4941 52.2994C53.5203 52.1684 53.5464 52.0331 53.5726 51.9022C53.6118 51.7189 53.6511 51.5355 53.6903 51.3522C53.7208 51.2212 53.747 51.0903 53.7775 50.9593C53.8254 50.776 53.8734 50.5883 53.9213 50.405C53.9518 50.2828 53.9823 50.1562 54.0172 50.034C54.0739 49.8375 54.1306 49.6411 54.1872 49.4447C54.2221 49.3356 54.2526 49.2264 54.2875 49.1173C54.3616 48.8729 54.4444 48.6284 54.5272 48.384C54.5447 48.3273 54.5665 48.2705 54.5839 48.2094C54.6885 47.9126 54.7975 47.6114 54.9109 47.3146C54.9457 47.2317 54.9806 47.1444 55.0155 47.0614C55.0983 46.8519 55.1811 46.6424 55.2683 46.4329C55.3163 46.3237 55.3642 46.2102 55.4165 46.1011C55.4732 45.9658 55.5342 45.8305 55.5952 45.6995C55.6127 45.6515 55.6345 45.6079 55.6563 45.5599C55.7086 45.442 55.7653 45.3242 55.8219 45.2063C55.9004 45.0361 55.9832 44.8658 56.066 44.7C56.1271 44.5777 56.1881 44.4599 56.2491 44.3377C56.3319 44.1762 56.4191 44.0147 56.5019 43.8488C56.5673 43.7309 56.6327 43.6131 56.6981 43.4952C56.7853 43.3337 56.8768 43.1722 56.9684 43.0151C57.0338 42.8972 57.1035 42.7794 57.1689 42.6659C57.2648 42.5044 57.3607 42.3429 57.461 42.1857C57.5264 42.0722 57.5961 41.9631 57.6658 41.854C57.7705 41.6838 57.8794 41.5223 57.9841 41.3564C58.0494 41.256 58.1148 41.1556 58.1802 41.0596C58.3066 40.8675 58.4418 40.6798 58.5726 40.4878C58.6205 40.4179 58.6685 40.3481 58.7164 40.2826C58.8995 40.0251 59.0869 39.7719 59.2744 39.5187C59.318 39.4664 59.3572 39.414 59.3964 39.3616C59.549 39.1652 59.7016 38.9687 59.8541 38.7767C59.9239 38.685 59.998 38.6021 60.0721 38.5104C60.1985 38.3577 60.3249 38.2049 60.4513 38.0521C60.5342 37.9561 60.617 37.86 60.6998 37.764C60.8219 37.6243 60.9439 37.4803 61.0703 37.3406C61.1575 37.2446 61.2447 37.1486 61.3319 37.0525C61.4583 36.9172 61.5804 36.7863 61.7068 36.6509C61.794 36.5549 61.8855 36.4633 61.9771 36.3672C62.1035 36.2363 62.2299 36.1097 62.3607 35.9787C62.4522 35.8871 62.5437 35.7954 62.6353 35.7037C62.7661 35.5772 62.8968 35.4506 63.032 35.3284C63.1235 35.2411 63.2151 35.1538 63.311 35.0665C63.4461 34.9355 63.5856 34.8133 63.7294 34.6867C63.8166 34.6081 63.9038 34.5252 63.9954 34.451C64.1523 34.3113 64.3092 34.176 64.4705 34.0407C64.5446 33.9796 64.6144 33.9185 64.6885 33.8574C64.9239 33.6609 65.1636 33.4689 65.399 33.2855C65.4077 33.2768 65.4164 33.2725 65.4252 33.2637C65.6562 33.0848 65.8872 32.9102 66.1226 32.7399C66.2011 32.6788 66.2839 32.6221 66.3667 32.561C66.528 32.4475 66.6893 32.3296 66.8506 32.2161C66.9509 32.1507 67.0468 32.0852 67.147 32.0197C67.2952 31.9193 67.4434 31.8145 67.596 31.7185C67.7006 31.653 67.8009 31.5832 67.9055 31.5177C68.0537 31.4261 68.1976 31.3344 68.3458 31.2471C68.4548 31.1816 68.5594 31.1162 68.6684 31.0507C68.8166 30.9677 68.9604 30.8804 69.1086 30.7975C69.2176 30.7364 69.3266 30.6753 69.4312 30.6142C69.5838 30.5312 69.732 30.4527 69.8846 30.3741C69.9892 30.3174 70.0982 30.2606 70.2028 30.2039C70.3597 30.1253 70.5123 30.0511 70.6692 29.9725C70.7738 29.9245 70.8741 29.8721 70.9787 29.8241C71.1444 29.7456 71.3144 29.6713 71.48 29.5971C71.5716 29.5535 71.6631 29.5098 71.7547 29.4706C71.9726 29.3789 72.1862 29.2916 72.3998 29.2043C72.4478 29.1868 72.4914 29.165 72.5393 29.1475C72.7965 29.0472 73.0581 28.9468 73.3196 28.8551C73.3981 28.8289 73.4765 28.8027 73.5506 28.7765C73.7381 28.7154 73.9212 28.6499 74.1086 28.5932L74.4094 28.5015C74.5707 28.4535 74.732 28.4055 74.8933 28.3619C75.0022 28.3313 75.1112 28.3051 75.2202 28.2746C75.3771 28.2353 75.5297 28.196 75.6866 28.1611C75.7956 28.1349 75.9089 28.1087 76.0179 28.0869C76.1705 28.0519 76.3231 28.0214 76.4756 27.9908C76.589 27.969 76.698 27.9515 76.8113 27.9297C76.9639 27.9035 77.1164 27.8773 77.269 27.8555C77.378 27.8381 77.4913 27.8206 77.6003 27.8075C77.7572 27.7857 77.9098 27.7682 78.0624 27.7551C78.1713 27.742 78.276 27.7289 78.3849 27.7202C78.5462 27.7027 78.7119 27.694 78.8732 27.6853C78.9691 27.6766 79.065 27.6722 79.1609 27.6635C79.3527 27.6547 79.5445 27.6547 79.7319 27.6504C79.8017 27.6504 79.8671 27.646 79.9368 27.646C80.194 27.646 80.4512 27.6504 80.704 27.6635C80.7651 27.6678 80.8217 27.6722 80.8784 27.6766C81.0746 27.6853 81.2707 27.6984 81.4669 27.7158C81.5584 27.7246 81.65 27.7377 81.7415 27.7508C81.9028 27.7682 82.0641 27.7857 82.221 27.8075C82.3256 27.825 82.4259 27.8424 82.5262 27.8599C82.6744 27.8817 82.8226 27.9079 82.9708 27.9384C83.0754 27.9559 83.18 27.9821 83.2803 28.0039C83.4241 28.0345 83.568 28.0694 83.7118 28.1043C83.8165 28.1305 83.9167 28.1567 84.0213 28.1873C84.1608 28.2265 84.3047 28.2658 84.4442 28.3095C84.5444 28.3444 84.6491 28.3749 84.7493 28.4099C84.8888 28.4579 85.0283 28.5059 85.1678 28.5583C85.2681 28.5976 85.3683 28.6325 85.4642 28.6718C85.6081 28.7285 85.7519 28.7896 85.8914 28.8507C85.983 28.89 86.0745 28.9293 86.1661 28.9729C86.323 29.0472 86.4799 29.1257 86.6325 29.2043C86.7066 29.2392 86.7807 29.2741 86.8548 29.3134C87.0815 29.4356 87.3038 29.5622 87.5261 29.6975C87.5479 29.7106 87.5653 29.7237 87.5871 29.7368C87.7877 29.859 87.9882 29.99 88.1843 30.1253C88.2584 30.1777 88.3326 30.2301 88.4067 30.2824C88.52 30.3697 88.6421 30.4483 88.7554 30.5356C90.9655 32.2249 93.9777 32.1812 96.1878 30.4963C105.495 23.3945 120.987 30.8935 128.14 43.373C128.646 44.0365 129.104 44.7567 129.509 45.5249C129.518 45.538 129.522 45.5555 129.531 45.5686C129.618 45.7257 129.701 45.8872 129.775 46.0487C129.862 46.2233 129.945 46.4023 130.028 46.5856C130.106 46.7646 130.185 46.9523 130.263 47.14C130.32 47.2753 130.372 47.415 130.425 47.5547C130.455 47.6289 130.486 47.7031 130.507 47.7773C130.573 47.9475 130.634 48.1221 130.691 48.2967C130.76 48.4975 130.826 48.6983 130.882 48.9034C130.948 49.1042 131.004 49.3137 131.061 49.5233C131.1 49.6586 131.135 49.7939 131.166 49.9336C131.214 50.1125 131.257 50.2959 131.292 50.4836C131.349 50.7105 131.397 50.9419 131.436 51.1732C131.445 51.2038 131.449 51.2343 131.458 51.2649C131.506 51.5224 131.554 51.7887 131.593 52.0593C131.602 52.1073 131.606 52.151 131.615 52.1946C131.658 52.4653 131.693 52.7359 131.728 53.0152C131.728 53.0283 131.728 53.0414 131.732 53.0589C131.763 53.3208 131.793 53.5871 131.815 53.8577C131.824 53.9581 131.833 54.0628 131.841 54.1676C131.854 54.3073 131.868 54.447 131.876 54.591C131.889 54.7831 131.902 54.9751 131.911 55.1715C131.929 55.4334 131.937 55.6953 131.946 55.9616C131.963 56.3457 131.972 56.7298 131.972 57.114Z" fill="#BEA483"/>
<path d="M131.972 57.114C131.972 57.9128 131.95 58.7072 131.898 59.4929C131.889 59.7199 131.872 59.9512 131.854 60.1782C131.828 60.5186 131.798 60.8548 131.763 61.1909C131.205 66.6078 129.553 71.7017 127.029 76.2457C126.14 77.8476 125.146 79.3841 124.047 80.842C116.841 90.4231 105.386 96.6301 92.5086 96.6301C91.8548 96.6301 91.2009 96.6127 90.5514 96.5821C90.2332 96.5646 89.9149 96.5472 89.5967 96.521C88.8382 96.4686 88.0884 96.39 87.343 96.2896C87.0902 96.2591 86.8374 96.2242 86.5889 96.1849C86.0004 96.0976 85.4206 95.9972 84.8409 95.8793C84.6447 95.8444 84.4485 95.8008 84.2524 95.7571C84.078 95.7222 83.9036 95.6829 83.7293 95.6436C83.4285 95.5781 83.1321 95.504 82.8357 95.4297C82.7833 95.4166 82.731 95.4035 82.6787 95.3861C82.4085 95.3206 82.1382 95.2464 81.8723 95.1722C81.8505 95.1678 81.8287 95.1591 81.8025 95.1504C81.5279 95.0762 81.2576 94.9976 80.9874 94.9103C80.7302 94.8361 80.4773 94.7532 80.2245 94.6702C79.963 94.5873 79.7058 94.5 79.4529 94.4083C79.4311 94.3996 79.405 94.3909 79.3832 94.3821C79.1827 94.3123 78.9822 94.2381 78.7816 94.1639C78.6334 94.1115 78.4896 94.0548 78.3457 93.998C78.0842 93.8976 77.8226 93.7972 77.5654 93.6881C77.3169 93.5877 77.0685 93.483 76.8244 93.3738C76.82 93.3738 76.8156 93.3738 76.8113 93.3651C76.5759 93.2647 76.3405 93.16 76.1095 93.0508C75.7433 92.8893 75.3815 92.7147 75.024 92.5358C74.8104 92.431 74.6056 92.3262 74.3963 92.2171C74.3484 92.1909 74.296 92.1647 74.2481 92.1385C74.0127 92.0163 73.7773 91.8897 73.5463 91.7588C73.5201 91.7501 73.494 91.7326 73.4678 91.7151C73.2411 91.5929 73.0145 91.4663 72.7921 91.3354C72.7311 91.3005 72.6701 91.2656 72.6134 91.2306C72.4172 91.1171 72.2255 91.0037 72.038 90.8858C71.9465 90.8334 71.8549 90.7767 71.7677 90.7199C71.6195 90.6283 71.4713 90.5366 71.3231 90.4406C71.1923 90.3576 71.0572 90.2703 70.9264 90.183C70.7477 90.0695 70.5733 89.9517 70.399 89.8295C70.3859 89.8207 70.3728 89.812 70.3597 89.8033C70.1113 89.6374 69.8628 89.4672 69.623 89.2882C69.392 89.1267 69.161 88.9565 68.9343 88.7862C68.8994 88.7601 68.8645 88.7339 68.8297 88.7077C68.603 88.5374 68.3807 88.3628 68.1584 88.1882C67.9491 88.0267 67.7399 87.8565 67.535 87.6863C67.4565 87.6252 67.3781 87.5597 67.2996 87.4942C67.1122 87.3414 66.9291 87.1843 66.746 87.0228C66.5149 86.8264 66.2883 86.6212 66.0616 86.4161C65.8349 86.2153 65.6082 86.0101 65.3903 85.7962C65.168 85.5867 64.9456 85.3728 64.7364 85.159C64.4574 84.8883 64.1872 84.6133 63.93 84.334C63.773 84.1725 63.6205 84.0066 63.4679 83.8407C63.2586 83.6181 63.0581 83.3911 62.8576 83.1598C62.6571 82.9328 62.4566 82.7015 62.2604 82.4658C62.0555 82.2257 61.8594 81.9856 61.6676 81.7412C61.4801 81.5098 61.297 81.2741 61.1183 81.0384C60.8437 80.6718 60.569 80.3051 60.3031 79.9297C60.0372 79.5587 59.78 79.1789 59.5272 78.7948C59.3616 78.5373 59.1959 78.2797 59.0346 78.0222C58.869 77.7647 58.7077 77.4984 58.5551 77.2365C58.3982 76.9702 58.2413 76.7083 58.093 76.4377C57.644 75.6346 57.2212 74.814 56.8245 73.9802C56.5586 73.4215 56.3101 72.8584 56.0704 72.2866C55.9353 71.968 55.8045 71.6493 55.6824 71.3263C55.5211 70.9117 55.3686 70.4883 55.2204 70.0649C55.0765 69.6371 54.9326 69.2093 54.8019 68.7816C54.7321 68.5589 54.6624 68.332 54.597 68.1093C54.4662 67.6554 54.3442 67.2014 54.2308 66.7475C54.1742 66.5161 54.1175 66.2891 54.0652 66.0578C53.9257 65.4423 53.7949 64.8225 53.6816 64.1983C53.5682 63.5741 53.4723 62.9456 53.3851 62.3127C53.3459 61.994 53.3067 61.6754 53.2718 61.3567C53.2631 61.2607 53.25 61.1603 53.2457 61.0643C53.2326 60.9682 53.2239 60.8722 53.2195 60.7762C53.2151 60.7369 53.2108 60.6976 53.2064 60.654C53.2021 60.6321 53.2021 60.6059 53.1977 60.5841C53.1933 60.523 53.189 60.4619 53.1846 60.3964C53.1715 60.2349 53.1541 60.0734 53.1454 59.9119C53.141 59.8814 53.1367 59.8464 53.141 59.8159C53.128 59.6849 53.1236 59.5583 53.1149 59.4274C53.1105 59.423 53.1105 59.4143 53.1105 59.4099C53.1062 59.3707 53.1062 59.327 53.1062 59.2877C53.0931 59.148 53.0887 59.004 53.0844 58.8643C53.08 58.8556 53.08 58.8425 53.08 58.8338C53.08 58.7945 53.08 58.7552 53.0756 58.7159C53.0669 58.4889 53.0582 58.262 53.0538 58.035C53.0451 57.7294 53.0408 57.4239 53.0408 57.114C53.0408 56.7866 53.0495 56.4636 53.0582 56.1406C53.0626 56.0314 53.0713 55.9267 53.0756 55.8176C53.0887 55.6037 53.0974 55.3854 53.1149 55.1715C53.1236 55.045 53.1367 54.9227 53.1498 54.7962C53.1672 54.5997 53.1846 54.4033 53.2064 54.2113C53.2239 54.0759 53.2413 53.945 53.2587 53.814C53.2805 53.6263 53.3067 53.4387 53.3328 53.251C53.3546 53.12 53.3764 52.9847 53.3982 52.8494C53.4287 52.6661 53.4593 52.4827 53.4941 52.2994C53.5203 52.1684 53.5464 52.0331 53.5726 51.9022C53.6118 51.7189 53.6511 51.5355 53.6903 51.3522C53.7208 51.2212 53.747 51.0903 53.7775 50.9593C53.8254 50.776 53.8734 50.5883 53.9213 50.405C53.9518 50.2828 53.9823 50.1562 54.0172 50.034C54.0739 49.8375 54.1306 49.6411 54.1872 49.4447C54.2221 49.3356 54.2526 49.2264 54.2875 49.1173C54.3616 48.8729 54.4444 48.6284 54.5272 48.384C54.5447 48.3273 54.5665 48.2705 54.5839 48.2094C54.6885 47.9126 54.7975 47.6114 54.9109 47.3146C54.9457 47.2317 54.9806 47.1444 55.0155 47.0614C55.0983 46.8519 55.1811 46.6424 55.2683 46.4329C55.3163 46.3237 55.3642 46.2102 55.4165 46.1011C55.4732 45.9658 55.5342 45.8305 55.5952 45.6995C55.6127 45.6515 55.6345 45.6079 55.6563 45.5599C55.7086 45.442 55.7653 45.3242 55.8219 45.2063C55.9004 45.0361 55.9832 44.8658 56.066 44.7C56.1271 44.5777 56.1881 44.4599 56.2491 44.3377C56.3319 44.1762 56.4191 44.0147 56.5019 43.8488C56.5673 43.7309 56.6327 43.6131 56.6981 43.4952C56.7853 43.3337 56.8768 43.1722 56.9684 43.0151C57.0338 42.8972 57.1035 42.7794 57.1689 42.6659C57.2648 42.5044 57.3607 42.3429 57.461 42.1857C57.5264 42.0722 57.5961 41.9631 57.6658 41.854C57.7705 41.6838 57.8794 41.5223 57.9841 41.3564C58.0494 41.256 58.1148 41.1556 58.1802 41.0596C58.3066 40.8675 58.4418 40.6798 58.5726 40.4878C58.6205 40.4179 58.6685 40.3481 58.7164 40.2826C58.8995 40.0251 59.0869 39.7719 59.2744 39.5187C59.318 39.4664 59.3572 39.414 59.3964 39.3616C59.549 39.1652 59.7016 38.9687 59.8541 38.7767C59.9239 38.685 59.998 38.6021 60.0721 38.5104C60.1985 38.3577 60.3249 38.2049 60.4513 38.0521C60.5342 37.9561 60.617 37.86 60.6998 37.764C60.8219 37.6243 60.9439 37.4803 61.0703 37.3406C61.1575 37.2446 61.2447 37.1486 61.3319 37.0525C61.4583 36.9172 61.5804 36.7863 61.7068 36.6509C61.794 36.5549 61.8855 36.4633 61.9771 36.3672C62.1035 36.2363 62.2299 36.1097 62.3607 35.9787C62.4522 35.8871 62.5437 35.7954 62.6353 35.7037C62.7661 35.5772 62.8968 35.4506 63.032 35.3284C63.1235 35.2411 63.2151 35.1538 63.311 35.0665C63.4461 34.9355 63.5856 34.8133 63.7294 34.6867C63.8166 34.6081 63.9038 34.5252 63.9954 34.451C64.1523 34.3113 64.3092 34.176 64.4705 34.0407C64.5446 33.9796 64.6144 33.9185 64.6885 33.8574C64.9239 33.6609 65.1636 33.4689 65.399 33.2855C65.4077 33.2768 65.4164 33.2725 65.4252 33.2637C65.6562 33.0848 65.8872 32.9102 66.1226 32.7399C66.2011 32.6788 66.2839 32.6221 66.3667 32.561C66.528 32.4475 66.6893 32.3296 66.8506 32.2161C66.9509 32.1507 67.0468 32.0852 67.147 32.0197C67.2952 31.9193 67.4434 31.8145 67.596 31.7185C67.7006 31.653 67.8009 31.5832 67.9055 31.5177C68.0537 31.4261 68.1976 31.3344 68.3458 31.2471C68.4548 31.1816 68.5594 31.1162 68.6684 31.0507C68.8166 30.9677 68.9604 30.8804 69.1086 30.7975C69.2176 30.7364 69.3266 30.6753 69.4312 30.6142C69.5838 30.5312 69.732 30.4527 69.8846 30.3741C69.9892 30.3174 70.0982 30.2606 70.2028 30.2039C70.3597 30.1253 70.5123 30.0511 70.6692 29.9725C70.7738 29.9245 70.8741 29.8721 70.9787 29.8241C71.1444 29.7456 71.3144 29.6713 71.48 29.5971C71.5716 29.5535 71.6631 29.5098 71.7547 29.4706C71.9726 29.3789 72.1862 29.2916 72.3998 29.2043C72.4478 29.1868 72.4914 29.165 72.5393 29.1475C72.7965 29.0472 73.0581 28.9468 73.3196 28.8551C73.3981 28.8289 73.4765 28.8027 73.5506 28.7765C73.7381 28.7154 73.9212 28.6499 74.1086 28.5932L74.4094 28.5015C74.5707 28.4535 74.732 28.4055 74.8933 28.3619C75.0022 28.3313 75.1112 28.3051 75.2202 28.2746C75.3771 28.2353 75.5297 28.196 75.6866 28.1611C75.7956 28.1349 75.9089 28.1087 76.0179 28.0869C76.1705 28.0519 76.3231 28.0214 76.4756 27.9908C76.589 27.969 76.698 27.9515 76.8113 27.9297C76.9639 27.9035 77.1164 27.8773 77.269 27.8555C77.378 27.8381 77.4913 27.8206 77.6003 27.8075C77.7572 27.7857 77.9098 27.7682 78.0624 27.7551C78.1713 27.742 78.276 27.7289 78.3849 27.7202C78.5462 27.7027 78.7119 27.694 78.8732 27.6853C78.9691 27.6766 79.065 27.6722 79.1609 27.6635C79.3527 27.6547 79.5445 27.6547 79.7319 27.6504C79.8017 27.6504 79.8671 27.646 79.9368 27.646C80.194 27.646 80.4512 27.6504 80.704 27.6635C80.7651 27.6678 80.8217 27.6722 80.8784 27.6766C81.0746 27.6853 81.2707 27.6984 81.4669 27.7158C81.5584 27.7246 81.65 27.7377 81.7415 27.7508C81.9028 27.7682 82.0641 27.7857 82.221 27.8075C82.3256 27.825 82.4259 27.8424 82.5262 27.8599C82.6744 27.8817 82.8226 27.9079 82.9708 27.9384C83.0754 27.9559 83.18 27.9821 83.2803 28.0039C83.4241 28.0345 83.568 28.0694 83.7118 28.1043C83.8165 28.1305 83.9167 28.1567 84.0213 28.1873C84.1608 28.2265 84.3047 28.2658 84.4442 28.3095C84.5444 28.3444 84.6491 28.3749 84.7493 28.4099C84.8888 28.4579 85.0283 28.5059 85.1678 28.5583C85.2681 28.5976 85.3683 28.6325 85.4642 28.6718C85.6081 28.7285 85.7519 28.7896 85.8914 28.8507C85.983 28.89 86.0745 28.9293 86.1661 28.9729C86.323 29.0472 86.4799 29.1257 86.6325 29.2043C86.7066 29.2392 86.7807 29.2741 86.8548 29.3134C87.0815 29.4356 87.3038 29.5622 87.5261 29.6975C87.5479 29.7106 87.5653 29.7237 87.5871 29.7368C87.7877 29.859 87.9882 29.99 88.1843 30.1253C88.2584 30.1777 88.3326 30.2301 88.4067 30.2824C88.52 30.3697 88.6421 30.4483 88.7554 30.5356C90.9655 32.2249 93.9777 32.1812 96.1878 30.4963C105.495 23.3945 120.987 30.8935 128.14 43.373C128.646 44.0365 129.104 44.7567 129.509 45.5249C129.518 45.538 129.522 45.5555 129.531 45.5686C129.618 45.7257 129.701 45.8872 129.775 46.0487C129.862 46.2233 129.945 46.4023 130.028 46.5856C130.106 46.7646 130.185 46.9523 130.263 47.14C130.32 47.2753 130.372 47.415 130.425 47.5547C130.455 47.6289 130.486 47.7031 130.507 47.7773C130.573 47.9475 130.634 48.1221 130.691 48.2967C130.76 48.4975 130.826 48.6983 130.882 48.9034C130.948 49.1042 131.004 49.3137 131.061 49.5233C131.1 49.6586 131.135 49.7939 131.166 49.9336C131.214 50.1125 131.257 50.2959 131.292 50.4836C131.349 50.7105 131.397 50.9419 131.436 51.1732C131.445 51.2038 131.449 51.2343 131.458 51.2649C131.506 51.5224 131.554 51.7887 131.593 52.0593C131.602 52.1073 131.606 52.151 131.615 52.1946C131.658 52.4653 131.693 52.7359 131.728 53.0152C131.728 53.0283 131.728 53.0414 131.732 53.0589C131.763 53.3208 131.793 53.5871 131.815 53.8577C131.824 53.9581 131.833 54.0628 131.841 54.1676C131.854 54.3073 131.868 54.447 131.876 54.591C131.889 54.7831 131.902 54.9751 131.911 55.1715C131.929 55.4334 131.937 55.6953 131.946 55.9616C131.963 56.3457 131.972 56.7298 131.972 57.114Z" fill="#E3CCB5"/>
<path d="M88.6246 54.4245C88.6246 61.7402 80.1809 63.5168 69.7712 63.5168C62.6309 63.5168 56.4191 64.883 53.2195 60.7755H53.2151C53.2108 60.7319 53.2064 60.6926 53.2064 60.6533C53.2021 60.6315 53.2021 60.6053 53.1977 60.5835C53.1933 60.5224 53.189 60.4613 53.1846 60.3958C53.1715 60.2343 53.1541 60.0728 53.1454 59.9113C53.141 59.8807 53.1367 59.8458 53.141 59.8152C53.1323 59.7279 53.1236 59.645 53.1192 59.5577C53.1192 59.5272 53.1192 59.4966 53.1149 59.4661C53.1149 59.4486 53.1105 59.4268 53.1105 59.4093C53.1062 59.37 53.1062 59.3264 53.1062 59.2871C53.0931 59.1474 53.0887 59.0034 53.0844 58.8637C53.08 58.855 53.08 58.8419 53.08 58.8331C53.08 58.7938 53.08 58.7546 53.0756 58.7153C53.0669 58.4883 53.0582 58.2613 53.0538 58.0343C53.0451 57.7288 53.0408 57.4232 53.0408 57.1133C53.0408 56.786 53.0495 56.4629 53.0582 56.1399C53.0626 56.0308 53.0713 55.9261 53.0756 55.8169C53.0887 55.603 53.0974 55.3848 53.1149 55.1709C53.1236 55.0443 53.1367 54.9221 53.1498 54.7955C53.1672 54.5991 53.1846 54.4027 53.2064 54.2106C53.2239 54.0753 53.2413 53.9444 53.2587 53.8134C53.2805 53.6257 53.3067 53.438 53.3328 53.2503C53.3546 53.1194 53.3764 52.9841 53.3982 52.8487C53.4287 52.6654 53.4593 52.4821 53.4941 52.2988C53.5203 52.1678 53.5464 52.0325 53.5726 51.9015C53.6118 51.7182 53.6511 51.5349 53.6903 51.3516C53.7208 51.2206 53.747 51.0897 53.7775 50.9587C53.8254 50.7754 53.8734 50.5877 53.9213 50.4044C53.9518 50.2821 53.9823 50.1555 54.0172 50.0333C54.0739 49.8369 54.1306 49.6405 54.1872 49.4441C54.2221 49.3349 54.2526 49.2258 54.2875 49.1167C54.3616 48.8722 54.4444 48.6278 54.5272 48.3834C54.5447 48.3266 54.5665 48.2699 54.5839 48.2088C54.6885 47.9119 54.7975 47.6108 54.9109 47.3139C54.9457 47.231 54.9806 47.1437 55.0155 47.0608C55.0983 46.8513 55.1811 46.6417 55.2683 46.4322C55.3163 46.3231 55.3642 46.2096 55.4165 46.1005C55.4732 45.9652 55.5342 45.8299 55.5952 45.6989C59.0477 42.9315 64.1174 41.1812 69.7712 41.1812C80.1809 41.1812 88.6246 47.1088 88.6246 54.4245Z" fill="#9A856A"/>
<path d="M131.971 57.1133C131.971 57.9121 131.95 58.7065 131.897 59.4922C131.888 59.7192 131.871 59.9506 131.854 60.1775C131.827 60.518 131.797 60.8541 131.762 61.1902C128.475 65.0663 122.455 63.5168 115.559 63.5168C105.149 63.5168 96.7057 61.7402 96.7057 54.4245C96.7057 47.1088 105.149 41.1812 115.559 41.1812C121.091 41.1812 126.06 42.8573 129.508 45.5243C129.517 45.5374 129.521 45.5549 129.53 45.568C129.617 45.7251 129.7 45.8866 129.774 46.0481C129.861 46.2227 129.944 46.4017 130.027 46.585C130.106 46.764 130.184 46.9517 130.263 47.1393C130.319 47.2747 130.371 47.4143 130.424 47.554C130.454 47.6282 130.485 47.7024 130.507 47.7766C130.572 47.9469 130.633 48.1215 130.69 48.2961C130.759 48.4969 130.825 48.6976 130.882 48.9028C130.947 49.1036 131.004 49.3131 131.06 49.5226C131.099 49.6579 131.134 49.7933 131.165 49.9329C131.213 50.1119 131.256 50.2952 131.291 50.4829C131.348 50.7099 131.396 50.9412 131.435 51.1726C131.444 51.2031 131.448 51.2337 131.457 51.2643C131.505 51.5218 131.553 51.7881 131.592 52.0587C131.601 52.1067 131.605 52.1503 131.614 52.194C131.657 52.4646 131.692 52.7353 131.727 53.0146C131.727 53.0277 131.727 53.0408 131.732 53.0583C131.762 53.3202 131.793 53.5864 131.814 53.8571C131.823 53.9574 131.832 54.0622 131.841 54.167C131.854 54.3066 131.867 54.4463 131.875 54.5904C131.888 54.7824 131.902 54.9745 131.91 55.1709C131.923 55.4284 131.932 55.6947 131.941 55.961C131.963 56.3451 131.971 56.7292 131.971 57.1133Z" fill="#9A856A"/>
<path d="M90.4153 64.9972L87.8957 62.1033C87.4032 61.5402 87.8042 60.6584 88.554 60.6584H96.4659C97.2156 60.6584 97.6123 61.5402 97.1241 62.1033L94.6045 64.9972C93.4973 66.2674 91.5269 66.2674 90.4241 64.9972H90.4153Z" fill="#574938"/>
<path d="M99.0036 70.4485C97.4082 72.871 93.8293 73.2246 92.5085 73.2246C91.3228 73.2246 87.6306 72.8841 86.0133 70.4485" stroke="#231815" stroke-width="2" stroke-linecap="round" stroke-linejoin="round"/>
<path d="M75.8306 59.2652C78.5896 59.2652 80.8262 57.4673 80.8262 55.2494C80.8262 53.0316 78.5896 51.2336 75.8306 51.2336C73.0716 51.2336 70.835 53.0316 70.835 55.2494C70.835 57.4673 73.0716 59.2652 75.8306 59.2652Z" fill="white"/>
<path d="M76.5148 57.0085C78.2555 57.0085 79.6665 55.7813 79.6665 54.2673C79.6665 52.7534 78.2555 51.5261 76.5148 51.5261C74.7742 51.5261 73.3632 52.7534 73.3632 54.2673C73.3632 55.7813 74.7742 57.0085 76.5148 57.0085Z" fill="#231815"/>
<path d="M108.632 59.2652C111.391 59.2652 113.628 57.4673 113.628 55.2494C113.628 53.0316 111.391 51.2336 108.632 51.2336C105.873 51.2336 103.637 53.0316 103.637 55.2494C103.637 57.4673 105.873 59.2652 108.632 59.2652Z" fill="white"/>
<path d="M108.005 57.0085C109.746 57.0085 111.157 55.7813 111.157 54.2673C111.157 52.7534 109.746 51.5261 108.005 51.5261C106.264 51.5261 104.853 52.7534 104.853 54.2673C104.853 55.7813 106.264 57.0085 108.005 57.0085Z" fill="#231815"/>
<path d="M53.1145 59.4259V59.4635C53.1145 59.4635 53.1104 59.4259 53.1104 59.4092C53.1104 59.4092 53.1103 59.4217 53.1145 59.4259Z" fill="#BEA483"/>
<path d="M29.179 158.954C35.8977 156.085 37.5356 144.817 32.8374 133.788C28.1392 122.759 18.884 116.144 12.1653 119.013C5.44658 121.883 3.80864 133.15 8.50684 144.18C13.205 155.209 22.4603 161.824 29.179 158.954Z" fill="#B2997B"/>
<path d="M176.493 144.167C181.191 133.138 179.553 121.87 172.835 119.001C166.116 116.131 156.861 122.746 152.163 133.775C147.464 144.805 149.102 156.072 155.821 158.942C162.54 161.811 171.795 155.197 176.493 144.167Z" fill="#B2997B"/>
<path d="M80.1274 102.009C78.7215 95.5086 72.3201 91.38 65.8294 92.7876C59.3388 94.1951 55.2169 100.606 56.6228 107.106L66.5999 153.235C68.0058 159.736 74.4072 163.864 80.8978 162.457C87.3885 161.049 91.5104 154.639 90.1044 148.138L80.1274 102.009Z" fill="#B79E7E"/>
<path d="M127.028 76.2455C126.139 77.8474 125.145 79.3839 124.047 80.8418L127.028 76.2455Z" fill="#BEA483"/>
</svg>
