<svg width="124" height="184" viewBox="0 0 124 184" fill="none" xmlns="http://www.w3.org/2000/svg">
<path d="M49.6741 137.263C58.3703 136.542 66.1623 144.941 66.1623 144.941C66.1623 144.941 59.8619 154.515 51.1657 155.236C42.4695 155.958 34.6775 147.558 34.6775 147.558C34.6775 147.558 40.9779 137.985 49.6741 137.263Z" fill="#AED25D"/>
<path d="M66.1623 144.941C63.8309 147.472 60.1607 150.511 56.2642 150.838C52.3669 151.161 48.2479 148.77 45.5322 146.656C47.8589 144.126 51.5292 141.087 55.4311 140.764C59.333 140.44 63.4474 142.832 66.1623 144.941Z" fill="#97B651"/>
<path d="M59.0802 116.209C67.5358 114.058 76.615 121.053 76.615 121.053C76.615 121.053 71.9867 131.536 63.5311 133.687C55.0755 135.838 45.9963 128.843 45.9963 128.843C45.9963 128.843 50.6247 118.36 59.0802 116.209Z" fill="#AED25D"/>
<path d="M76.6104 121.054C74.7332 123.937 71.6174 127.537 67.825 128.504C64.0325 129.47 59.5754 127.792 56.5452 126.158C58.4232 123.279 61.5381 119.675 65.3306 118.708C69.123 117.741 73.5801 119.42 76.6104 121.054Z" fill="#97B651"/>
<path d="M64.4521 94.0949C72.4294 90.5629 82.5526 95.9432 82.5526 95.9432C82.5526 95.9432 79.7433 107.052 71.766 110.584C63.7888 114.116 53.6655 108.735 53.6655 108.735C53.6655 108.735 56.4748 97.6269 64.4521 94.0949Z" fill="#AED25D"/>
<path d="M82.548 95.9442C81.1765 99.0986 78.708 103.172 75.1342 104.757C71.5559 106.342 66.8798 105.43 63.6203 104.326C64.9918 101.171 67.4603 97.0985 71.034 95.5135C74.6078 93.9284 79.2876 94.8359 82.548 95.9442Z" fill="#97B651"/>
<path d="M67.1602 69.1458C72.1964 62.0243 83.6491 61.4567 83.6491 61.4567C83.6491 61.4567 86.9397 72.428 81.9034 79.5494C76.8672 86.6709 65.4144 87.2384 65.4144 87.2384C65.4144 87.2384 62.1239 76.2672 67.1602 69.1458Z" fill="#AED25D"/>
<path d="M83.6483 61.4521C84.0893 64.8638 84.063 69.6228 81.8061 72.8129C79.5492 76.0031 75.0663 77.6235 71.6983 78.3457C71.2582 74.9385 71.2836 70.1749 73.5405 66.9848C75.7974 63.7947 80.2803 62.1743 83.6437 61.4529L83.6483 61.4521Z" fill="#97B651"/>
<path d="M89.417 78.6674C83.3976 72.3624 85.0491 61.0225 85.0491 61.0225C85.0491 61.0225 96.4624 59.9077 102.483 66.2173C108.502 72.5224 106.85 83.8622 106.85 83.8622C106.85 83.8622 95.4372 84.977 89.417 78.6674Z" fill="#AED25D"/>
<path d="M85.0538 61.0217C88.4874 61.2448 93.1594 62.1869 95.86 65.015C98.5606 67.8431 99.2836 72.5489 99.3408 75.989C95.9072 75.7659 91.2352 74.8238 88.5392 71.9948C85.8431 69.1659 85.1156 64.4609 85.0592 61.0254L85.0538 61.0217Z" fill="#97B651"/>
<path d="M86.9689 113.157C80.9495 106.852 82.6011 95.5124 82.6011 95.5124C82.6011 95.5124 94.0143 94.3976 100.035 100.707C106.054 107.012 104.402 118.352 104.402 118.352C104.402 118.352 92.9892 119.467 86.9689 113.157Z" fill="#AED25D"/>
<path d="M82.6011 95.5124C86.0347 95.7355 90.7067 96.6776 93.4073 99.5057C96.1079 102.334 96.8309 107.04 96.8881 110.48C93.4545 110.257 88.7825 109.314 86.0865 106.486C83.3904 103.657 82.6629 98.9517 82.6065 95.5162L82.6011 95.5124Z" fill="#97B651"/>
<path d="M74.7028 137.835C72.4847 129.406 79.4182 120.279 79.4182 120.279C79.4182 120.279 89.9455 124.817 92.1636 133.247C94.3816 141.677 87.4482 150.803 87.4482 150.803C87.4482 150.803 76.9209 146.265 74.7028 137.835Z" fill="#AED25D"/>
<path d="M79.4182 120.279C82.318 122.132 85.9482 125.215 86.9411 128.994C87.9339 132.773 86.2932 137.242 84.6818 140.28C81.7865 138.426 78.1518 135.344 77.1589 131.565C76.166 127.786 77.8068 123.317 79.4182 120.279Z" fill="#97B651"/>
<path d="M62.1957 162.724C59.9777 154.294 66.9111 145.168 66.9111 145.168C66.9111 145.168 77.4384 149.706 79.6565 158.135C81.8746 166.565 74.9411 175.692 74.9411 175.692C74.9411 175.692 64.4138 171.154 62.1957 162.724Z" fill="#AED25D"/>
<path d="M66.9065 145.169C69.8064 147.021 73.4366 150.104 74.4294 153.883C75.4223 157.662 73.7815 162.132 72.1702 165.17C69.2749 163.316 65.6401 160.234 64.6472 156.455C63.6544 152.676 65.2951 148.206 66.9065 145.169Z" fill="#97B651"/>
<path d="M58.6652 7.1874C90.1344 28.8131 100.426 109.238 54.8443 163.406" stroke="#6F4620" stroke-width="5.82973" stroke-miterlimit="10" stroke-linecap="round"/>
<path d="M38.5765 162.308C45.9313 157.616 56.7486 161.413 56.7486 161.413C56.7486 161.413 55.6452 172.818 48.2904 177.51C40.9356 182.202 30.1183 178.405 30.1183 178.405C30.1183 178.405 31.2217 167 38.5765 162.308Z" fill="#AED25D"/>
<path d="M56.7478 161.409C55.8679 164.733 54.0434 169.132 50.7457 171.235C47.4479 173.338 42.6862 173.142 39.2967 172.541C40.1766 169.217 42.0011 164.818 45.2988 162.715C48.5966 160.612 53.3583 160.808 56.7478 161.409Z" fill="#97B651"/>
</svg>
